G04 (created by PCBnew (20090216-final)) date Mon 24 Jan 2011 11:34:00 AM PST*
G01*
G70*
G90*
%MOIN*%
G04 Gerber Fmt 3.4, Leading zero omitted, Abs format*
%FSLAX34Y34*%
G04 APERTURE LIST*
%ADD10C,0.012000*%
%ADD11C,0.015000*%
%ADD12R,0.070000X0.070000*%
%ADD13C,0.070000*%
%ADD14R,0.070000X0.060000*%
%ADD15C,0.055000*%
%ADD16C,0.130000*%
%ADD17C,0.017000*%
%ADD18C,0.010000*%
%ADD19C,0.008000*%
%ADD20C,0.005000*%
%ADD21R,0.090000X0.090000*%
%ADD22C,0.090000*%
%ADD23R,0.090000X0.080000*%
%ADD24C,0.075000*%
%ADD25C,0.150000*%
G04 APERTURE END LIST*
G54D10*
X63418Y-40304D02*
X63418Y-40038D01*
X63418Y-40171D02*
X62618Y-40169D01*
X62707Y-40169D02*
X62885Y-40303D01*
X63419Y-39452D02*
X63331Y-39452D01*
X63421Y-38532D02*
X62621Y-38530D01*
X62621Y-38530D02*
X63243Y-38865D01*
X63243Y-38865D02*
X63244Y-38398D01*
X63421Y-38080D02*
X62622Y-37611D01*
X63333Y-38080D02*
X62710Y-38078D01*
X62710Y-38078D02*
X62622Y-38011D01*
X62622Y-38011D02*
X62622Y-37678D01*
X62622Y-37678D02*
X62711Y-37611D01*
X62711Y-37611D02*
X63334Y-37613D01*
X63334Y-37613D02*
X63422Y-37680D01*
X63422Y-37680D02*
X63422Y-38013D01*
X63422Y-38013D02*
X63333Y-38080D01*
X63423Y-37294D02*
X62624Y-36825D01*
X63335Y-37294D02*
X62712Y-37292D01*
X62712Y-37292D02*
X62623Y-37225D01*
X62623Y-37225D02*
X62623Y-36892D01*
X62623Y-36892D02*
X62713Y-36825D01*
X62713Y-36825D02*
X63336Y-36827D01*
X63336Y-36827D02*
X63423Y-36894D01*
X63423Y-36894D02*
X63423Y-37227D01*
X63423Y-37227D02*
X63335Y-37294D01*
X63424Y-36508D02*
X62625Y-36039D01*
X63336Y-36508D02*
X62713Y-36506D01*
X62713Y-36506D02*
X62624Y-36439D01*
X62624Y-36439D02*
X62625Y-36106D01*
X62625Y-36106D02*
X62714Y-36039D01*
X62714Y-36039D02*
X63337Y-36041D01*
X63337Y-36041D02*
X63425Y-36108D01*
X63425Y-36108D02*
X63424Y-36441D01*
X63424Y-36441D02*
X63336Y-36508D01*
G54D11*
X62332Y-44752D02*
X62342Y-30752D01*
X59340Y-44750D02*
X63702Y-44752D01*
X59350Y-30750D02*
X63712Y-30752D01*
X62342Y-30752D02*
X62572Y-31195D01*
X62342Y-30752D02*
X62111Y-31195D01*
X62332Y-44752D02*
X62563Y-44309D01*
X62332Y-44752D02*
X62102Y-44309D01*
G54D10*
X51797Y-47295D02*
X52063Y-47295D01*
X51930Y-47295D02*
X51930Y-46495D01*
X51930Y-46584D02*
X51797Y-46762D01*
X52649Y-47295D02*
X52649Y-47207D01*
X53235Y-47295D02*
X53702Y-46495D01*
X53235Y-47207D02*
X53235Y-46584D01*
X53235Y-46584D02*
X53302Y-46495D01*
X53302Y-46495D02*
X53635Y-46495D01*
X53635Y-46495D02*
X53702Y-46584D01*
X53702Y-46584D02*
X53702Y-47207D01*
X53702Y-47207D02*
X53635Y-47295D01*
X53635Y-47295D02*
X53302Y-47295D01*
X53302Y-47295D02*
X53235Y-47207D01*
X54021Y-47295D02*
X54488Y-46495D01*
X54021Y-47207D02*
X54021Y-46584D01*
X54021Y-46584D02*
X54088Y-46495D01*
X54088Y-46495D02*
X54421Y-46495D01*
X54421Y-46495D02*
X54488Y-46584D01*
X54488Y-46584D02*
X54488Y-47207D01*
X54488Y-47207D02*
X54421Y-47295D01*
X54421Y-47295D02*
X54088Y-47295D01*
X54088Y-47295D02*
X54021Y-47207D01*
X54807Y-47295D02*
X55274Y-46495D01*
X54807Y-47207D02*
X54807Y-46584D01*
X54807Y-46584D02*
X54874Y-46495D01*
X54874Y-46495D02*
X55207Y-46495D01*
X55207Y-46495D02*
X55274Y-46584D01*
X55274Y-46584D02*
X55274Y-47207D01*
X55274Y-47207D02*
X55207Y-47295D01*
X55207Y-47295D02*
X54874Y-47295D01*
X54874Y-47295D02*
X54807Y-47207D01*
X55593Y-47295D02*
X56060Y-46495D01*
X55593Y-47207D02*
X55593Y-46584D01*
X55593Y-46584D02*
X55660Y-46495D01*
X55660Y-46495D02*
X55993Y-46495D01*
X55993Y-46495D02*
X56060Y-46584D01*
X56060Y-46584D02*
X56060Y-47207D01*
X56060Y-47207D02*
X55993Y-47295D01*
X55993Y-47295D02*
X55660Y-47295D01*
X55660Y-47295D02*
X55593Y-47207D01*
G54D11*
X49349Y-46205D02*
X59349Y-46215D01*
X49350Y-44740D02*
X49348Y-47575D01*
X59350Y-44750D02*
X59348Y-47585D01*
X59349Y-46215D02*
X58906Y-46445D01*
X59349Y-46215D02*
X58906Y-45984D01*
X49349Y-46205D02*
X49792Y-46436D01*
X49349Y-46205D02*
X49792Y-45975D01*
G54D19*
X51344Y-43700D02*
X51522Y-43700D01*
X51433Y-43700D02*
X51433Y-43300D01*
X51344Y-43300D02*
X51522Y-43300D01*
X51868Y-43700D02*
X51824Y-43656D01*
X51824Y-43656D02*
X51824Y-43345D01*
X51824Y-43345D02*
X51868Y-43300D01*
X51868Y-43300D02*
X52091Y-43300D01*
X52091Y-43300D02*
X52135Y-43345D01*
X52135Y-43345D02*
X52135Y-43656D01*
X52135Y-43656D02*
X52091Y-43700D01*
X52091Y-43700D02*
X51868Y-43700D01*
X52872Y-43700D02*
X52872Y-43300D01*
X52872Y-43300D02*
X53139Y-43300D01*
X53139Y-43300D02*
X53183Y-43345D01*
X53183Y-43345D02*
X53183Y-43478D01*
X53183Y-43478D02*
X53139Y-43523D01*
X53139Y-43523D02*
X52872Y-43523D01*
X53005Y-43523D02*
X53183Y-43700D01*
X53440Y-43700D02*
X53396Y-43656D01*
X53396Y-43656D02*
X53396Y-43478D01*
X53396Y-43478D02*
X53440Y-43434D01*
X53440Y-43434D02*
X53663Y-43434D01*
X53663Y-43434D02*
X53707Y-43478D01*
X53707Y-43478D02*
X53707Y-43656D01*
X53707Y-43656D02*
X53663Y-43700D01*
X53663Y-43700D02*
X53440Y-43700D01*
X54231Y-43300D02*
X54231Y-43700D01*
X54231Y-43700D02*
X53964Y-43700D01*
X53964Y-43700D02*
X53920Y-43656D01*
X53920Y-43656D02*
X53920Y-43478D01*
X53920Y-43478D02*
X53964Y-43434D01*
X53964Y-43434D02*
X54231Y-43434D01*
X54444Y-43567D02*
X54755Y-43567D01*
X54755Y-43567D02*
X54755Y-43478D01*
X54755Y-43478D02*
X54711Y-43434D01*
X54711Y-43434D02*
X54488Y-43434D01*
X54488Y-43434D02*
X54444Y-43478D01*
X54444Y-43478D02*
X54444Y-43656D01*
X54444Y-43656D02*
X54488Y-43700D01*
X54488Y-43700D02*
X54711Y-43700D01*
X54711Y-43700D02*
X54755Y-43656D01*
X55012Y-43700D02*
X54968Y-43656D01*
X54968Y-43656D02*
X54968Y-43478D01*
X54968Y-43478D02*
X55012Y-43434D01*
X55012Y-43434D02*
X55235Y-43434D01*
X55235Y-43434D02*
X55279Y-43478D01*
X55279Y-43478D02*
X55279Y-43656D01*
X55279Y-43656D02*
X55235Y-43700D01*
X55235Y-43700D02*
X55012Y-43700D01*
X56060Y-43700D02*
X56238Y-43700D01*
X56149Y-43700D02*
X56149Y-43300D01*
X56060Y-43300D02*
X56238Y-43300D01*
X56540Y-43700D02*
X56540Y-43434D01*
X56540Y-43478D02*
X56584Y-43434D01*
X56584Y-43434D02*
X56762Y-43434D01*
X56762Y-43434D02*
X56807Y-43478D01*
X56807Y-43478D02*
X56807Y-43700D01*
X57375Y-43656D02*
X57331Y-43700D01*
X57331Y-43700D02*
X57108Y-43700D01*
X57108Y-43700D02*
X57064Y-43656D01*
X57064Y-43656D02*
X57064Y-43478D01*
X57064Y-43478D02*
X57108Y-43434D01*
X57108Y-43434D02*
X57331Y-43434D01*
X57331Y-43434D02*
X57375Y-43478D01*
X51038Y-42900D02*
X51038Y-42500D01*
X51038Y-42500D02*
X51305Y-42500D01*
X51305Y-42500D02*
X51349Y-42545D01*
X51349Y-42545D02*
X51349Y-42634D01*
X51349Y-42634D02*
X51305Y-42678D01*
X51305Y-42678D02*
X51038Y-42678D01*
X51305Y-42678D02*
X51349Y-42767D01*
X51349Y-42767D02*
X51349Y-42856D01*
X51349Y-42856D02*
X51305Y-42900D01*
X51305Y-42900D02*
X51038Y-42900D01*
X51562Y-42900D02*
X51562Y-42634D01*
X51562Y-42723D02*
X51651Y-42634D01*
X51651Y-42634D02*
X51784Y-42634D01*
X51784Y-42634D02*
X51873Y-42723D01*
X52086Y-42767D02*
X52397Y-42767D01*
X52397Y-42767D02*
X52397Y-42678D01*
X52397Y-42678D02*
X52353Y-42634D01*
X52353Y-42634D02*
X52130Y-42634D01*
X52130Y-42634D02*
X52086Y-42678D01*
X52086Y-42678D02*
X52086Y-42856D01*
X52086Y-42856D02*
X52130Y-42900D01*
X52130Y-42900D02*
X52353Y-42900D01*
X52353Y-42900D02*
X52397Y-42856D01*
X52610Y-42634D02*
X52877Y-42634D01*
X52877Y-42634D02*
X52921Y-42678D01*
X52921Y-42678D02*
X52921Y-42900D01*
X52921Y-42900D02*
X52654Y-42900D01*
X52654Y-42900D02*
X52610Y-42856D01*
X52610Y-42856D02*
X52610Y-42812D01*
X52610Y-42812D02*
X52654Y-42767D01*
X52654Y-42767D02*
X52921Y-42767D01*
X53178Y-42900D02*
X53178Y-42500D01*
X53178Y-42767D02*
X53223Y-42767D01*
X53223Y-42767D02*
X53445Y-42634D01*
X53223Y-42767D02*
X53445Y-42900D01*
X53702Y-42900D02*
X53658Y-42856D01*
X53658Y-42856D02*
X53658Y-42678D01*
X53658Y-42678D02*
X53702Y-42634D01*
X53702Y-42634D02*
X53925Y-42634D01*
X53925Y-42634D02*
X53969Y-42678D01*
X53969Y-42678D02*
X53969Y-42856D01*
X53969Y-42856D02*
X53925Y-42900D01*
X53925Y-42900D02*
X53702Y-42900D01*
X54182Y-42634D02*
X54182Y-42812D01*
X54182Y-42812D02*
X54271Y-42900D01*
X54271Y-42900D02*
X54404Y-42900D01*
X54404Y-42900D02*
X54493Y-42812D01*
X54493Y-42812D02*
X54493Y-42634D01*
X54973Y-42856D02*
X54928Y-42900D01*
X54928Y-42900D02*
X54795Y-42900D01*
X54795Y-42900D02*
X54750Y-42856D01*
X54750Y-42856D02*
X54750Y-42500D01*
X54750Y-42634D02*
X54884Y-42634D01*
X55754Y-42500D02*
X55932Y-42900D01*
X55932Y-42900D02*
X56110Y-42500D01*
X56367Y-42900D02*
X56545Y-42900D01*
X56456Y-42900D02*
X56456Y-42500D01*
X56456Y-42545D02*
X56367Y-42634D01*
X56935Y-42900D02*
X56935Y-42856D01*
X57415Y-42900D02*
X57593Y-42900D01*
X57504Y-42900D02*
X57504Y-42500D01*
X57504Y-42545D02*
X57415Y-42634D01*
X51624Y-42200D02*
X51624Y-41800D01*
X51624Y-41800D02*
X51891Y-41800D01*
X51891Y-41800D02*
X51935Y-41845D01*
X51935Y-41845D02*
X51935Y-41978D01*
X51935Y-41978D02*
X51891Y-42023D01*
X51891Y-42023D02*
X51624Y-42023D01*
X52148Y-41934D02*
X52415Y-41934D01*
X52415Y-41934D02*
X52459Y-41978D01*
X52459Y-41978D02*
X52459Y-42200D01*
X52459Y-42200D02*
X52192Y-42200D01*
X52192Y-42200D02*
X52148Y-42156D01*
X52148Y-42156D02*
X52148Y-42112D01*
X52148Y-42112D02*
X52192Y-42067D01*
X52192Y-42067D02*
X52459Y-42067D01*
X52672Y-42200D02*
X52672Y-41934D01*
X52672Y-41978D02*
X52716Y-41934D01*
X52716Y-41934D02*
X52894Y-41934D01*
X52894Y-41934D02*
X52939Y-41978D01*
X52939Y-41978D02*
X52939Y-42200D01*
X53196Y-42067D02*
X53507Y-42067D01*
X53507Y-42067D02*
X53507Y-41978D01*
X53507Y-41978D02*
X53463Y-41934D01*
X53463Y-41934D02*
X53240Y-41934D01*
X53240Y-41934D02*
X53196Y-41978D01*
X53196Y-41978D02*
X53196Y-42156D01*
X53196Y-42156D02*
X53240Y-42200D01*
X53240Y-42200D02*
X53463Y-42200D01*
X53463Y-42200D02*
X53507Y-42156D01*
X53809Y-41800D02*
X53853Y-41800D01*
X53853Y-41800D02*
X53853Y-42200D01*
X53809Y-42200D02*
X53898Y-42200D01*
X54244Y-42156D02*
X54288Y-42200D01*
X54288Y-42200D02*
X54511Y-42200D01*
X54511Y-42200D02*
X54555Y-42156D01*
X54555Y-42156D02*
X54555Y-42112D01*
X54555Y-42112D02*
X54511Y-42067D01*
X54511Y-42067D02*
X54288Y-42067D01*
X54288Y-42067D02*
X54244Y-42023D01*
X54244Y-42023D02*
X54244Y-41978D01*
X54244Y-41978D02*
X54288Y-41934D01*
X54288Y-41934D02*
X54511Y-41934D01*
X54511Y-41934D02*
X54555Y-41978D01*
X55336Y-42200D02*
X55514Y-42200D01*
X55425Y-42200D02*
X55425Y-41800D01*
X55336Y-41800D02*
X55514Y-41800D01*
X55816Y-42156D02*
X55860Y-42200D01*
X55860Y-42200D02*
X56083Y-42200D01*
X56083Y-42200D02*
X56127Y-42156D01*
X56127Y-42156D02*
X56127Y-42023D01*
X56127Y-42023D02*
X56083Y-41978D01*
X56083Y-41978D02*
X55860Y-41978D01*
X55860Y-41978D02*
X55816Y-41934D01*
X55816Y-41934D02*
X55816Y-41845D01*
X55816Y-41845D02*
X55860Y-41800D01*
X55860Y-41800D02*
X56083Y-41800D01*
X56083Y-41800D02*
X56127Y-41845D01*
X56340Y-42200D02*
X56340Y-41800D01*
X56340Y-41800D02*
X56607Y-41800D01*
X56607Y-41800D02*
X56651Y-41845D01*
X56651Y-41845D02*
X56651Y-41978D01*
X56651Y-41978D02*
X56607Y-42023D01*
X56607Y-42023D02*
X56340Y-42023D01*
G54D11*
X49350Y-44750D02*
X59350Y-44750D01*
X49350Y-30750D02*
X59350Y-30750D01*
X59350Y-30750D02*
X59350Y-44750D01*
X49350Y-30750D02*
X49350Y-44750D01*
X56450Y-31050D02*
X52250Y-31050D01*
X56350Y-33850D02*
X55350Y-33850D01*
X55350Y-33850D02*
X55850Y-33250D01*
X55850Y-33250D02*
X56350Y-33850D01*
X52250Y-31050D02*
X52250Y-33050D01*
X52250Y-33050D02*
X56450Y-33050D01*
X56450Y-33050D02*
X56450Y-31050D01*
G54D20*
X56200Y-31750D02*
X56200Y-32350D01*
X56200Y-32350D02*
X55500Y-32350D01*
X55500Y-32350D02*
X55500Y-31750D01*
X55500Y-31750D02*
X56200Y-31750D01*
X55200Y-32050D02*
X55193Y-32117D01*
X55193Y-32117D02*
X55173Y-32183D01*
X55173Y-32183D02*
X55141Y-32243D01*
X55141Y-32243D02*
X55098Y-32296D01*
X55098Y-32296D02*
X55045Y-32340D01*
X55045Y-32340D02*
X54985Y-32372D01*
X54985Y-32372D02*
X54920Y-32392D01*
X54920Y-32392D02*
X54852Y-32399D01*
X54852Y-32399D02*
X54785Y-32393D01*
X54785Y-32393D02*
X54719Y-32374D01*
X54719Y-32374D02*
X54659Y-32342D01*
X54659Y-32342D02*
X54606Y-32300D01*
X54606Y-32300D02*
X54562Y-32247D01*
X54562Y-32247D02*
X54529Y-32187D01*
X54529Y-32187D02*
X54508Y-32122D01*
X54508Y-32122D02*
X54501Y-32054D01*
X54501Y-32054D02*
X54506Y-31987D01*
X54506Y-31987D02*
X54525Y-31922D01*
X54525Y-31922D02*
X54556Y-31861D01*
X54556Y-31861D02*
X54599Y-31807D01*
X54599Y-31807D02*
X54651Y-31763D01*
X54651Y-31763D02*
X54710Y-31730D01*
X54710Y-31730D02*
X54775Y-31709D01*
X54775Y-31709D02*
X54843Y-31701D01*
X54843Y-31701D02*
X54910Y-31706D01*
X54910Y-31706D02*
X54976Y-31724D01*
X54976Y-31724D02*
X55037Y-31755D01*
X55037Y-31755D02*
X55091Y-31797D01*
X55091Y-31797D02*
X55136Y-31849D01*
X55136Y-31849D02*
X55169Y-31908D01*
X55169Y-31908D02*
X55191Y-31973D01*
X55191Y-31973D02*
X55199Y-32041D01*
X55199Y-32041D02*
X55200Y-32050D01*
X54200Y-32050D02*
X54193Y-32117D01*
X54193Y-32117D02*
X54173Y-32183D01*
X54173Y-32183D02*
X54141Y-32243D01*
X54141Y-32243D02*
X54098Y-32296D01*
X54098Y-32296D02*
X54045Y-32340D01*
X54045Y-32340D02*
X53985Y-32372D01*
X53985Y-32372D02*
X53920Y-32392D01*
X53920Y-32392D02*
X53852Y-32399D01*
X53852Y-32399D02*
X53785Y-32393D01*
X53785Y-32393D02*
X53719Y-32374D01*
X53719Y-32374D02*
X53659Y-32342D01*
X53659Y-32342D02*
X53606Y-32300D01*
X53606Y-32300D02*
X53562Y-32247D01*
X53562Y-32247D02*
X53529Y-32187D01*
X53529Y-32187D02*
X53508Y-32122D01*
X53508Y-32122D02*
X53501Y-32054D01*
X53501Y-32054D02*
X53506Y-31987D01*
X53506Y-31987D02*
X53525Y-31922D01*
X53525Y-31922D02*
X53556Y-31861D01*
X53556Y-31861D02*
X53599Y-31807D01*
X53599Y-31807D02*
X53651Y-31763D01*
X53651Y-31763D02*
X53710Y-31730D01*
X53710Y-31730D02*
X53775Y-31709D01*
X53775Y-31709D02*
X53843Y-31701D01*
X53843Y-31701D02*
X53910Y-31706D01*
X53910Y-31706D02*
X53976Y-31724D01*
X53976Y-31724D02*
X54037Y-31755D01*
X54037Y-31755D02*
X54091Y-31797D01*
X54091Y-31797D02*
X54136Y-31849D01*
X54136Y-31849D02*
X54169Y-31908D01*
X54169Y-31908D02*
X54191Y-31973D01*
X54191Y-31973D02*
X54199Y-32041D01*
X54199Y-32041D02*
X54200Y-32050D01*
X53200Y-32050D02*
X53193Y-32117D01*
X53193Y-32117D02*
X53173Y-32183D01*
X53173Y-32183D02*
X53141Y-32243D01*
X53141Y-32243D02*
X53098Y-32296D01*
X53098Y-32296D02*
X53045Y-32340D01*
X53045Y-32340D02*
X52985Y-32372D01*
X52985Y-32372D02*
X52920Y-32392D01*
X52920Y-32392D02*
X52852Y-32399D01*
X52852Y-32399D02*
X52785Y-32393D01*
X52785Y-32393D02*
X52719Y-32374D01*
X52719Y-32374D02*
X52659Y-32342D01*
X52659Y-32342D02*
X52606Y-32300D01*
X52606Y-32300D02*
X52562Y-32247D01*
X52562Y-32247D02*
X52529Y-32187D01*
X52529Y-32187D02*
X52508Y-32122D01*
X52508Y-32122D02*
X52501Y-32054D01*
X52501Y-32054D02*
X52506Y-31987D01*
X52506Y-31987D02*
X52525Y-31922D01*
X52525Y-31922D02*
X52556Y-31861D01*
X52556Y-31861D02*
X52599Y-31807D01*
X52599Y-31807D02*
X52651Y-31763D01*
X52651Y-31763D02*
X52710Y-31730D01*
X52710Y-31730D02*
X52775Y-31709D01*
X52775Y-31709D02*
X52843Y-31701D01*
X52843Y-31701D02*
X52910Y-31706D01*
X52910Y-31706D02*
X52976Y-31724D01*
X52976Y-31724D02*
X53037Y-31755D01*
X53037Y-31755D02*
X53091Y-31797D01*
X53091Y-31797D02*
X53136Y-31849D01*
X53136Y-31849D02*
X53169Y-31908D01*
X53169Y-31908D02*
X53191Y-31973D01*
X53191Y-31973D02*
X53199Y-32041D01*
X53199Y-32041D02*
X53200Y-32050D01*
X59000Y-31750D02*
X58987Y-31876D01*
X58987Y-31876D02*
X58950Y-31997D01*
X58950Y-31997D02*
X58891Y-32109D01*
X58891Y-32109D02*
X58811Y-32208D01*
X58811Y-32208D02*
X58713Y-32288D01*
X58713Y-32288D02*
X58601Y-32349D01*
X58601Y-32349D02*
X58480Y-32386D01*
X58480Y-32386D02*
X58354Y-32399D01*
X58354Y-32399D02*
X58229Y-32388D01*
X58229Y-32388D02*
X58107Y-32352D01*
X58107Y-32352D02*
X57995Y-32293D01*
X57995Y-32293D02*
X57896Y-32214D01*
X57896Y-32214D02*
X57814Y-32117D01*
X57814Y-32117D02*
X57753Y-32006D01*
X57753Y-32006D02*
X57715Y-31885D01*
X57715Y-31885D02*
X57701Y-31759D01*
X57701Y-31759D02*
X57711Y-31633D01*
X57711Y-31633D02*
X57746Y-31511D01*
X57746Y-31511D02*
X57804Y-31398D01*
X57804Y-31398D02*
X57883Y-31299D01*
X57883Y-31299D02*
X57980Y-31217D01*
X57980Y-31217D02*
X58090Y-31155D01*
X58090Y-31155D02*
X58211Y-31116D01*
X58211Y-31116D02*
X58337Y-31101D01*
X58337Y-31101D02*
X58462Y-31110D01*
X58462Y-31110D02*
X58585Y-31144D01*
X58585Y-31144D02*
X58698Y-31202D01*
X58698Y-31202D02*
X58798Y-31280D01*
X58798Y-31280D02*
X58881Y-31376D01*
X58881Y-31376D02*
X58943Y-31486D01*
X58943Y-31486D02*
X58983Y-31606D01*
X58983Y-31606D02*
X58999Y-31732D01*
X58999Y-31732D02*
X59000Y-31750D01*
X51000Y-31750D02*
X50987Y-31876D01*
X50987Y-31876D02*
X50950Y-31997D01*
X50950Y-31997D02*
X50891Y-32109D01*
X50891Y-32109D02*
X50811Y-32208D01*
X50811Y-32208D02*
X50713Y-32288D01*
X50713Y-32288D02*
X50601Y-32349D01*
X50601Y-32349D02*
X50480Y-32386D01*
X50480Y-32386D02*
X50354Y-32399D01*
X50354Y-32399D02*
X50229Y-32388D01*
X50229Y-32388D02*
X50107Y-32352D01*
X50107Y-32352D02*
X49995Y-32293D01*
X49995Y-32293D02*
X49896Y-32214D01*
X49896Y-32214D02*
X49814Y-32117D01*
X49814Y-32117D02*
X49753Y-32006D01*
X49753Y-32006D02*
X49715Y-31885D01*
X49715Y-31885D02*
X49701Y-31759D01*
X49701Y-31759D02*
X49711Y-31633D01*
X49711Y-31633D02*
X49746Y-31511D01*
X49746Y-31511D02*
X49804Y-31398D01*
X49804Y-31398D02*
X49883Y-31299D01*
X49883Y-31299D02*
X49980Y-31217D01*
X49980Y-31217D02*
X50090Y-31155D01*
X50090Y-31155D02*
X50211Y-31116D01*
X50211Y-31116D02*
X50337Y-31101D01*
X50337Y-31101D02*
X50462Y-31110D01*
X50462Y-31110D02*
X50585Y-31144D01*
X50585Y-31144D02*
X50698Y-31202D01*
X50698Y-31202D02*
X50798Y-31280D01*
X50798Y-31280D02*
X50881Y-31376D01*
X50881Y-31376D02*
X50943Y-31486D01*
X50943Y-31486D02*
X50983Y-31606D01*
X50983Y-31606D02*
X50999Y-31732D01*
X50999Y-31732D02*
X51000Y-31750D01*
X59000Y-43750D02*
X58987Y-43876D01*
X58987Y-43876D02*
X58950Y-43997D01*
X58950Y-43997D02*
X58891Y-44109D01*
X58891Y-44109D02*
X58811Y-44208D01*
X58811Y-44208D02*
X58713Y-44288D01*
X58713Y-44288D02*
X58601Y-44349D01*
X58601Y-44349D02*
X58480Y-44386D01*
X58480Y-44386D02*
X58354Y-44399D01*
X58354Y-44399D02*
X58229Y-44388D01*
X58229Y-44388D02*
X58107Y-44352D01*
X58107Y-44352D02*
X57995Y-44293D01*
X57995Y-44293D02*
X57896Y-44214D01*
X57896Y-44214D02*
X57814Y-44117D01*
X57814Y-44117D02*
X57753Y-44006D01*
X57753Y-44006D02*
X57715Y-43885D01*
X57715Y-43885D02*
X57701Y-43759D01*
X57701Y-43759D02*
X57711Y-43633D01*
X57711Y-43633D02*
X57746Y-43511D01*
X57746Y-43511D02*
X57804Y-43398D01*
X57804Y-43398D02*
X57883Y-43299D01*
X57883Y-43299D02*
X57980Y-43217D01*
X57980Y-43217D02*
X58090Y-43155D01*
X58090Y-43155D02*
X58211Y-43116D01*
X58211Y-43116D02*
X58337Y-43101D01*
X58337Y-43101D02*
X58462Y-43110D01*
X58462Y-43110D02*
X58585Y-43144D01*
X58585Y-43144D02*
X58698Y-43202D01*
X58698Y-43202D02*
X58798Y-43280D01*
X58798Y-43280D02*
X58881Y-43376D01*
X58881Y-43376D02*
X58943Y-43486D01*
X58943Y-43486D02*
X58983Y-43606D01*
X58983Y-43606D02*
X58999Y-43732D01*
X58999Y-43732D02*
X59000Y-43750D01*
X51000Y-43750D02*
X50987Y-43876D01*
X50987Y-43876D02*
X50950Y-43997D01*
X50950Y-43997D02*
X50891Y-44109D01*
X50891Y-44109D02*
X50811Y-44208D01*
X50811Y-44208D02*
X50713Y-44288D01*
X50713Y-44288D02*
X50601Y-44349D01*
X50601Y-44349D02*
X50480Y-44386D01*
X50480Y-44386D02*
X50354Y-44399D01*
X50354Y-44399D02*
X50229Y-44388D01*
X50229Y-44388D02*
X50107Y-44352D01*
X50107Y-44352D02*
X49995Y-44293D01*
X49995Y-44293D02*
X49896Y-44214D01*
X49896Y-44214D02*
X49814Y-44117D01*
X49814Y-44117D02*
X49753Y-44006D01*
X49753Y-44006D02*
X49715Y-43885D01*
X49715Y-43885D02*
X49701Y-43759D01*
X49701Y-43759D02*
X49711Y-43633D01*
X49711Y-43633D02*
X49746Y-43511D01*
X49746Y-43511D02*
X49804Y-43398D01*
X49804Y-43398D02*
X49883Y-43299D01*
X49883Y-43299D02*
X49980Y-43217D01*
X49980Y-43217D02*
X50090Y-43155D01*
X50090Y-43155D02*
X50211Y-43116D01*
X50211Y-43116D02*
X50337Y-43101D01*
X50337Y-43101D02*
X50462Y-43110D01*
X50462Y-43110D02*
X50585Y-43144D01*
X50585Y-43144D02*
X50698Y-43202D01*
X50698Y-43202D02*
X50798Y-43280D01*
X50798Y-43280D02*
X50881Y-43376D01*
X50881Y-43376D02*
X50943Y-43486D01*
X50943Y-43486D02*
X50983Y-43606D01*
X50983Y-43606D02*
X50999Y-43732D01*
X50999Y-43732D02*
X51000Y-43750D01*
G54D10*
X58020Y-33300D02*
X58020Y-32700D01*
X58020Y-32700D02*
X57620Y-32700D01*
X57620Y-32700D02*
X57553Y-32767D01*
X57553Y-32767D02*
X57553Y-32967D01*
X57553Y-32967D02*
X57620Y-33034D01*
X57620Y-33034D02*
X58020Y-33034D01*
X56767Y-33300D02*
X57234Y-33300D01*
X57234Y-33300D02*
X57234Y-33100D01*
X57234Y-33100D02*
X57167Y-33034D01*
X57167Y-33034D02*
X56834Y-33034D01*
X56834Y-33034D02*
X56767Y-32967D01*
X56767Y-32967D02*
X56767Y-32767D01*
X56767Y-32767D02*
X56834Y-32700D01*
X56834Y-32700D02*
X57167Y-32700D01*
X57167Y-32700D02*
X57234Y-32767D01*
M02*
