G04 (created by PCBnew (20090216-final)) date Thu 03 Feb 2011 01:20:25 PM PST*
G01*
G70*
G90*
%MOIN*%
G04 Gerber Fmt 3.4, Leading zero omitted, Abs format*
%FSLAX34Y34*%
G04 APERTURE LIST*
%ADD10C,0.015000*%
%ADD11R,0.070000X0.070000*%
%ADD12C,0.070000*%
%ADD13R,0.070000X0.060000*%
%ADD14C,0.055000*%
%ADD15C,0.130000*%
%ADD16C,0.017000*%
%ADD17C,0.010000*%
G04 APERTURE END LIST*
G54D10*
X49350Y-44750D02*
X59350Y-44750D01*
X49350Y-30750D02*
X59350Y-30750D01*
X59350Y-30750D02*
X59350Y-44750D01*
X49350Y-30750D02*
X49350Y-44750D01*
G54D11*
X53350Y-36250D03*
G54D12*
X53350Y-35250D03*
X54350Y-36250D03*
X54350Y-35250D03*
X55350Y-36250D03*
X55350Y-35250D03*
G54D13*
X55850Y-32550D03*
G54D12*
X54850Y-32550D03*
X53850Y-32550D03*
X52850Y-32550D03*
G54D11*
X50850Y-40000D03*
G54D12*
X51850Y-40000D03*
X52850Y-40000D03*
X53850Y-40000D03*
X54850Y-40000D03*
X55850Y-40000D03*
X56850Y-40000D03*
X57850Y-40000D03*
G54D14*
X50600Y-34000D03*
X50600Y-37000D03*
G54D15*
X58350Y-31750D03*
X50350Y-31750D03*
X58350Y-43750D03*
X50350Y-43750D03*
G54D16*
X55850Y-32550D02*
X55850Y-33050D01*
X53350Y-34400D02*
X53350Y-35250D01*
X54250Y-33500D02*
X53350Y-34400D01*
X55400Y-33500D02*
X54250Y-33500D01*
X55850Y-33050D02*
X55400Y-33500D01*
X50600Y-34000D02*
X52100Y-34000D01*
X52100Y-34000D02*
X53350Y-35250D01*
X54350Y-35250D02*
X54350Y-34600D01*
X55850Y-38750D02*
X55850Y-40000D01*
X56600Y-38000D02*
X55850Y-38750D01*
X56600Y-34350D02*
X56600Y-38000D01*
X56250Y-34000D02*
X56600Y-34350D01*
X54950Y-34000D02*
X56250Y-34000D01*
X54350Y-34600D02*
X54950Y-34000D01*
X52850Y-40000D02*
X52850Y-37300D01*
X52850Y-37300D02*
X52850Y-37350D01*
X52850Y-37350D02*
X52850Y-37300D01*
X50600Y-37000D02*
X51950Y-37000D01*
X54300Y-37300D02*
X55350Y-36250D01*
X52250Y-37300D02*
X52850Y-37300D01*
X52850Y-37300D02*
X54300Y-37300D01*
X51950Y-37000D02*
X52250Y-37300D01*
G54D17*
X55312Y-39615D02*
X55388Y-39615D01*
X54312Y-39615D02*
X54387Y-39615D01*
X53312Y-39615D02*
X53388Y-39615D01*
X55232Y-39535D02*
X55468Y-39535D01*
X54232Y-39535D02*
X54468Y-39535D01*
X53232Y-39535D02*
X53468Y-39535D01*
X55100Y-39455D02*
X55515Y-39455D01*
X54100Y-39455D02*
X54601Y-39455D01*
X53185Y-39455D02*
X53601Y-39455D01*
X53185Y-39375D02*
X55515Y-39375D01*
X53185Y-39295D02*
X55515Y-39295D01*
X53185Y-39215D02*
X55515Y-39215D01*
X53185Y-39135D02*
X55515Y-39135D01*
X53185Y-39055D02*
X55515Y-39055D01*
X53185Y-38975D02*
X55515Y-38975D01*
X53185Y-38895D02*
X55515Y-38895D01*
X53185Y-38815D02*
X55515Y-38815D01*
X53185Y-38735D02*
X55519Y-38735D01*
X53185Y-38655D02*
X55535Y-38655D01*
X53185Y-38575D02*
X55573Y-38575D01*
X53185Y-38495D02*
X55631Y-38495D01*
X53185Y-38415D02*
X55711Y-38415D01*
X53185Y-38335D02*
X55791Y-38335D01*
X53185Y-38255D02*
X55871Y-38255D01*
X53185Y-38175D02*
X55951Y-38175D01*
X53185Y-38095D02*
X56031Y-38095D01*
X53185Y-38015D02*
X56111Y-38015D01*
X53185Y-37935D02*
X56191Y-37935D01*
X53185Y-37855D02*
X56265Y-37855D01*
X53185Y-37775D02*
X56265Y-37775D01*
X53185Y-37695D02*
X56265Y-37695D01*
X54398Y-37615D02*
X56265Y-37615D01*
X54538Y-37535D02*
X56265Y-37535D01*
X54618Y-37455D02*
X56265Y-37455D01*
X54698Y-37375D02*
X56265Y-37375D01*
X54778Y-37295D02*
X56265Y-37295D01*
X54858Y-37215D02*
X56265Y-37215D01*
X54938Y-37135D02*
X56265Y-37135D01*
X55018Y-37055D02*
X56265Y-37055D01*
X55098Y-36975D02*
X56265Y-36975D01*
X55178Y-36895D02*
X56265Y-36895D01*
X55551Y-36815D02*
X56265Y-36815D01*
X55712Y-36735D02*
X56265Y-36735D01*
X55792Y-36655D02*
X56265Y-36655D01*
X55863Y-36575D02*
X56265Y-36575D01*
X55896Y-36495D02*
X56265Y-36495D01*
X55929Y-36415D02*
X56265Y-36415D01*
X55949Y-36335D02*
X56265Y-36335D01*
X55949Y-36255D02*
X56265Y-36255D01*
X55949Y-36175D02*
X56265Y-36175D01*
X55935Y-36095D02*
X56265Y-36095D01*
X55902Y-36015D02*
X56265Y-36015D01*
X55868Y-35935D02*
X56265Y-35935D01*
X55802Y-35855D02*
X56265Y-35855D01*
X54802Y-35855D02*
X54898Y-35855D01*
X55722Y-35775D02*
X56265Y-35775D01*
X54722Y-35775D02*
X54978Y-35775D01*
X55576Y-35695D02*
X56265Y-35695D01*
X54752Y-35695D02*
X55124Y-35695D01*
X55657Y-35615D02*
X56265Y-35615D01*
X54832Y-35615D02*
X55042Y-35615D01*
X55758Y-35535D02*
X56265Y-35535D01*
X55628Y-35535D02*
X55642Y-35535D01*
X55058Y-35535D02*
X55072Y-35535D01*
X54879Y-35535D02*
X54940Y-35535D01*
X55794Y-35455D02*
X56265Y-35455D01*
X55548Y-35455D02*
X55562Y-35455D01*
X55138Y-35455D02*
X55152Y-35455D01*
X55830Y-35375D02*
X56265Y-35375D01*
X55468Y-35375D02*
X55482Y-35375D01*
X55218Y-35375D02*
X55232Y-35375D01*
X55838Y-35295D02*
X56265Y-35295D01*
X55388Y-35295D02*
X55402Y-35295D01*
X55298Y-35295D02*
X55312Y-35295D01*
X55840Y-35215D02*
X56265Y-35215D01*
X55378Y-35215D02*
X55392Y-35215D01*
X55308Y-35215D02*
X55322Y-35215D01*
X55830Y-35135D02*
X56265Y-35135D01*
X55458Y-35135D02*
X55472Y-35135D01*
X55228Y-35135D02*
X55242Y-35135D01*
X55800Y-35055D02*
X56265Y-35055D01*
X55538Y-35055D02*
X55552Y-35055D01*
X55148Y-35055D02*
X55162Y-35055D01*
X55767Y-34975D02*
X56265Y-34975D01*
X55618Y-34975D02*
X55632Y-34975D01*
X55068Y-34975D02*
X55082Y-34975D01*
X54885Y-34975D02*
X54937Y-34975D01*
X55662Y-34895D02*
X56265Y-34895D01*
X54842Y-34895D02*
X55039Y-34895D01*
X55577Y-34815D02*
X56265Y-34815D01*
X54762Y-34815D02*
X55116Y-34815D01*
X54689Y-34735D02*
X56265Y-34735D01*
X54769Y-34655D02*
X56265Y-34655D01*
X54849Y-34575D02*
X56265Y-34575D01*
X54929Y-34495D02*
X56265Y-34495D01*
X55009Y-34415D02*
X56191Y-34415D01*
X55089Y-34335D02*
X56111Y-34335D01*
X50907Y-44465D02*
X57792Y-44465D01*
X50987Y-44385D02*
X57712Y-44385D01*
X51067Y-44305D02*
X57632Y-44305D01*
X51127Y-44225D02*
X57572Y-44225D01*
X51160Y-44145D02*
X57539Y-44145D01*
X51193Y-44065D02*
X57506Y-44065D01*
X51227Y-43985D02*
X57473Y-43985D01*
X51250Y-43905D02*
X57450Y-43905D01*
X51250Y-43825D02*
X57450Y-43825D01*
X51250Y-43745D02*
X57450Y-43745D01*
X51250Y-43665D02*
X57450Y-43665D01*
X51250Y-43585D02*
X57450Y-43585D01*
X51223Y-43505D02*
X57478Y-43505D01*
X51190Y-43425D02*
X57511Y-43425D01*
X51157Y-43345D02*
X57544Y-43345D01*
X51123Y-43265D02*
X57578Y-43265D01*
X59058Y-43185D02*
X59075Y-43185D01*
X51058Y-43185D02*
X57643Y-43185D01*
X49625Y-43185D02*
X49643Y-43185D01*
X58978Y-43105D02*
X59075Y-43105D01*
X50978Y-43105D02*
X57723Y-43105D01*
X49625Y-43105D02*
X49723Y-43105D01*
X58898Y-43025D02*
X59075Y-43025D01*
X50898Y-43025D02*
X57803Y-43025D01*
X49625Y-43025D02*
X49803Y-43025D01*
X58758Y-42945D02*
X59075Y-42945D01*
X50758Y-42945D02*
X57941Y-42945D01*
X49625Y-42945D02*
X49943Y-42945D01*
X58566Y-42865D02*
X59075Y-42865D01*
X50566Y-42865D02*
X58136Y-42865D01*
X49625Y-42865D02*
X50136Y-42865D01*
X49625Y-42785D02*
X59075Y-42785D01*
X49625Y-42705D02*
X59075Y-42705D01*
X49625Y-42625D02*
X59075Y-42625D01*
X49625Y-42545D02*
X59075Y-42545D01*
X49625Y-42465D02*
X59075Y-42465D01*
X49625Y-42385D02*
X59075Y-42385D01*
X49625Y-42305D02*
X59075Y-42305D01*
X49625Y-42225D02*
X59075Y-42225D01*
X49625Y-42145D02*
X59075Y-42145D01*
X49625Y-42065D02*
X59075Y-42065D01*
X49625Y-41985D02*
X59075Y-41985D01*
X49625Y-41905D02*
X59075Y-41905D01*
X49625Y-41825D02*
X59075Y-41825D01*
X49625Y-41745D02*
X59075Y-41745D01*
X49625Y-41665D02*
X59075Y-41665D01*
X49625Y-41585D02*
X59075Y-41585D01*
X49625Y-41505D02*
X59075Y-41505D01*
X49625Y-41425D02*
X59075Y-41425D01*
X49625Y-41345D02*
X59075Y-41345D01*
X49625Y-41265D02*
X59075Y-41265D01*
X49625Y-41185D02*
X59075Y-41185D01*
X49625Y-41105D02*
X59075Y-41105D01*
X49625Y-41025D02*
X59075Y-41025D01*
X49625Y-40945D02*
X59075Y-40945D01*
X49625Y-40865D02*
X59075Y-40865D01*
X49625Y-40785D02*
X59075Y-40785D01*
X49625Y-40705D02*
X59075Y-40705D01*
X49625Y-40625D02*
X59075Y-40625D01*
X57099Y-40545D02*
X59075Y-40545D01*
X56099Y-40545D02*
X56600Y-40545D01*
X55099Y-40545D02*
X55600Y-40545D01*
X54099Y-40545D02*
X54600Y-40545D01*
X53099Y-40545D02*
X53600Y-40545D01*
X52099Y-40545D02*
X52600Y-40545D01*
X51357Y-40545D02*
X51600Y-40545D01*
X49625Y-40545D02*
X50343Y-40545D01*
X58004Y-40465D02*
X59075Y-40465D01*
X57232Y-40465D02*
X57690Y-40465D01*
X56231Y-40465D02*
X56468Y-40465D01*
X55231Y-40465D02*
X55468Y-40465D01*
X54232Y-40465D02*
X54468Y-40465D01*
X53231Y-40465D02*
X53468Y-40465D01*
X52232Y-40465D02*
X52468Y-40465D01*
X51421Y-40465D02*
X51468Y-40465D01*
X49625Y-40465D02*
X50278Y-40465D01*
X58148Y-40385D02*
X59075Y-40385D01*
X57312Y-40385D02*
X57551Y-40385D01*
X56310Y-40385D02*
X56388Y-40385D01*
X55310Y-40385D02*
X55388Y-40385D01*
X54312Y-40385D02*
X54388Y-40385D01*
X53310Y-40385D02*
X53388Y-40385D01*
X52312Y-40385D02*
X52388Y-40385D01*
X49625Y-40385D02*
X50251Y-40385D01*
X58220Y-40305D02*
X59075Y-40305D01*
X58148Y-40305D02*
X58162Y-40305D01*
X57538Y-40305D02*
X57552Y-40305D01*
X57371Y-40305D02*
X57479Y-40305D01*
X49625Y-40305D02*
X50251Y-40305D01*
X58285Y-40225D02*
X59075Y-40225D01*
X58068Y-40225D02*
X58082Y-40225D01*
X57618Y-40225D02*
X57632Y-40225D01*
X57404Y-40225D02*
X57411Y-40225D01*
X49625Y-40225D02*
X50251Y-40225D01*
X58321Y-40145D02*
X59075Y-40145D01*
X57988Y-40145D02*
X58002Y-40145D01*
X57698Y-40145D02*
X57712Y-40145D01*
X49625Y-40145D02*
X50251Y-40145D01*
X58337Y-40065D02*
X59075Y-40065D01*
X57908Y-40065D02*
X57922Y-40065D01*
X57778Y-40065D02*
X57792Y-40065D01*
X49625Y-40065D02*
X50251Y-40065D01*
X58339Y-39985D02*
X59075Y-39985D01*
X57858Y-39985D02*
X57872Y-39985D01*
X57828Y-39985D02*
X57842Y-39985D01*
X49625Y-39985D02*
X50251Y-39985D01*
X58338Y-39905D02*
X59075Y-39905D01*
X57938Y-39905D02*
X57952Y-39905D01*
X57748Y-39905D02*
X57762Y-39905D01*
X49625Y-39905D02*
X50251Y-39905D01*
X58308Y-39825D02*
X59075Y-39825D01*
X58018Y-39825D02*
X58032Y-39825D01*
X57668Y-39825D02*
X57682Y-39825D01*
X49625Y-39825D02*
X50251Y-39825D01*
X58278Y-39745D02*
X59075Y-39745D01*
X58098Y-39745D02*
X58112Y-39745D01*
X57588Y-39745D02*
X57602Y-39745D01*
X57393Y-39745D02*
X57428Y-39745D01*
X49625Y-39745D02*
X50251Y-39745D01*
X58171Y-39665D02*
X59075Y-39665D01*
X57360Y-39665D02*
X57530Y-39665D01*
X49625Y-39665D02*
X50251Y-39665D01*
X58122Y-39585D02*
X59075Y-39585D01*
X57282Y-39585D02*
X57573Y-39585D01*
X56283Y-39585D02*
X56418Y-39585D01*
X52283Y-39585D02*
X52418Y-39585D01*
X49625Y-39585D02*
X50258Y-39585D01*
X57202Y-39505D02*
X59075Y-39505D01*
X56203Y-39505D02*
X56498Y-39505D01*
X52203Y-39505D02*
X52498Y-39505D01*
X51407Y-39505D02*
X51498Y-39505D01*
X49625Y-39505D02*
X50293Y-39505D01*
X57028Y-39425D02*
X59075Y-39425D01*
X56185Y-39425D02*
X56673Y-39425D01*
X52028Y-39425D02*
X52515Y-39425D01*
X51308Y-39425D02*
X51673Y-39425D01*
X49625Y-39425D02*
X50393Y-39425D01*
X56185Y-39345D02*
X59075Y-39345D01*
X49625Y-39345D02*
X52515Y-39345D01*
X56185Y-39265D02*
X59075Y-39265D01*
X49625Y-39265D02*
X52515Y-39265D01*
X56185Y-39185D02*
X59075Y-39185D01*
X49625Y-39185D02*
X52515Y-39185D01*
X56185Y-39105D02*
X59075Y-39105D01*
X49625Y-39105D02*
X52515Y-39105D01*
X56185Y-39025D02*
X59075Y-39025D01*
X49625Y-39025D02*
X52515Y-39025D01*
X56185Y-38945D02*
X59075Y-38945D01*
X49625Y-38945D02*
X52515Y-38945D01*
X56207Y-38865D02*
X59075Y-38865D01*
X49625Y-38865D02*
X52515Y-38865D01*
X56287Y-38785D02*
X59075Y-38785D01*
X49625Y-38785D02*
X52515Y-38785D01*
X56367Y-38705D02*
X59075Y-38705D01*
X49625Y-38705D02*
X52515Y-38705D01*
X56447Y-38625D02*
X59075Y-38625D01*
X49625Y-38625D02*
X52515Y-38625D01*
X56527Y-38545D02*
X59075Y-38545D01*
X49625Y-38545D02*
X52515Y-38545D01*
X56607Y-38465D02*
X59075Y-38465D01*
X49625Y-38465D02*
X52515Y-38465D01*
X56687Y-38385D02*
X59075Y-38385D01*
X49625Y-38385D02*
X52515Y-38385D01*
X56767Y-38305D02*
X59075Y-38305D01*
X49625Y-38305D02*
X52515Y-38305D01*
X56844Y-38225D02*
X59075Y-38225D01*
X49625Y-38225D02*
X52515Y-38225D01*
X56897Y-38145D02*
X59075Y-38145D01*
X49625Y-38145D02*
X52515Y-38145D01*
X56921Y-38065D02*
X59075Y-38065D01*
X49625Y-38065D02*
X52515Y-38065D01*
X56935Y-37985D02*
X59075Y-37985D01*
X49625Y-37985D02*
X52515Y-37985D01*
X56935Y-37905D02*
X59075Y-37905D01*
X49625Y-37905D02*
X52515Y-37905D01*
X56935Y-37825D02*
X59075Y-37825D01*
X49625Y-37825D02*
X52515Y-37825D01*
X56935Y-37745D02*
X59075Y-37745D01*
X49625Y-37745D02*
X52515Y-37745D01*
X56935Y-37665D02*
X59075Y-37665D01*
X49625Y-37665D02*
X52515Y-37665D01*
X56935Y-37585D02*
X59075Y-37585D01*
X49625Y-37585D02*
X52085Y-37585D01*
X56935Y-37505D02*
X59075Y-37505D01*
X50752Y-37505D02*
X51981Y-37505D01*
X49625Y-37505D02*
X50446Y-37505D01*
X56935Y-37425D02*
X59075Y-37425D01*
X50917Y-37425D02*
X51901Y-37425D01*
X49625Y-37425D02*
X50282Y-37425D01*
X56935Y-37345D02*
X59075Y-37345D01*
X50997Y-37345D02*
X51821Y-37345D01*
X49625Y-37345D02*
X50202Y-37345D01*
X56935Y-37265D02*
X59075Y-37265D01*
X49625Y-37265D02*
X50141Y-37265D01*
X56935Y-37185D02*
X59075Y-37185D01*
X49625Y-37185D02*
X50108Y-37185D01*
X56935Y-37105D02*
X59075Y-37105D01*
X49625Y-37105D02*
X50075Y-37105D01*
X56935Y-37025D02*
X59075Y-37025D01*
X49625Y-37025D02*
X50075Y-37025D01*
X56935Y-36945D02*
X59075Y-36945D01*
X52369Y-36945D02*
X54181Y-36945D01*
X49625Y-36945D02*
X50075Y-36945D01*
X56935Y-36865D02*
X59075Y-36865D01*
X52289Y-36865D02*
X54261Y-36865D01*
X49625Y-36865D02*
X50088Y-36865D01*
X56935Y-36785D02*
X59075Y-36785D01*
X53867Y-36785D02*
X54076Y-36785D01*
X52209Y-36785D02*
X52833Y-36785D01*
X49625Y-36785D02*
X50121Y-36785D01*
X56935Y-36705D02*
X59075Y-36705D01*
X53925Y-36705D02*
X53958Y-36705D01*
X52100Y-36705D02*
X52774Y-36705D01*
X49625Y-36705D02*
X50154Y-36705D01*
X56935Y-36625D02*
X59075Y-36625D01*
X50968Y-36625D02*
X52751Y-36625D01*
X49625Y-36625D02*
X50233Y-36625D01*
X56935Y-36545D02*
X59075Y-36545D01*
X50874Y-36545D02*
X52751Y-36545D01*
X49625Y-36545D02*
X50328Y-36545D01*
X56935Y-36465D02*
X59075Y-36465D01*
X49625Y-36465D02*
X52751Y-36465D01*
X56935Y-36385D02*
X59075Y-36385D01*
X49625Y-36385D02*
X52751Y-36385D01*
X56935Y-36305D02*
X59075Y-36305D01*
X49625Y-36305D02*
X52751Y-36305D01*
X56935Y-36225D02*
X59075Y-36225D01*
X49625Y-36225D02*
X52751Y-36225D01*
X56935Y-36145D02*
X59075Y-36145D01*
X49625Y-36145D02*
X52751Y-36145D01*
X56935Y-36065D02*
X59075Y-36065D01*
X49625Y-36065D02*
X52751Y-36065D01*
X56935Y-35985D02*
X59075Y-35985D01*
X49625Y-35985D02*
X52751Y-35985D01*
X56935Y-35905D02*
X59075Y-35905D01*
X49625Y-35905D02*
X52751Y-35905D01*
X56935Y-35825D02*
X59075Y-35825D01*
X49625Y-35825D02*
X52762Y-35825D01*
X56935Y-35745D02*
X59075Y-35745D01*
X49625Y-35745D02*
X52803Y-35745D01*
X56935Y-35665D02*
X59075Y-35665D01*
X49625Y-35665D02*
X52915Y-35665D01*
X56935Y-35585D02*
X59075Y-35585D01*
X49625Y-35585D02*
X52840Y-35585D01*
X56935Y-35505D02*
X59075Y-35505D01*
X49625Y-35505D02*
X52807Y-35505D01*
X56935Y-35425D02*
X59075Y-35425D01*
X49625Y-35425D02*
X52774Y-35425D01*
X56935Y-35345D02*
X59075Y-35345D01*
X49625Y-35345D02*
X52752Y-35345D01*
X56935Y-35265D02*
X59075Y-35265D01*
X49625Y-35265D02*
X52752Y-35265D01*
X56935Y-35185D02*
X59075Y-35185D01*
X49625Y-35185D02*
X52752Y-35185D01*
X56935Y-35105D02*
X59075Y-35105D01*
X49625Y-35105D02*
X52731Y-35105D01*
X56935Y-35025D02*
X59075Y-35025D01*
X49625Y-35025D02*
X52651Y-35025D01*
X56935Y-34945D02*
X59075Y-34945D01*
X49625Y-34945D02*
X52571Y-34945D01*
X56935Y-34865D02*
X59075Y-34865D01*
X49625Y-34865D02*
X52491Y-34865D01*
X56935Y-34785D02*
X59075Y-34785D01*
X49625Y-34785D02*
X52411Y-34785D01*
X56935Y-34705D02*
X59075Y-34705D01*
X49625Y-34705D02*
X52331Y-34705D01*
X56935Y-34625D02*
X59075Y-34625D01*
X49625Y-34625D02*
X52251Y-34625D01*
X56935Y-34545D02*
X59075Y-34545D01*
X49625Y-34545D02*
X52171Y-34545D01*
X56935Y-34465D02*
X59075Y-34465D01*
X50848Y-34465D02*
X52091Y-34465D01*
X49625Y-34465D02*
X50350Y-34465D01*
X56935Y-34385D02*
X59075Y-34385D01*
X52959Y-34385D02*
X53019Y-34385D01*
X50957Y-34385D02*
X52011Y-34385D01*
X49625Y-34385D02*
X50242Y-34385D01*
X56926Y-34305D02*
X59075Y-34305D01*
X52879Y-34305D02*
X53035Y-34305D01*
X49625Y-34305D02*
X50162Y-34305D01*
X56910Y-34225D02*
X59075Y-34225D01*
X52799Y-34225D02*
X53073Y-34225D01*
X49625Y-34225D02*
X50125Y-34225D01*
X56859Y-34145D02*
X59075Y-34145D01*
X52719Y-34145D02*
X53131Y-34145D01*
X49625Y-34145D02*
X50091Y-34145D01*
X56789Y-34065D02*
X59075Y-34065D01*
X52639Y-34065D02*
X53211Y-34065D01*
X49625Y-34065D02*
X50075Y-34065D01*
X56709Y-33985D02*
X59075Y-33985D01*
X52559Y-33985D02*
X53291Y-33985D01*
X49625Y-33985D02*
X50075Y-33985D01*
X56629Y-33905D02*
X59075Y-33905D01*
X52479Y-33905D02*
X53371Y-33905D01*
X49625Y-33905D02*
X50075Y-33905D01*
X56549Y-33825D02*
X59075Y-33825D01*
X52399Y-33825D02*
X53451Y-33825D01*
X49625Y-33825D02*
X50105Y-33825D01*
X56460Y-33745D02*
X59075Y-33745D01*
X52310Y-33745D02*
X53531Y-33745D01*
X49625Y-33745D02*
X50138Y-33745D01*
X56250Y-33665D02*
X59075Y-33665D01*
X52100Y-33665D02*
X53611Y-33665D01*
X49625Y-33665D02*
X50193Y-33665D01*
X55789Y-33585D02*
X59075Y-33585D01*
X50928Y-33585D02*
X53691Y-33585D01*
X49625Y-33585D02*
X50273Y-33585D01*
X55869Y-33505D02*
X59075Y-33505D01*
X50778Y-33505D02*
X53771Y-33505D01*
X49625Y-33505D02*
X50424Y-33505D01*
X55949Y-33425D02*
X59075Y-33425D01*
X49625Y-33425D02*
X53851Y-33425D01*
X56029Y-33345D02*
X59075Y-33345D01*
X49625Y-33345D02*
X53931Y-33345D01*
X56101Y-33265D02*
X59075Y-33265D01*
X49625Y-33265D02*
X54011Y-33265D01*
X56154Y-33185D02*
X59075Y-33185D01*
X49625Y-33185D02*
X54152Y-33185D01*
X56173Y-33105D02*
X59075Y-33105D01*
X54075Y-33105D02*
X55321Y-33105D01*
X53075Y-33105D02*
X53624Y-33105D01*
X49625Y-33105D02*
X52624Y-33105D01*
X56377Y-33025D02*
X59075Y-33025D01*
X54978Y-33025D02*
X55323Y-33025D01*
X54222Y-33025D02*
X54713Y-33025D01*
X53221Y-33025D02*
X53477Y-33025D01*
X49625Y-33025D02*
X52478Y-33025D01*
X56430Y-32945D02*
X59075Y-32945D01*
X55144Y-32945D02*
X55270Y-32945D01*
X54302Y-32945D02*
X54555Y-32945D01*
X53301Y-32945D02*
X53397Y-32945D01*
X49625Y-32945D02*
X52398Y-32945D01*
X56449Y-32865D02*
X59075Y-32865D01*
X55197Y-32865D02*
X55251Y-32865D01*
X55158Y-32865D02*
X55172Y-32865D01*
X54528Y-32865D02*
X54542Y-32865D01*
X54367Y-32865D02*
X54501Y-32865D01*
X49625Y-32865D02*
X52332Y-32865D01*
X56449Y-32785D02*
X59075Y-32785D01*
X55078Y-32785D02*
X55092Y-32785D01*
X54608Y-32785D02*
X54622Y-32785D01*
X54400Y-32785D02*
X54415Y-32785D01*
X49625Y-32785D02*
X52298Y-32785D01*
X56449Y-32705D02*
X59075Y-32705D01*
X54998Y-32705D02*
X55012Y-32705D01*
X54688Y-32705D02*
X54702Y-32705D01*
X49625Y-32705D02*
X52265Y-32705D01*
X58588Y-32625D02*
X59075Y-32625D01*
X56449Y-32625D02*
X58110Y-32625D01*
X54918Y-32625D02*
X54932Y-32625D01*
X54768Y-32625D02*
X54782Y-32625D01*
X50588Y-32625D02*
X52251Y-32625D01*
X49625Y-32625D02*
X50110Y-32625D01*
X58781Y-32545D02*
X59075Y-32545D01*
X56449Y-32545D02*
X57918Y-32545D01*
X54838Y-32545D02*
X54862Y-32545D01*
X50781Y-32545D02*
X52251Y-32545D01*
X49625Y-32545D02*
X49918Y-32545D01*
X58907Y-32465D02*
X59075Y-32465D01*
X56449Y-32465D02*
X57792Y-32465D01*
X54928Y-32465D02*
X54942Y-32465D01*
X54758Y-32465D02*
X54772Y-32465D01*
X50907Y-32465D02*
X52251Y-32465D01*
X49625Y-32465D02*
X49792Y-32465D01*
X58987Y-32385D02*
X59075Y-32385D01*
X56449Y-32385D02*
X57712Y-32385D01*
X55008Y-32385D02*
X55022Y-32385D01*
X54678Y-32385D02*
X54692Y-32385D01*
X50987Y-32385D02*
X52271Y-32385D01*
X49625Y-32385D02*
X49712Y-32385D01*
X59067Y-32305D02*
X59075Y-32305D01*
X56449Y-32305D02*
X57632Y-32305D01*
X55088Y-32305D02*
X55102Y-32305D01*
X54598Y-32305D02*
X54612Y-32305D01*
X54397Y-32305D02*
X54423Y-32305D01*
X51067Y-32305D02*
X52304Y-32305D01*
X49625Y-32305D02*
X49632Y-32305D01*
X56449Y-32225D02*
X57572Y-32225D01*
X55168Y-32225D02*
X55251Y-32225D01*
X54364Y-32225D02*
X54532Y-32225D01*
X51127Y-32225D02*
X52337Y-32225D01*
X56426Y-32145D02*
X57539Y-32145D01*
X55140Y-32145D02*
X55274Y-32145D01*
X54292Y-32145D02*
X54561Y-32145D01*
X53292Y-32145D02*
X53408Y-32145D01*
X51160Y-32145D02*
X52408Y-32145D01*
X56367Y-32065D02*
X57506Y-32065D01*
X54965Y-32065D02*
X55333Y-32065D01*
X54212Y-32065D02*
X54749Y-32065D01*
X53212Y-32065D02*
X53488Y-32065D01*
X51193Y-32065D02*
X52488Y-32065D01*
X54052Y-31985D02*
X57473Y-31985D01*
X53052Y-31985D02*
X53649Y-31985D01*
X51227Y-31985D02*
X52649Y-31985D01*
X51250Y-31905D02*
X57450Y-31905D01*
X51250Y-31825D02*
X57450Y-31825D01*
X51250Y-31745D02*
X57450Y-31745D01*
X51250Y-31665D02*
X57450Y-31665D01*
X51250Y-31585D02*
X57450Y-31585D01*
X51223Y-31505D02*
X57478Y-31505D01*
X51190Y-31425D02*
X57511Y-31425D01*
X51157Y-31345D02*
X57544Y-31345D01*
X51123Y-31265D02*
X57578Y-31265D01*
X51057Y-31185D02*
X57642Y-31185D01*
X50977Y-31105D02*
X57722Y-31105D01*
X50897Y-31025D02*
X57802Y-31025D01*
X57802Y-44475D02*
X57587Y-44259D01*
X57587Y-44259D02*
X57450Y-43928D01*
X57450Y-43928D02*
X57450Y-43570D01*
X57450Y-43570D02*
X57588Y-43239D01*
X57588Y-43239D02*
X57841Y-42987D01*
X57841Y-42987D02*
X57933Y-42948D01*
X57933Y-42948D02*
X57933Y-40492D01*
X57933Y-40492D02*
X57738Y-40486D01*
X57738Y-40486D02*
X57561Y-40407D01*
X57561Y-40407D02*
X57527Y-40330D01*
X57527Y-40330D02*
X57850Y-40007D01*
X57850Y-40007D02*
X57850Y-39993D01*
X57850Y-39993D02*
X57527Y-39670D01*
X57527Y-39670D02*
X57561Y-39593D01*
X57561Y-39593D02*
X57584Y-39577D01*
X57584Y-39577D02*
X57767Y-39508D01*
X57767Y-39508D02*
X57962Y-39514D01*
X57962Y-39514D02*
X58139Y-39593D01*
X58139Y-39593D02*
X58173Y-39670D01*
X58173Y-39670D02*
X57850Y-39993D01*
X57850Y-39993D02*
X57850Y-40007D01*
X57850Y-40007D02*
X58173Y-40330D01*
X58173Y-40330D02*
X58139Y-40407D01*
X58139Y-40407D02*
X58116Y-40423D01*
X58116Y-40423D02*
X57933Y-40492D01*
X57933Y-40492D02*
X57933Y-42948D01*
X57933Y-42948D02*
X58172Y-42850D01*
X58172Y-42850D02*
X58180Y-42850D01*
X58180Y-42850D02*
X58180Y-40323D01*
X58180Y-40323D02*
X57857Y-40000D01*
X57857Y-40000D02*
X58180Y-39677D01*
X58180Y-39677D02*
X58257Y-39711D01*
X58257Y-39711D02*
X58273Y-39734D01*
X58273Y-39734D02*
X58342Y-39917D01*
X58342Y-39917D02*
X58336Y-40112D01*
X58336Y-40112D02*
X58257Y-40289D01*
X58257Y-40289D02*
X58180Y-40323D01*
X58180Y-40323D02*
X58180Y-42850D01*
X58180Y-42850D02*
X58530Y-42850D01*
X58530Y-42850D02*
X58861Y-42988D01*
X58861Y-42988D02*
X59075Y-43202D01*
X59075Y-43202D02*
X59075Y-32297D01*
X59075Y-32297D02*
X58859Y-32513D01*
X58859Y-32513D02*
X58528Y-32650D01*
X58528Y-32650D02*
X58170Y-32650D01*
X58170Y-32650D02*
X57839Y-32512D01*
X57839Y-32512D02*
X57587Y-32259D01*
X57587Y-32259D02*
X57450Y-31928D01*
X57450Y-31928D02*
X57450Y-31570D01*
X57450Y-31570D02*
X57588Y-31239D01*
X57588Y-31239D02*
X57802Y-31025D01*
X57802Y-31025D02*
X50897Y-31025D01*
X50897Y-31025D02*
X51113Y-31241D01*
X51113Y-31241D02*
X51250Y-31572D01*
X51250Y-31572D02*
X51250Y-31930D01*
X51250Y-31930D02*
X51112Y-32261D01*
X51112Y-32261D02*
X50859Y-32513D01*
X50859Y-32513D02*
X50528Y-32650D01*
X50528Y-32650D02*
X50170Y-32650D01*
X50170Y-32650D02*
X49839Y-32512D01*
X49839Y-32512D02*
X49625Y-32297D01*
X49625Y-32297D02*
X49625Y-43202D01*
X49625Y-43202D02*
X49841Y-42987D01*
X49841Y-42987D02*
X50172Y-42850D01*
X50172Y-42850D02*
X50530Y-42850D01*
X50530Y-42850D02*
X50861Y-42988D01*
X50861Y-42988D02*
X51113Y-43241D01*
X51113Y-43241D02*
X51250Y-43572D01*
X51250Y-43572D02*
X51250Y-43930D01*
X51250Y-43930D02*
X51112Y-44261D01*
X51112Y-44261D02*
X50897Y-44475D01*
X50897Y-44475D02*
X56731Y-44475D01*
X56731Y-44475D02*
X56731Y-40599D01*
X56731Y-40599D02*
X56511Y-40508D01*
X56511Y-40508D02*
X56349Y-40346D01*
X56349Y-40346D02*
X56189Y-40508D01*
X56189Y-40508D02*
X55969Y-40599D01*
X55969Y-40599D02*
X55731Y-40599D01*
X55731Y-40599D02*
X55511Y-40508D01*
X55511Y-40508D02*
X55349Y-40346D01*
X55349Y-40346D02*
X55189Y-40508D01*
X55189Y-40508D02*
X54969Y-40599D01*
X54969Y-40599D02*
X54731Y-40599D01*
X54731Y-40599D02*
X54511Y-40508D01*
X54511Y-40508D02*
X54350Y-40347D01*
X54350Y-40347D02*
X54189Y-40508D01*
X54189Y-40508D02*
X53969Y-40599D01*
X53969Y-40599D02*
X53731Y-40599D01*
X53731Y-40599D02*
X53511Y-40508D01*
X53511Y-40508D02*
X53349Y-40346D01*
X53349Y-40346D02*
X53189Y-40508D01*
X53189Y-40508D02*
X52969Y-40599D01*
X52969Y-40599D02*
X52731Y-40599D01*
X52731Y-40599D02*
X52511Y-40508D01*
X52511Y-40508D02*
X52350Y-40347D01*
X52350Y-40347D02*
X52189Y-40508D01*
X52189Y-40508D02*
X51969Y-40599D01*
X51969Y-40599D02*
X51731Y-40599D01*
X51731Y-40599D02*
X51511Y-40508D01*
X51511Y-40508D02*
X51435Y-40432D01*
X51435Y-40432D02*
X51411Y-40491D01*
X51411Y-40491D02*
X51341Y-40561D01*
X51341Y-40561D02*
X51249Y-40599D01*
X51249Y-40599D02*
X50450Y-40599D01*
X50450Y-40599D02*
X50359Y-40561D01*
X50359Y-40561D02*
X50289Y-40491D01*
X50289Y-40491D02*
X50251Y-40399D01*
X50251Y-40399D02*
X50251Y-39600D01*
X50251Y-39600D02*
X50289Y-39509D01*
X50289Y-39509D02*
X50359Y-39439D01*
X50359Y-39439D02*
X50451Y-39401D01*
X50451Y-39401D02*
X51250Y-39401D01*
X51250Y-39401D02*
X51341Y-39439D01*
X51341Y-39439D02*
X51411Y-39509D01*
X51411Y-39509D02*
X51435Y-39567D01*
X51435Y-39567D02*
X51511Y-39492D01*
X51511Y-39492D02*
X51731Y-39401D01*
X51731Y-39401D02*
X51969Y-39401D01*
X51969Y-39401D02*
X52189Y-39492D01*
X52189Y-39492D02*
X52350Y-39652D01*
X52350Y-39652D02*
X52511Y-39492D01*
X52511Y-39492D02*
X52515Y-39490D01*
X52515Y-39490D02*
X52515Y-37635D01*
X52515Y-37635D02*
X52250Y-37635D01*
X52250Y-37635D02*
X52122Y-37609D01*
X52122Y-37609D02*
X52012Y-37536D01*
X52012Y-37536D02*
X51811Y-37335D01*
X51811Y-37335D02*
X51007Y-37335D01*
X51007Y-37335D02*
X50897Y-37445D01*
X50897Y-37445D02*
X50704Y-37525D01*
X50704Y-37525D02*
X50495Y-37525D01*
X50495Y-37525D02*
X50302Y-37445D01*
X50302Y-37445D02*
X50155Y-37297D01*
X50155Y-37297D02*
X50075Y-37104D01*
X50075Y-37104D02*
X50075Y-36895D01*
X50075Y-36895D02*
X50155Y-36702D01*
X50155Y-36702D02*
X50303Y-36555D01*
X50303Y-36555D02*
X50496Y-36475D01*
X50496Y-36475D02*
X50705Y-36475D01*
X50705Y-36475D02*
X50898Y-36555D01*
X50898Y-36555D02*
X51007Y-36665D01*
X51007Y-36665D02*
X51950Y-36665D01*
X51950Y-36665D02*
X52078Y-36691D01*
X52078Y-36691D02*
X52187Y-36763D01*
X52187Y-36763D02*
X52389Y-36965D01*
X52389Y-36965D02*
X54160Y-36965D01*
X54160Y-36965D02*
X54277Y-36849D01*
X54277Y-36849D02*
X54231Y-36849D01*
X54231Y-36849D02*
X54011Y-36758D01*
X54011Y-36758D02*
X53935Y-36682D01*
X53935Y-36682D02*
X53911Y-36741D01*
X53911Y-36741D02*
X53841Y-36811D01*
X53841Y-36811D02*
X53749Y-36849D01*
X53749Y-36849D02*
X52950Y-36849D01*
X52950Y-36849D02*
X52859Y-36811D01*
X52859Y-36811D02*
X52789Y-36741D01*
X52789Y-36741D02*
X52751Y-36649D01*
X52751Y-36649D02*
X52751Y-35850D01*
X52751Y-35850D02*
X52789Y-35759D01*
X52789Y-35759D02*
X52859Y-35689D01*
X52859Y-35689D02*
X52917Y-35664D01*
X52917Y-35664D02*
X52842Y-35589D01*
X52842Y-35589D02*
X52751Y-35369D01*
X52751Y-35369D02*
X52752Y-35126D01*
X52752Y-35126D02*
X51961Y-34335D01*
X51961Y-34335D02*
X51007Y-34335D01*
X51007Y-34335D02*
X50897Y-34445D01*
X50897Y-34445D02*
X50704Y-34525D01*
X50704Y-34525D02*
X50495Y-34525D01*
X50495Y-34525D02*
X50302Y-34445D01*
X50302Y-34445D02*
X50155Y-34297D01*
X50155Y-34297D02*
X50075Y-34104D01*
X50075Y-34104D02*
X50075Y-33895D01*
X50075Y-33895D02*
X50155Y-33702D01*
X50155Y-33702D02*
X50303Y-33555D01*
X50303Y-33555D02*
X50496Y-33475D01*
X50496Y-33475D02*
X50705Y-33475D01*
X50705Y-33475D02*
X50898Y-33555D01*
X50898Y-33555D02*
X51007Y-33665D01*
X51007Y-33665D02*
X52100Y-33665D01*
X52100Y-33665D02*
X52228Y-33691D01*
X52228Y-33691D02*
X52337Y-33763D01*
X52337Y-33763D02*
X53015Y-34441D01*
X53015Y-34441D02*
X53015Y-34400D01*
X53015Y-34400D02*
X53041Y-34272D01*
X53041Y-34272D02*
X53113Y-34163D01*
X53113Y-34163D02*
X53731Y-33545D01*
X53731Y-33545D02*
X53731Y-33149D01*
X53731Y-33149D02*
X53511Y-33058D01*
X53511Y-33058D02*
X53349Y-32897D01*
X53349Y-32897D02*
X53189Y-33058D01*
X53189Y-33058D02*
X52969Y-33149D01*
X52969Y-33149D02*
X52731Y-33149D01*
X52731Y-33149D02*
X52511Y-33058D01*
X52511Y-33058D02*
X52342Y-32889D01*
X52342Y-32889D02*
X52251Y-32669D01*
X52251Y-32669D02*
X52251Y-32431D01*
X52251Y-32431D02*
X52342Y-32211D01*
X52342Y-32211D02*
X52511Y-32042D01*
X52511Y-32042D02*
X52731Y-31951D01*
X52731Y-31951D02*
X52969Y-31951D01*
X52969Y-31951D02*
X53189Y-32042D01*
X53189Y-32042D02*
X53349Y-32203D01*
X53349Y-32203D02*
X53511Y-32042D01*
X53511Y-32042D02*
X53731Y-31951D01*
X53731Y-31951D02*
X53969Y-31951D01*
X53969Y-31951D02*
X54189Y-32042D01*
X54189Y-32042D02*
X54358Y-32211D01*
X54358Y-32211D02*
X54409Y-32335D01*
X54409Y-32335D02*
X54443Y-32261D01*
X54443Y-32261D02*
X54520Y-32227D01*
X54520Y-32227D02*
X54843Y-32550D01*
X54843Y-32550D02*
X54520Y-32873D01*
X54520Y-32873D02*
X54443Y-32839D01*
X54443Y-32839D02*
X54427Y-32816D01*
X54427Y-32816D02*
X54408Y-32766D01*
X54408Y-32766D02*
X54358Y-32889D01*
X54358Y-32889D02*
X54189Y-33058D01*
X54189Y-33058D02*
X53969Y-33149D01*
X53969Y-33149D02*
X53731Y-33149D01*
X53731Y-33149D02*
X53731Y-33545D01*
X53731Y-33545D02*
X54013Y-33263D01*
X54013Y-33263D02*
X54122Y-33191D01*
X54122Y-33191D02*
X54250Y-33165D01*
X54250Y-33165D02*
X54933Y-33165D01*
X54933Y-33165D02*
X54933Y-33042D01*
X54933Y-33042D02*
X54738Y-33036D01*
X54738Y-33036D02*
X54561Y-32957D01*
X54561Y-32957D02*
X54527Y-32880D01*
X54527Y-32880D02*
X54850Y-32557D01*
X54850Y-32557D02*
X54850Y-32543D01*
X54850Y-32543D02*
X54527Y-32220D01*
X54527Y-32220D02*
X54561Y-32143D01*
X54561Y-32143D02*
X54584Y-32127D01*
X54584Y-32127D02*
X54767Y-32058D01*
X54767Y-32058D02*
X54962Y-32064D01*
X54962Y-32064D02*
X55139Y-32143D01*
X55139Y-32143D02*
X55173Y-32220D01*
X55173Y-32220D02*
X54850Y-32543D01*
X54850Y-32543D02*
X54850Y-32557D01*
X54850Y-32557D02*
X55173Y-32880D01*
X55173Y-32880D02*
X55139Y-32957D01*
X55139Y-32957D02*
X55116Y-32973D01*
X55116Y-32973D02*
X54933Y-33042D01*
X54933Y-33042D02*
X54933Y-33165D01*
X54933Y-33165D02*
X55261Y-33165D01*
X55261Y-33165D02*
X55363Y-33062D01*
X55363Y-33062D02*
X55359Y-33061D01*
X55359Y-33061D02*
X55289Y-32991D01*
X55289Y-32991D02*
X55251Y-32899D01*
X55251Y-32899D02*
X55251Y-32841D01*
X55251Y-32841D02*
X55180Y-32873D01*
X55180Y-32873D02*
X54857Y-32550D01*
X54857Y-32550D02*
X55180Y-32227D01*
X55180Y-32227D02*
X55251Y-32258D01*
X55251Y-32258D02*
X55251Y-32200D01*
X55251Y-32200D02*
X55289Y-32109D01*
X55289Y-32109D02*
X55359Y-32039D01*
X55359Y-32039D02*
X55451Y-32001D01*
X55451Y-32001D02*
X56250Y-32001D01*
X56250Y-32001D02*
X56341Y-32039D01*
X56341Y-32039D02*
X56411Y-32109D01*
X56411Y-32109D02*
X56449Y-32201D01*
X56449Y-32201D02*
X56449Y-32900D01*
X56449Y-32900D02*
X56411Y-32991D01*
X56411Y-32991D02*
X56341Y-33061D01*
X56341Y-33061D02*
X56249Y-33099D01*
X56249Y-33099D02*
X56175Y-33099D01*
X56175Y-33099D02*
X56159Y-33178D01*
X56159Y-33178D02*
X56087Y-33287D01*
X56087Y-33287D02*
X55709Y-33665D01*
X55709Y-33665D02*
X56250Y-33665D01*
X56250Y-33665D02*
X56378Y-33691D01*
X56378Y-33691D02*
X56487Y-33763D01*
X56487Y-33763D02*
X56837Y-34113D01*
X56837Y-34113D02*
X56909Y-34222D01*
X56909Y-34222D02*
X56935Y-34350D01*
X56935Y-34350D02*
X56935Y-38000D01*
X56935Y-38000D02*
X56909Y-38128D01*
X56909Y-38128D02*
X56837Y-38237D01*
X56837Y-38237D02*
X56834Y-38238D01*
X56834Y-38238D02*
X56185Y-38888D01*
X56185Y-38888D02*
X56185Y-39490D01*
X56185Y-39490D02*
X56189Y-39492D01*
X56189Y-39492D02*
X56350Y-39652D01*
X56350Y-39652D02*
X56511Y-39492D01*
X56511Y-39492D02*
X56731Y-39401D01*
X56731Y-39401D02*
X56969Y-39401D01*
X56969Y-39401D02*
X57189Y-39492D01*
X57189Y-39492D02*
X57358Y-39661D01*
X57358Y-39661D02*
X57409Y-39785D01*
X57409Y-39785D02*
X57443Y-39711D01*
X57443Y-39711D02*
X57520Y-39677D01*
X57520Y-39677D02*
X57843Y-40000D01*
X57843Y-40000D02*
X57520Y-40323D01*
X57520Y-40323D02*
X57443Y-40289D01*
X57443Y-40289D02*
X57427Y-40266D01*
X57427Y-40266D02*
X57408Y-40216D01*
X57408Y-40216D02*
X57358Y-40339D01*
X57358Y-40339D02*
X57189Y-40508D01*
X57189Y-40508D02*
X56969Y-40599D01*
X56969Y-40599D02*
X56731Y-40599D01*
X56731Y-40599D02*
X56731Y-44475D01*
X56731Y-44475D02*
X57802Y-44475D01*
X55350Y-39653D02*
X55511Y-39492D01*
X55511Y-39492D02*
X55515Y-39490D01*
X55515Y-39490D02*
X55515Y-38750D01*
X55515Y-38750D02*
X55541Y-38622D01*
X55541Y-38622D02*
X55613Y-38513D01*
X55613Y-38513D02*
X56265Y-37861D01*
X56265Y-37861D02*
X56265Y-34489D01*
X56265Y-34489D02*
X56111Y-34335D01*
X56111Y-34335D02*
X55089Y-34335D01*
X55089Y-34335D02*
X54685Y-34740D01*
X54685Y-34740D02*
X54689Y-34742D01*
X54689Y-34742D02*
X54858Y-34911D01*
X54858Y-34911D02*
X54909Y-35035D01*
X54909Y-35035D02*
X54943Y-34961D01*
X54943Y-34961D02*
X55020Y-34927D01*
X55020Y-34927D02*
X55343Y-35250D01*
X55343Y-35250D02*
X55020Y-35573D01*
X55020Y-35573D02*
X54943Y-35539D01*
X54943Y-35539D02*
X54927Y-35516D01*
X54927Y-35516D02*
X54908Y-35466D01*
X54908Y-35466D02*
X54858Y-35589D01*
X54858Y-35589D02*
X54697Y-35750D01*
X54697Y-35750D02*
X54850Y-35903D01*
X54850Y-35903D02*
X55011Y-35742D01*
X55011Y-35742D02*
X55135Y-35690D01*
X55135Y-35690D02*
X55061Y-35657D01*
X55061Y-35657D02*
X55027Y-35580D01*
X55027Y-35580D02*
X55350Y-35257D01*
X55350Y-35257D02*
X55350Y-35243D01*
X55350Y-35243D02*
X55027Y-34920D01*
X55027Y-34920D02*
X55061Y-34843D01*
X55061Y-34843D02*
X55084Y-34827D01*
X55084Y-34827D02*
X55267Y-34758D01*
X55267Y-34758D02*
X55462Y-34764D01*
X55462Y-34764D02*
X55639Y-34843D01*
X55639Y-34843D02*
X55673Y-34920D01*
X55673Y-34920D02*
X55350Y-35243D01*
X55350Y-35243D02*
X55350Y-35257D01*
X55350Y-35257D02*
X55673Y-35580D01*
X55673Y-35580D02*
X55639Y-35657D01*
X55639Y-35657D02*
X55616Y-35673D01*
X55616Y-35673D02*
X55566Y-35691D01*
X55566Y-35691D02*
X55680Y-35738D01*
X55680Y-35738D02*
X55680Y-35573D01*
X55680Y-35573D02*
X55357Y-35250D01*
X55357Y-35250D02*
X55680Y-34927D01*
X55680Y-34927D02*
X55757Y-34961D01*
X55757Y-34961D02*
X55773Y-34984D01*
X55773Y-34984D02*
X55842Y-35167D01*
X55842Y-35167D02*
X55836Y-35362D01*
X55836Y-35362D02*
X55757Y-35539D01*
X55757Y-35539D02*
X55680Y-35573D01*
X55680Y-35573D02*
X55680Y-35738D01*
X55680Y-35738D02*
X55689Y-35742D01*
X55689Y-35742D02*
X55858Y-35911D01*
X55858Y-35911D02*
X55949Y-36131D01*
X55949Y-36131D02*
X55949Y-36369D01*
X55949Y-36369D02*
X55858Y-36589D01*
X55858Y-36589D02*
X55689Y-36758D01*
X55689Y-36758D02*
X55469Y-36849D01*
X55469Y-36849D02*
X55231Y-36849D01*
X55231Y-36849D02*
X55226Y-36847D01*
X55226Y-36847D02*
X54537Y-37537D01*
X54537Y-37537D02*
X54428Y-37609D01*
X54428Y-37609D02*
X54300Y-37635D01*
X54300Y-37635D02*
X53185Y-37635D01*
X53185Y-37635D02*
X53185Y-39490D01*
X53185Y-39490D02*
X53189Y-39492D01*
X53189Y-39492D02*
X53349Y-39653D01*
X53349Y-39653D02*
X53511Y-39492D01*
X53511Y-39492D02*
X53731Y-39401D01*
X53731Y-39401D02*
X53969Y-39401D01*
X53969Y-39401D02*
X54189Y-39492D01*
X54189Y-39492D02*
X54349Y-39652D01*
X54349Y-39652D02*
X54511Y-39492D01*
X54511Y-39492D02*
X54731Y-39401D01*
X54731Y-39401D02*
X54969Y-39401D01*
X54969Y-39401D02*
X55189Y-39492D01*
X55189Y-39492D02*
X55350Y-39653D01*
M02*
