M48
;DRILL file {Pcbnew (2013-jul-07)-stable} date Thu 13 Aug 2015 05:12:22 PM PDT
;FORMAT={-:-/ absolute / inch / decimal}
FMAT,2
INCH,TZ
T1C0.032
T2C0.039
T3C0.120
%
G90
G05
M72
T1
X5.06Y-3.4
X5.06Y-3.7
T2
X5.085Y-4.
X5.185Y-4.
X5.285Y-3.255
X5.285Y-4.
X5.335Y-3.525
X5.335Y-3.625
X5.385Y-3.255
X5.385Y-4.
X5.435Y-3.525
X5.435Y-3.625
X5.485Y-3.255
X5.485Y-4.
X5.535Y-3.525
X5.535Y-3.625
X5.585Y-3.255
X5.585Y-4.
X5.685Y-4.
X5.785Y-4.
T3
X5.035Y-3.175
X5.035Y-4.375
X5.835Y-3.175
X5.835Y-4.375
T0
M30
