G04 (created by PCBNEW (2013-jul-07)-stable) date Thu 13 Aug 2015 05:12:16 PM PDT*
%MOIN*%
G04 Gerber Fmt 3.4, Leading zero omitted, Abs format*
%FSLAX34Y34*%
G01*
G70*
G90*
G04 APERTURE LIST*
%ADD10C,0.00393701*%
%ADD11C,0.008*%
%ADD12C,0.015*%
%ADD13C,0.012*%
G04 APERTURE END LIST*
G54D10*
G54D11*
X52623Y-42661D02*
X52623Y-42261D01*
X52890Y-42261D02*
X52966Y-42261D01*
X53004Y-42280D01*
X53042Y-42319D01*
X53061Y-42395D01*
X53061Y-42528D01*
X53042Y-42604D01*
X53004Y-42642D01*
X52966Y-42661D01*
X52890Y-42661D01*
X52852Y-42642D01*
X52814Y-42604D01*
X52795Y-42528D01*
X52795Y-42395D01*
X52814Y-42319D01*
X52852Y-42280D01*
X52890Y-42261D01*
X53766Y-42661D02*
X53633Y-42471D01*
X53538Y-42661D02*
X53538Y-42261D01*
X53690Y-42261D01*
X53728Y-42280D01*
X53747Y-42300D01*
X53766Y-42338D01*
X53766Y-42395D01*
X53747Y-42433D01*
X53728Y-42452D01*
X53690Y-42471D01*
X53538Y-42471D01*
X53995Y-42661D02*
X53957Y-42642D01*
X53938Y-42623D01*
X53919Y-42585D01*
X53919Y-42471D01*
X53938Y-42433D01*
X53957Y-42414D01*
X53995Y-42395D01*
X54052Y-42395D01*
X54090Y-42414D01*
X54109Y-42433D01*
X54128Y-42471D01*
X54128Y-42585D01*
X54109Y-42623D01*
X54090Y-42642D01*
X54052Y-42661D01*
X53995Y-42661D01*
X54471Y-42661D02*
X54471Y-42261D01*
X54471Y-42642D02*
X54433Y-42661D01*
X54357Y-42661D01*
X54319Y-42642D01*
X54300Y-42623D01*
X54280Y-42585D01*
X54280Y-42471D01*
X54300Y-42433D01*
X54319Y-42414D01*
X54357Y-42395D01*
X54433Y-42395D01*
X54471Y-42414D01*
X54814Y-42642D02*
X54776Y-42661D01*
X54700Y-42661D01*
X54661Y-42642D01*
X54642Y-42604D01*
X54642Y-42452D01*
X54661Y-42414D01*
X54700Y-42395D01*
X54776Y-42395D01*
X54814Y-42414D01*
X54833Y-42452D01*
X54833Y-42490D01*
X54642Y-42528D01*
X55061Y-42661D02*
X55023Y-42642D01*
X55004Y-42623D01*
X54985Y-42585D01*
X54985Y-42471D01*
X55004Y-42433D01*
X55023Y-42414D01*
X55061Y-42395D01*
X55119Y-42395D01*
X55157Y-42414D01*
X55176Y-42433D01*
X55195Y-42471D01*
X55195Y-42585D01*
X55176Y-42623D01*
X55157Y-42642D01*
X55119Y-42661D01*
X55061Y-42661D01*
X55671Y-42661D02*
X55671Y-42261D01*
X55861Y-42395D02*
X55861Y-42661D01*
X55861Y-42433D02*
X55880Y-42414D01*
X55919Y-42395D01*
X55976Y-42395D01*
X56014Y-42414D01*
X56033Y-42452D01*
X56033Y-42661D01*
X56395Y-42642D02*
X56357Y-42661D01*
X56280Y-42661D01*
X56242Y-42642D01*
X56223Y-42623D01*
X56204Y-42585D01*
X56204Y-42471D01*
X56223Y-42433D01*
X56242Y-42414D01*
X56280Y-42395D01*
X56357Y-42395D01*
X56395Y-42414D01*
X52864Y-41702D02*
X52921Y-41721D01*
X52940Y-41740D01*
X52959Y-41778D01*
X52959Y-41835D01*
X52940Y-41873D01*
X52921Y-41892D01*
X52883Y-41911D01*
X52730Y-41911D01*
X52730Y-41511D01*
X52864Y-41511D01*
X52902Y-41530D01*
X52921Y-41550D01*
X52940Y-41588D01*
X52940Y-41626D01*
X52921Y-41664D01*
X52902Y-41683D01*
X52864Y-41702D01*
X52730Y-41702D01*
X53130Y-41911D02*
X53130Y-41645D01*
X53130Y-41721D02*
X53150Y-41683D01*
X53169Y-41664D01*
X53207Y-41645D01*
X53245Y-41645D01*
X53530Y-41892D02*
X53492Y-41911D01*
X53416Y-41911D01*
X53378Y-41892D01*
X53359Y-41854D01*
X53359Y-41702D01*
X53378Y-41664D01*
X53416Y-41645D01*
X53492Y-41645D01*
X53530Y-41664D01*
X53550Y-41702D01*
X53550Y-41740D01*
X53359Y-41778D01*
X53892Y-41911D02*
X53892Y-41702D01*
X53873Y-41664D01*
X53835Y-41645D01*
X53759Y-41645D01*
X53721Y-41664D01*
X53892Y-41892D02*
X53854Y-41911D01*
X53759Y-41911D01*
X53721Y-41892D01*
X53702Y-41854D01*
X53702Y-41816D01*
X53721Y-41778D01*
X53759Y-41759D01*
X53854Y-41759D01*
X53892Y-41740D01*
X54083Y-41911D02*
X54083Y-41511D01*
X54121Y-41759D02*
X54235Y-41911D01*
X54235Y-41645D02*
X54083Y-41797D01*
X54464Y-41911D02*
X54426Y-41892D01*
X54407Y-41873D01*
X54388Y-41835D01*
X54388Y-41721D01*
X54407Y-41683D01*
X54426Y-41664D01*
X54464Y-41645D01*
X54521Y-41645D01*
X54559Y-41664D01*
X54578Y-41683D01*
X54597Y-41721D01*
X54597Y-41835D01*
X54578Y-41873D01*
X54559Y-41892D01*
X54521Y-41911D01*
X54464Y-41911D01*
X54940Y-41645D02*
X54940Y-41911D01*
X54769Y-41645D02*
X54769Y-41854D01*
X54788Y-41892D01*
X54826Y-41911D01*
X54883Y-41911D01*
X54921Y-41892D01*
X54940Y-41873D01*
X55073Y-41645D02*
X55226Y-41645D01*
X55130Y-41511D02*
X55130Y-41854D01*
X55150Y-41892D01*
X55188Y-41911D01*
X55226Y-41911D01*
X55607Y-41511D02*
X55740Y-41911D01*
X55873Y-41511D01*
X56216Y-41911D02*
X55988Y-41911D01*
X56102Y-41911D02*
X56102Y-41511D01*
X56064Y-41569D01*
X56026Y-41607D01*
X55988Y-41626D01*
X56388Y-41873D02*
X56407Y-41892D01*
X56388Y-41911D01*
X56369Y-41892D01*
X56388Y-41873D01*
X56388Y-41911D01*
X56788Y-41911D02*
X56559Y-41911D01*
X56673Y-41911D02*
X56673Y-41511D01*
X56635Y-41569D01*
X56597Y-41607D01*
X56559Y-41626D01*
X52457Y-41161D02*
X52457Y-40761D01*
X52609Y-40761D01*
X52647Y-40780D01*
X52666Y-40800D01*
X52685Y-40838D01*
X52685Y-40895D01*
X52666Y-40933D01*
X52647Y-40952D01*
X52609Y-40971D01*
X52457Y-40971D01*
X53028Y-41161D02*
X53028Y-40952D01*
X53009Y-40914D01*
X52971Y-40895D01*
X52895Y-40895D01*
X52857Y-40914D01*
X53028Y-41142D02*
X52990Y-41161D01*
X52895Y-41161D01*
X52857Y-41142D01*
X52838Y-41104D01*
X52838Y-41066D01*
X52857Y-41028D01*
X52895Y-41009D01*
X52990Y-41009D01*
X53028Y-40990D01*
X53219Y-40895D02*
X53219Y-41161D01*
X53219Y-40933D02*
X53238Y-40914D01*
X53276Y-40895D01*
X53333Y-40895D01*
X53371Y-40914D01*
X53390Y-40952D01*
X53390Y-41161D01*
X53733Y-41142D02*
X53695Y-41161D01*
X53619Y-41161D01*
X53580Y-41142D01*
X53561Y-41104D01*
X53561Y-40952D01*
X53580Y-40914D01*
X53619Y-40895D01*
X53695Y-40895D01*
X53733Y-40914D01*
X53752Y-40952D01*
X53752Y-40990D01*
X53561Y-41028D01*
X53980Y-41161D02*
X53942Y-41142D01*
X53923Y-41104D01*
X53923Y-40761D01*
X54114Y-41142D02*
X54152Y-41161D01*
X54228Y-41161D01*
X54266Y-41142D01*
X54285Y-41104D01*
X54285Y-41085D01*
X54266Y-41047D01*
X54228Y-41028D01*
X54171Y-41028D01*
X54133Y-41009D01*
X54114Y-40971D01*
X54114Y-40952D01*
X54133Y-40914D01*
X54171Y-40895D01*
X54228Y-40895D01*
X54266Y-40914D01*
X54761Y-41161D02*
X54761Y-40761D01*
X54933Y-41142D02*
X54990Y-41161D01*
X55085Y-41161D01*
X55123Y-41142D01*
X55142Y-41123D01*
X55161Y-41085D01*
X55161Y-41047D01*
X55142Y-41009D01*
X55123Y-40990D01*
X55085Y-40971D01*
X55009Y-40952D01*
X54971Y-40933D01*
X54952Y-40914D01*
X54933Y-40876D01*
X54933Y-40838D01*
X54952Y-40800D01*
X54971Y-40780D01*
X55009Y-40761D01*
X55104Y-40761D01*
X55161Y-40780D01*
X55333Y-41161D02*
X55333Y-40761D01*
X55485Y-40761D01*
X55523Y-40780D01*
X55542Y-40800D01*
X55561Y-40838D01*
X55561Y-40895D01*
X55542Y-40933D01*
X55523Y-40952D01*
X55485Y-40971D01*
X55333Y-40971D01*
G54D12*
X56450Y-31550D02*
X52250Y-31550D01*
X56350Y-34350D02*
X55350Y-34350D01*
X55350Y-34350D02*
X55850Y-33750D01*
X55850Y-33750D02*
X56350Y-34350D01*
X52250Y-31550D02*
X52250Y-33550D01*
X52250Y-33550D02*
X56450Y-33550D01*
X56450Y-33550D02*
X56450Y-31550D01*
G54D13*
X51742Y-33142D02*
X51742Y-32542D01*
X51514Y-32542D01*
X51457Y-32571D01*
X51428Y-32600D01*
X51400Y-32657D01*
X51400Y-32742D01*
X51428Y-32800D01*
X51457Y-32828D01*
X51514Y-32857D01*
X51742Y-32857D01*
X51171Y-32600D02*
X51142Y-32571D01*
X51085Y-32542D01*
X50942Y-32542D01*
X50885Y-32571D01*
X50857Y-32600D01*
X50828Y-32657D01*
X50828Y-32714D01*
X50857Y-32800D01*
X51200Y-33142D01*
X50828Y-33142D01*
M02*
