M48
;DRILL file {PCBnew (20090216-final)} date Thu 03 Feb 2011 01:20:30 PM PST
;FORMAT={2:4/ absolute / inch / suppress trailing zeros}
R,T
VER,1
FMAT,2
INCH,LZ
TCST,OFF
ICI,OFF
ATC,ON
T1C0.032
T2C0.039
T3C0.120
%
M47
G05
M72
T1
X0506Y-034
X0506Y-037
T2
X05085Y-04
X05185Y-04
X05285Y-03255
X05285Y-04
X05335Y-03525
X05335Y-03625
X05385Y-03255
X05385Y-04
X05435Y-03525
X05435Y-03625
X05485Y-03255
X05485Y-04
X05535Y-03525
X05535Y-03625
X05585Y-03255
X05585Y-04
X05685Y-04
X05785Y-04
T3
X05035Y-03175
X05035Y-04375
X05835Y-03175
X05835Y-04375
T0
M30
