G04 (created by PCBNEW (2013-jul-07)-stable) date Thu 13 Aug 2015 05:12:16 PM PDT*
%MOIN*%
G04 Gerber Fmt 3.4, Leading zero omitted, Abs format*
%FSLAX34Y34*%
G01*
G70*
G90*
G04 APERTURE LIST*
%ADD10C,0.00393701*%
%ADD11R,0.07X0.07*%
%ADD12C,0.07*%
%ADD13R,0.07X0.06*%
%ADD14C,0.055*%
%ADD15C,0.13*%
%ADD16C,0.017*%
%ADD17C,0.01*%
G04 APERTURE END LIST*
G54D10*
G54D11*
X53350Y-36250D03*
G54D12*
X53350Y-35250D03*
X54350Y-36250D03*
X54350Y-35250D03*
X55350Y-36250D03*
X55350Y-35250D03*
G54D13*
X55850Y-32550D03*
G54D12*
X54850Y-32550D03*
X53850Y-32550D03*
X52850Y-32550D03*
G54D11*
X50850Y-40000D03*
G54D12*
X51850Y-40000D03*
X52850Y-40000D03*
X53850Y-40000D03*
X54850Y-40000D03*
X55850Y-40000D03*
X56850Y-40000D03*
X57850Y-40000D03*
G54D14*
X50600Y-34000D03*
X50600Y-37000D03*
G54D15*
X58350Y-31750D03*
X50350Y-31750D03*
X58350Y-43750D03*
X50350Y-43750D03*
G54D16*
X55850Y-32550D02*
X56250Y-32550D01*
X56850Y-33150D02*
X56850Y-40000D01*
X56250Y-32550D02*
X56850Y-33150D01*
X53850Y-32550D02*
X53850Y-31900D01*
X50850Y-39350D02*
X50850Y-40000D01*
X51350Y-38850D02*
X50850Y-39350D01*
X51350Y-32450D02*
X51350Y-38850D01*
X52300Y-31500D02*
X51350Y-32450D01*
X53450Y-31500D02*
X52300Y-31500D01*
X53850Y-31900D02*
X53450Y-31500D01*
X52850Y-32550D02*
X52450Y-32550D01*
X51850Y-33150D02*
X51850Y-40000D01*
X52450Y-32550D02*
X51850Y-33150D01*
X54850Y-32550D02*
X54850Y-32100D01*
X57850Y-37550D02*
X57850Y-40000D01*
X57450Y-37150D02*
X57850Y-37550D01*
X57450Y-32400D02*
X57450Y-37150D01*
X56500Y-31450D02*
X57450Y-32400D01*
X55500Y-31450D02*
X56500Y-31450D01*
X54850Y-32100D02*
X55500Y-31450D01*
X54850Y-32550D02*
X54850Y-33750D01*
X55350Y-34250D02*
X55350Y-35250D01*
X54850Y-33750D02*
X55350Y-34250D01*
X54350Y-36250D02*
X54350Y-38850D01*
X54850Y-39350D02*
X54850Y-40000D01*
X54350Y-38850D02*
X54850Y-39350D01*
X53350Y-36250D02*
X53350Y-37700D01*
X53850Y-38200D02*
X53850Y-40000D01*
X53350Y-37700D02*
X53850Y-38200D01*
G54D17*
X50907Y-44465D02*
X57792Y-44465D01*
X50987Y-44385D02*
X57712Y-44385D01*
X51067Y-44305D02*
X57632Y-44305D01*
X51127Y-44225D02*
X57572Y-44225D01*
X51160Y-44145D02*
X57539Y-44145D01*
X51193Y-44065D02*
X57506Y-44065D01*
X51227Y-43985D02*
X57473Y-43985D01*
X51250Y-43905D02*
X57450Y-43905D01*
X51250Y-43825D02*
X57450Y-43825D01*
X51250Y-43745D02*
X57450Y-43745D01*
X51250Y-43665D02*
X57450Y-43665D01*
X51250Y-43585D02*
X57450Y-43585D01*
X51223Y-43505D02*
X57478Y-43505D01*
X51190Y-43425D02*
X57511Y-43425D01*
X51157Y-43345D02*
X57544Y-43345D01*
X51123Y-43265D02*
X57578Y-43265D01*
X59058Y-43185D02*
X59075Y-43185D01*
X51058Y-43185D02*
X57643Y-43185D01*
X49625Y-43185D02*
X49643Y-43185D01*
X58978Y-43105D02*
X59075Y-43105D01*
X50978Y-43105D02*
X57723Y-43105D01*
X49625Y-43105D02*
X49723Y-43105D01*
X58898Y-43025D02*
X59075Y-43025D01*
X50898Y-43025D02*
X57803Y-43025D01*
X49625Y-43025D02*
X49803Y-43025D01*
X58758Y-42945D02*
X59075Y-42945D01*
X50758Y-42945D02*
X57941Y-42945D01*
X49625Y-42945D02*
X49943Y-42945D01*
X58566Y-42865D02*
X59075Y-42865D01*
X50566Y-42865D02*
X58136Y-42865D01*
X49625Y-42865D02*
X50136Y-42865D01*
X49625Y-42785D02*
X59075Y-42785D01*
X49625Y-42705D02*
X59075Y-42705D01*
X49625Y-42625D02*
X59075Y-42625D01*
X49625Y-42545D02*
X59075Y-42545D01*
X49625Y-42465D02*
X59075Y-42465D01*
X49625Y-42385D02*
X59075Y-42385D01*
X49625Y-42305D02*
X59075Y-42305D01*
X49625Y-42225D02*
X59075Y-42225D01*
X49625Y-42145D02*
X59075Y-42145D01*
X49625Y-42065D02*
X59075Y-42065D01*
X49625Y-41985D02*
X59075Y-41985D01*
X49625Y-41905D02*
X59075Y-41905D01*
X49625Y-41825D02*
X59075Y-41825D01*
X49625Y-41745D02*
X59075Y-41745D01*
X49625Y-41665D02*
X59075Y-41665D01*
X49625Y-41585D02*
X59075Y-41585D01*
X49625Y-41505D02*
X59075Y-41505D01*
X49625Y-41425D02*
X59075Y-41425D01*
X49625Y-41345D02*
X59075Y-41345D01*
X49625Y-41265D02*
X59075Y-41265D01*
X49625Y-41185D02*
X59075Y-41185D01*
X49625Y-41105D02*
X59075Y-41105D01*
X49625Y-41025D02*
X59075Y-41025D01*
X49625Y-40945D02*
X59075Y-40945D01*
X49625Y-40865D02*
X59075Y-40865D01*
X49625Y-40785D02*
X59075Y-40785D01*
X49625Y-40705D02*
X59075Y-40705D01*
X49625Y-40625D02*
X59075Y-40625D01*
X57099Y-40545D02*
X59075Y-40545D01*
X56099Y-40545D02*
X56600Y-40545D01*
X55099Y-40545D02*
X55600Y-40545D01*
X54099Y-40545D02*
X54600Y-40545D01*
X53099Y-40545D02*
X53600Y-40545D01*
X52099Y-40545D02*
X52600Y-40545D01*
X51357Y-40545D02*
X51600Y-40545D01*
X49625Y-40545D02*
X50343Y-40545D01*
X58004Y-40465D02*
X59075Y-40465D01*
X57232Y-40465D02*
X57690Y-40465D01*
X56231Y-40465D02*
X56468Y-40465D01*
X55231Y-40465D02*
X55468Y-40465D01*
X54232Y-40465D02*
X54468Y-40465D01*
X53231Y-40465D02*
X53468Y-40465D01*
X52232Y-40465D02*
X52468Y-40465D01*
X51421Y-40465D02*
X51468Y-40465D01*
X49625Y-40465D02*
X50278Y-40465D01*
X58148Y-40385D02*
X59075Y-40385D01*
X57312Y-40385D02*
X57551Y-40385D01*
X56310Y-40385D02*
X56388Y-40385D01*
X55310Y-40385D02*
X55388Y-40385D01*
X54312Y-40385D02*
X54388Y-40385D01*
X53310Y-40385D02*
X53388Y-40385D01*
X52312Y-40385D02*
X52388Y-40385D01*
X49625Y-40385D02*
X50251Y-40385D01*
X58220Y-40305D02*
X59075Y-40305D01*
X58148Y-40305D02*
X58162Y-40305D01*
X57538Y-40305D02*
X57552Y-40305D01*
X57371Y-40305D02*
X57479Y-40305D01*
X49625Y-40305D02*
X50251Y-40305D01*
X58285Y-40225D02*
X59075Y-40225D01*
X58068Y-40225D02*
X58082Y-40225D01*
X57618Y-40225D02*
X57632Y-40225D01*
X57404Y-40225D02*
X57411Y-40225D01*
X49625Y-40225D02*
X50251Y-40225D01*
X58321Y-40145D02*
X59075Y-40145D01*
X57988Y-40145D02*
X58002Y-40145D01*
X57698Y-40145D02*
X57712Y-40145D01*
X49625Y-40145D02*
X50251Y-40145D01*
X58337Y-40065D02*
X59075Y-40065D01*
X57908Y-40065D02*
X57922Y-40065D01*
X57778Y-40065D02*
X57792Y-40065D01*
X49625Y-40065D02*
X50251Y-40065D01*
X58339Y-39985D02*
X59075Y-39985D01*
X57858Y-39985D02*
X57872Y-39985D01*
X57828Y-39985D02*
X57842Y-39985D01*
X49625Y-39985D02*
X50251Y-39985D01*
X58338Y-39905D02*
X59075Y-39905D01*
X57938Y-39905D02*
X57952Y-39905D01*
X57748Y-39905D02*
X57762Y-39905D01*
X49625Y-39905D02*
X50251Y-39905D01*
X58308Y-39825D02*
X59075Y-39825D01*
X58018Y-39825D02*
X58032Y-39825D01*
X57668Y-39825D02*
X57682Y-39825D01*
X49625Y-39825D02*
X50251Y-39825D01*
X58278Y-39745D02*
X59075Y-39745D01*
X58098Y-39745D02*
X58112Y-39745D01*
X57588Y-39745D02*
X57602Y-39745D01*
X57393Y-39745D02*
X57428Y-39745D01*
X49625Y-39745D02*
X50251Y-39745D01*
X58171Y-39665D02*
X59075Y-39665D01*
X57360Y-39665D02*
X57530Y-39665D01*
X49625Y-39665D02*
X50251Y-39665D01*
X58122Y-39585D02*
X59075Y-39585D01*
X57282Y-39585D02*
X57573Y-39585D01*
X56283Y-39585D02*
X56418Y-39585D01*
X55282Y-39585D02*
X55418Y-39585D01*
X53282Y-39585D02*
X53418Y-39585D01*
X52283Y-39585D02*
X52418Y-39585D01*
X49625Y-39585D02*
X50258Y-39585D01*
X57202Y-39505D02*
X59075Y-39505D01*
X56203Y-39505D02*
X56498Y-39505D01*
X55202Y-39505D02*
X55498Y-39505D01*
X53202Y-39505D02*
X53498Y-39505D01*
X52203Y-39505D02*
X52498Y-39505D01*
X49625Y-39505D02*
X50293Y-39505D01*
X57185Y-39425D02*
X59075Y-39425D01*
X56028Y-39425D02*
X56515Y-39425D01*
X55185Y-39425D02*
X55673Y-39425D01*
X53028Y-39425D02*
X53515Y-39425D01*
X52185Y-39425D02*
X52673Y-39425D01*
X49625Y-39425D02*
X50393Y-39425D01*
X57185Y-39345D02*
X59075Y-39345D01*
X55184Y-39345D02*
X56515Y-39345D01*
X52185Y-39345D02*
X53515Y-39345D01*
X49625Y-39345D02*
X50517Y-39345D01*
X57185Y-39265D02*
X59075Y-39265D01*
X55168Y-39265D02*
X56515Y-39265D01*
X52185Y-39265D02*
X53515Y-39265D01*
X49625Y-39265D02*
X50533Y-39265D01*
X57185Y-39185D02*
X59075Y-39185D01*
X55135Y-39185D02*
X56515Y-39185D01*
X52185Y-39185D02*
X53515Y-39185D01*
X49625Y-39185D02*
X50566Y-39185D01*
X57185Y-39105D02*
X59075Y-39105D01*
X55079Y-39105D02*
X56515Y-39105D01*
X52185Y-39105D02*
X53515Y-39105D01*
X49625Y-39105D02*
X50621Y-39105D01*
X57185Y-39025D02*
X59075Y-39025D01*
X54999Y-39025D02*
X56515Y-39025D01*
X52185Y-39025D02*
X53515Y-39025D01*
X49625Y-39025D02*
X50701Y-39025D01*
X57185Y-38945D02*
X59075Y-38945D01*
X54919Y-38945D02*
X56515Y-38945D01*
X52185Y-38945D02*
X53515Y-38945D01*
X49625Y-38945D02*
X50781Y-38945D01*
X57185Y-38865D02*
X59075Y-38865D01*
X54839Y-38865D02*
X56515Y-38865D01*
X52185Y-38865D02*
X53515Y-38865D01*
X49625Y-38865D02*
X50861Y-38865D01*
X57185Y-38785D02*
X59075Y-38785D01*
X54759Y-38785D02*
X56515Y-38785D01*
X52185Y-38785D02*
X53515Y-38785D01*
X49625Y-38785D02*
X50941Y-38785D01*
X57185Y-38705D02*
X59075Y-38705D01*
X54685Y-38705D02*
X56515Y-38705D01*
X52185Y-38705D02*
X53515Y-38705D01*
X49625Y-38705D02*
X51015Y-38705D01*
X57185Y-38625D02*
X59075Y-38625D01*
X54685Y-38625D02*
X56515Y-38625D01*
X52185Y-38625D02*
X53515Y-38625D01*
X49625Y-38625D02*
X51015Y-38625D01*
X57185Y-38545D02*
X59075Y-38545D01*
X54685Y-38545D02*
X56515Y-38545D01*
X52185Y-38545D02*
X53515Y-38545D01*
X49625Y-38545D02*
X51015Y-38545D01*
X57185Y-38465D02*
X59075Y-38465D01*
X54685Y-38465D02*
X56515Y-38465D01*
X52185Y-38465D02*
X53515Y-38465D01*
X49625Y-38465D02*
X51015Y-38465D01*
X57185Y-38385D02*
X59075Y-38385D01*
X54685Y-38385D02*
X56515Y-38385D01*
X52185Y-38385D02*
X53515Y-38385D01*
X49625Y-38385D02*
X51015Y-38385D01*
X57185Y-38305D02*
X59075Y-38305D01*
X54685Y-38305D02*
X56515Y-38305D01*
X52185Y-38305D02*
X53481Y-38305D01*
X49625Y-38305D02*
X51015Y-38305D01*
X57185Y-38225D02*
X59075Y-38225D01*
X54685Y-38225D02*
X56515Y-38225D01*
X52185Y-38225D02*
X53401Y-38225D01*
X49625Y-38225D02*
X51015Y-38225D01*
X57185Y-38145D02*
X59075Y-38145D01*
X54685Y-38145D02*
X56515Y-38145D01*
X52185Y-38145D02*
X53321Y-38145D01*
X49625Y-38145D02*
X51015Y-38145D01*
X57185Y-38065D02*
X59075Y-38065D01*
X54685Y-38065D02*
X56515Y-38065D01*
X52185Y-38065D02*
X53241Y-38065D01*
X49625Y-38065D02*
X51015Y-38065D01*
X57185Y-37985D02*
X59075Y-37985D01*
X54685Y-37985D02*
X56515Y-37985D01*
X52185Y-37985D02*
X53161Y-37985D01*
X49625Y-37985D02*
X51015Y-37985D01*
X57185Y-37905D02*
X59075Y-37905D01*
X54685Y-37905D02*
X56515Y-37905D01*
X52185Y-37905D02*
X53091Y-37905D01*
X49625Y-37905D02*
X51015Y-37905D01*
X57185Y-37825D02*
X59075Y-37825D01*
X54685Y-37825D02*
X56515Y-37825D01*
X52185Y-37825D02*
X53040Y-37825D01*
X49625Y-37825D02*
X51015Y-37825D01*
X57185Y-37745D02*
X59075Y-37745D01*
X54685Y-37745D02*
X56515Y-37745D01*
X52185Y-37745D02*
X53024Y-37745D01*
X49625Y-37745D02*
X51015Y-37745D01*
X57185Y-37665D02*
X59075Y-37665D01*
X54685Y-37665D02*
X56515Y-37665D01*
X52185Y-37665D02*
X53015Y-37665D01*
X49625Y-37665D02*
X51015Y-37665D01*
X57185Y-37585D02*
X59075Y-37585D01*
X54685Y-37585D02*
X56515Y-37585D01*
X52185Y-37585D02*
X53015Y-37585D01*
X49625Y-37585D02*
X51015Y-37585D01*
X57185Y-37505D02*
X59075Y-37505D01*
X54685Y-37505D02*
X56515Y-37505D01*
X52185Y-37505D02*
X53015Y-37505D01*
X50752Y-37505D02*
X51015Y-37505D01*
X49625Y-37505D02*
X50446Y-37505D01*
X57185Y-37425D02*
X59075Y-37425D01*
X54685Y-37425D02*
X56515Y-37425D01*
X52185Y-37425D02*
X53015Y-37425D01*
X50917Y-37425D02*
X51015Y-37425D01*
X49625Y-37425D02*
X50282Y-37425D01*
X57185Y-37345D02*
X59075Y-37345D01*
X54685Y-37345D02*
X56515Y-37345D01*
X52185Y-37345D02*
X53015Y-37345D01*
X50997Y-37345D02*
X51015Y-37345D01*
X49625Y-37345D02*
X50202Y-37345D01*
X57185Y-37265D02*
X59075Y-37265D01*
X54685Y-37265D02*
X56515Y-37265D01*
X52185Y-37265D02*
X53015Y-37265D01*
X49625Y-37265D02*
X50141Y-37265D01*
X57185Y-37185D02*
X59075Y-37185D01*
X54685Y-37185D02*
X56515Y-37185D01*
X52185Y-37185D02*
X53015Y-37185D01*
X49625Y-37185D02*
X50108Y-37185D01*
X57185Y-37105D02*
X59075Y-37105D01*
X54685Y-37105D02*
X56515Y-37105D01*
X52185Y-37105D02*
X53015Y-37105D01*
X49625Y-37105D02*
X50075Y-37105D01*
X57185Y-37025D02*
X59075Y-37025D01*
X54685Y-37025D02*
X56515Y-37025D01*
X52185Y-37025D02*
X53015Y-37025D01*
X49625Y-37025D02*
X50075Y-37025D01*
X57185Y-36945D02*
X59075Y-36945D01*
X54685Y-36945D02*
X56515Y-36945D01*
X52185Y-36945D02*
X53015Y-36945D01*
X49625Y-36945D02*
X50075Y-36945D01*
X57185Y-36865D02*
X59075Y-36865D01*
X54685Y-36865D02*
X56515Y-36865D01*
X52185Y-36865D02*
X53015Y-36865D01*
X49625Y-36865D02*
X50088Y-36865D01*
X57185Y-36785D02*
X59075Y-36785D01*
X55623Y-36785D02*
X56515Y-36785D01*
X54685Y-36785D02*
X55076Y-36785D01*
X52185Y-36785D02*
X52833Y-36785D01*
X49625Y-36785D02*
X50121Y-36785D01*
X57185Y-36705D02*
X59075Y-36705D01*
X55742Y-36705D02*
X56515Y-36705D01*
X54741Y-36705D02*
X54957Y-36705D01*
X52185Y-36705D02*
X52774Y-36705D01*
X49625Y-36705D02*
X50154Y-36705D01*
X57185Y-36625D02*
X59075Y-36625D01*
X55822Y-36625D02*
X56515Y-36625D01*
X54821Y-36625D02*
X54877Y-36625D01*
X52185Y-36625D02*
X52751Y-36625D01*
X50968Y-36625D02*
X51015Y-36625D01*
X49625Y-36625D02*
X50233Y-36625D01*
X57185Y-36545D02*
X59075Y-36545D01*
X55876Y-36545D02*
X56515Y-36545D01*
X52185Y-36545D02*
X52751Y-36545D01*
X50874Y-36545D02*
X51015Y-36545D01*
X49625Y-36545D02*
X50328Y-36545D01*
X57185Y-36465D02*
X59075Y-36465D01*
X55909Y-36465D02*
X56515Y-36465D01*
X52185Y-36465D02*
X52751Y-36465D01*
X49625Y-36465D02*
X51015Y-36465D01*
X57185Y-36385D02*
X59075Y-36385D01*
X55942Y-36385D02*
X56515Y-36385D01*
X52185Y-36385D02*
X52751Y-36385D01*
X49625Y-36385D02*
X51015Y-36385D01*
X57185Y-36305D02*
X59075Y-36305D01*
X55949Y-36305D02*
X56515Y-36305D01*
X52185Y-36305D02*
X52751Y-36305D01*
X49625Y-36305D02*
X51015Y-36305D01*
X57185Y-36225D02*
X59075Y-36225D01*
X55949Y-36225D02*
X56515Y-36225D01*
X52185Y-36225D02*
X52751Y-36225D01*
X49625Y-36225D02*
X51015Y-36225D01*
X57185Y-36145D02*
X59075Y-36145D01*
X55949Y-36145D02*
X56515Y-36145D01*
X52185Y-36145D02*
X52751Y-36145D01*
X49625Y-36145D02*
X51015Y-36145D01*
X57185Y-36065D02*
X59075Y-36065D01*
X55922Y-36065D02*
X56515Y-36065D01*
X52185Y-36065D02*
X52751Y-36065D01*
X49625Y-36065D02*
X51015Y-36065D01*
X57185Y-35985D02*
X59075Y-35985D01*
X55889Y-35985D02*
X56515Y-35985D01*
X52185Y-35985D02*
X52751Y-35985D01*
X49625Y-35985D02*
X51015Y-35985D01*
X57185Y-35905D02*
X59075Y-35905D01*
X55852Y-35905D02*
X56515Y-35905D01*
X52185Y-35905D02*
X52751Y-35905D01*
X49625Y-35905D02*
X51015Y-35905D01*
X57185Y-35825D02*
X59075Y-35825D01*
X55772Y-35825D02*
X56515Y-35825D01*
X54772Y-35825D02*
X54928Y-35825D01*
X52185Y-35825D02*
X52762Y-35825D01*
X49625Y-35825D02*
X51015Y-35825D01*
X57185Y-35745D02*
X59075Y-35745D01*
X55692Y-35745D02*
X56515Y-35745D01*
X54702Y-35745D02*
X55008Y-35745D01*
X52185Y-35745D02*
X52803Y-35745D01*
X49625Y-35745D02*
X51015Y-35745D01*
X57185Y-35665D02*
X59075Y-35665D01*
X55627Y-35665D02*
X56515Y-35665D01*
X54782Y-35665D02*
X55078Y-35665D01*
X52185Y-35665D02*
X52915Y-35665D01*
X49625Y-35665D02*
X51015Y-35665D01*
X57185Y-35585D02*
X59075Y-35585D01*
X55670Y-35585D02*
X56515Y-35585D01*
X54859Y-35585D02*
X55029Y-35585D01*
X52185Y-35585D02*
X52840Y-35585D01*
X49625Y-35585D02*
X51015Y-35585D01*
X57185Y-35505D02*
X59075Y-35505D01*
X55772Y-35505D02*
X56515Y-35505D01*
X55598Y-35505D02*
X55612Y-35505D01*
X55088Y-35505D02*
X55102Y-35505D01*
X54892Y-35505D02*
X54922Y-35505D01*
X52185Y-35505D02*
X52807Y-35505D01*
X49625Y-35505D02*
X51015Y-35505D01*
X57185Y-35425D02*
X59075Y-35425D01*
X55807Y-35425D02*
X56515Y-35425D01*
X55518Y-35425D02*
X55532Y-35425D01*
X55168Y-35425D02*
X55182Y-35425D01*
X52185Y-35425D02*
X52774Y-35425D01*
X49625Y-35425D02*
X51015Y-35425D01*
X57185Y-35345D02*
X59075Y-35345D01*
X55836Y-35345D02*
X56515Y-35345D01*
X55438Y-35345D02*
X55452Y-35345D01*
X55248Y-35345D02*
X55262Y-35345D01*
X52185Y-35345D02*
X52751Y-35345D01*
X49625Y-35345D02*
X51015Y-35345D01*
X57185Y-35265D02*
X59075Y-35265D01*
X55838Y-35265D02*
X56515Y-35265D01*
X55358Y-35265D02*
X55372Y-35265D01*
X55328Y-35265D02*
X55342Y-35265D01*
X52185Y-35265D02*
X52751Y-35265D01*
X49625Y-35265D02*
X51015Y-35265D01*
X57185Y-35185D02*
X59075Y-35185D01*
X55841Y-35185D02*
X56515Y-35185D01*
X55408Y-35185D02*
X55422Y-35185D01*
X55278Y-35185D02*
X55292Y-35185D01*
X52185Y-35185D02*
X52751Y-35185D01*
X49625Y-35185D02*
X51015Y-35185D01*
X57185Y-35105D02*
X59075Y-35105D01*
X55819Y-35105D02*
X56515Y-35105D01*
X55488Y-35105D02*
X55502Y-35105D01*
X55198Y-35105D02*
X55212Y-35105D01*
X52185Y-35105D02*
X52762Y-35105D01*
X49625Y-35105D02*
X51015Y-35105D01*
X57185Y-35025D02*
X59075Y-35025D01*
X55789Y-35025D02*
X56515Y-35025D01*
X55568Y-35025D02*
X55582Y-35025D01*
X55118Y-35025D02*
X55132Y-35025D01*
X54905Y-35025D02*
X54914Y-35025D01*
X52185Y-35025D02*
X52795Y-35025D01*
X49625Y-35025D02*
X51015Y-35025D01*
X57185Y-34945D02*
X59075Y-34945D01*
X55721Y-34945D02*
X56515Y-34945D01*
X55648Y-34945D02*
X55662Y-34945D01*
X55038Y-34945D02*
X55052Y-34945D01*
X54872Y-34945D02*
X54980Y-34945D01*
X52185Y-34945D02*
X52828Y-34945D01*
X49625Y-34945D02*
X51015Y-34945D01*
X57185Y-34865D02*
X59075Y-34865D01*
X55649Y-34865D02*
X56515Y-34865D01*
X54812Y-34865D02*
X55052Y-34865D01*
X53813Y-34865D02*
X53888Y-34865D01*
X52185Y-34865D02*
X52888Y-34865D01*
X49625Y-34865D02*
X51015Y-34865D01*
X57185Y-34785D02*
X59075Y-34785D01*
X55510Y-34785D02*
X56515Y-34785D01*
X54732Y-34785D02*
X55196Y-34785D01*
X53733Y-34785D02*
X53968Y-34785D01*
X52185Y-34785D02*
X52968Y-34785D01*
X49625Y-34785D02*
X51015Y-34785D01*
X57185Y-34705D02*
X59075Y-34705D01*
X54600Y-34705D02*
X56515Y-34705D01*
X53600Y-34705D02*
X54101Y-34705D01*
X52185Y-34705D02*
X53101Y-34705D01*
X49625Y-34705D02*
X51015Y-34705D01*
X57185Y-34625D02*
X59075Y-34625D01*
X52185Y-34625D02*
X56515Y-34625D01*
X49625Y-34625D02*
X51015Y-34625D01*
X57185Y-34545D02*
X59075Y-34545D01*
X52185Y-34545D02*
X56515Y-34545D01*
X49625Y-34545D02*
X51015Y-34545D01*
X57185Y-34465D02*
X59075Y-34465D01*
X52185Y-34465D02*
X56515Y-34465D01*
X50848Y-34465D02*
X51015Y-34465D01*
X49625Y-34465D02*
X50350Y-34465D01*
X57185Y-34385D02*
X59075Y-34385D01*
X52185Y-34385D02*
X56515Y-34385D01*
X50957Y-34385D02*
X51015Y-34385D01*
X49625Y-34385D02*
X50242Y-34385D01*
X57185Y-34305D02*
X59075Y-34305D01*
X52185Y-34305D02*
X56515Y-34305D01*
X49625Y-34305D02*
X50162Y-34305D01*
X57185Y-34225D02*
X59075Y-34225D01*
X52185Y-34225D02*
X56515Y-34225D01*
X49625Y-34225D02*
X50125Y-34225D01*
X57185Y-34145D02*
X59075Y-34145D01*
X52185Y-34145D02*
X56515Y-34145D01*
X49625Y-34145D02*
X50091Y-34145D01*
X57185Y-34065D02*
X59075Y-34065D01*
X52185Y-34065D02*
X56515Y-34065D01*
X49625Y-34065D02*
X50075Y-34065D01*
X57185Y-33985D02*
X59075Y-33985D01*
X52185Y-33985D02*
X56515Y-33985D01*
X49625Y-33985D02*
X50075Y-33985D01*
X57185Y-33905D02*
X59075Y-33905D01*
X52185Y-33905D02*
X56515Y-33905D01*
X49625Y-33905D02*
X50075Y-33905D01*
X57185Y-33825D02*
X59075Y-33825D01*
X52185Y-33825D02*
X56515Y-33825D01*
X49625Y-33825D02*
X50105Y-33825D01*
X57185Y-33745D02*
X59075Y-33745D01*
X52185Y-33745D02*
X56515Y-33745D01*
X49625Y-33745D02*
X50138Y-33745D01*
X57185Y-33665D02*
X59075Y-33665D01*
X52185Y-33665D02*
X56515Y-33665D01*
X51008Y-33665D02*
X51015Y-33665D01*
X49625Y-33665D02*
X50193Y-33665D01*
X57185Y-33585D02*
X59075Y-33585D01*
X52185Y-33585D02*
X56515Y-33585D01*
X50928Y-33585D02*
X51015Y-33585D01*
X49625Y-33585D02*
X50273Y-33585D01*
X57185Y-33505D02*
X59075Y-33505D01*
X52185Y-33505D02*
X56515Y-33505D01*
X50778Y-33505D02*
X51015Y-33505D01*
X49625Y-33505D02*
X50424Y-33505D01*
X57185Y-33425D02*
X59075Y-33425D01*
X52185Y-33425D02*
X56515Y-33425D01*
X49625Y-33425D02*
X51015Y-33425D01*
X57185Y-33345D02*
X59075Y-33345D01*
X52185Y-33345D02*
X56515Y-33345D01*
X49625Y-33345D02*
X51015Y-33345D01*
X57185Y-33265D02*
X59075Y-33265D01*
X52208Y-33265D02*
X56491Y-33265D01*
X49625Y-33265D02*
X51015Y-33265D01*
X57185Y-33185D02*
X59075Y-33185D01*
X52288Y-33185D02*
X56411Y-33185D01*
X49625Y-33185D02*
X51015Y-33185D01*
X57176Y-33105D02*
X59075Y-33105D01*
X54075Y-33105D02*
X56331Y-33105D01*
X53075Y-33105D02*
X53624Y-33105D01*
X52368Y-33105D02*
X52624Y-33105D01*
X49625Y-33105D02*
X51015Y-33105D01*
X57160Y-33025D02*
X59075Y-33025D01*
X54978Y-33025D02*
X55323Y-33025D01*
X54222Y-33025D02*
X54713Y-33025D01*
X53221Y-33025D02*
X53477Y-33025D01*
X52448Y-33025D02*
X52478Y-33025D01*
X49625Y-33025D02*
X51015Y-33025D01*
X57109Y-32945D02*
X59075Y-32945D01*
X55144Y-32945D02*
X55270Y-32945D01*
X54302Y-32945D02*
X54555Y-32945D01*
X53301Y-32945D02*
X53397Y-32945D01*
X49625Y-32945D02*
X51015Y-32945D01*
X57039Y-32865D02*
X59075Y-32865D01*
X55197Y-32865D02*
X55251Y-32865D01*
X55158Y-32865D02*
X55172Y-32865D01*
X54528Y-32865D02*
X54542Y-32865D01*
X54367Y-32865D02*
X54501Y-32865D01*
X49625Y-32865D02*
X51015Y-32865D01*
X56959Y-32785D02*
X59075Y-32785D01*
X55078Y-32785D02*
X55092Y-32785D01*
X54608Y-32785D02*
X54622Y-32785D01*
X54400Y-32785D02*
X54415Y-32785D01*
X49625Y-32785D02*
X51015Y-32785D01*
X56879Y-32705D02*
X59075Y-32705D01*
X54998Y-32705D02*
X55012Y-32705D01*
X54688Y-32705D02*
X54702Y-32705D01*
X49625Y-32705D02*
X51015Y-32705D01*
X58588Y-32625D02*
X59075Y-32625D01*
X56799Y-32625D02*
X58110Y-32625D01*
X54918Y-32625D02*
X54932Y-32625D01*
X54768Y-32625D02*
X54782Y-32625D01*
X50588Y-32625D02*
X51015Y-32625D01*
X49625Y-32625D02*
X50110Y-32625D01*
X58781Y-32545D02*
X59075Y-32545D01*
X56719Y-32545D02*
X57918Y-32545D01*
X54838Y-32545D02*
X54862Y-32545D01*
X50781Y-32545D02*
X51015Y-32545D01*
X49625Y-32545D02*
X49918Y-32545D01*
X58907Y-32465D02*
X59075Y-32465D01*
X56639Y-32465D02*
X57792Y-32465D01*
X54928Y-32465D02*
X54942Y-32465D01*
X54758Y-32465D02*
X54772Y-32465D01*
X50906Y-32465D02*
X51015Y-32465D01*
X49625Y-32465D02*
X49792Y-32465D01*
X58987Y-32385D02*
X59075Y-32385D01*
X56559Y-32385D02*
X57712Y-32385D01*
X55008Y-32385D02*
X55022Y-32385D01*
X54678Y-32385D02*
X54692Y-32385D01*
X50986Y-32385D02*
X51028Y-32385D01*
X49625Y-32385D02*
X49712Y-32385D01*
X59067Y-32305D02*
X59075Y-32305D01*
X56476Y-32305D02*
X57632Y-32305D01*
X55088Y-32305D02*
X55102Y-32305D01*
X54598Y-32305D02*
X54612Y-32305D01*
X54397Y-32305D02*
X54423Y-32305D01*
X49625Y-32305D02*
X49632Y-32305D01*
X56449Y-32225D02*
X57572Y-32225D01*
X55168Y-32225D02*
X55251Y-32225D01*
X54364Y-32225D02*
X54532Y-32225D01*
X56426Y-32145D02*
X57539Y-32145D01*
X55140Y-32145D02*
X55274Y-32145D01*
X54292Y-32145D02*
X54561Y-32145D01*
X51159Y-32145D02*
X51181Y-32145D01*
X56367Y-32065D02*
X57506Y-32065D01*
X54965Y-32065D02*
X55333Y-32065D01*
X54212Y-32065D02*
X54749Y-32065D01*
X51193Y-32065D02*
X51261Y-32065D01*
X54185Y-31985D02*
X57473Y-31985D01*
X51226Y-31985D02*
X51341Y-31985D01*
X54185Y-31905D02*
X57450Y-31905D01*
X51250Y-31905D02*
X51421Y-31905D01*
X54170Y-31825D02*
X57450Y-31825D01*
X51250Y-31825D02*
X51501Y-31825D01*
X54142Y-31745D02*
X57450Y-31745D01*
X51250Y-31745D02*
X51581Y-31745D01*
X54089Y-31665D02*
X57450Y-31665D01*
X51250Y-31665D02*
X51661Y-31665D01*
X54009Y-31585D02*
X57450Y-31585D01*
X51250Y-31585D02*
X51741Y-31585D01*
X53929Y-31505D02*
X57478Y-31505D01*
X51223Y-31505D02*
X51821Y-31505D01*
X53849Y-31425D02*
X57511Y-31425D01*
X51190Y-31425D02*
X51901Y-31425D01*
X53769Y-31345D02*
X57544Y-31345D01*
X51157Y-31345D02*
X51981Y-31345D01*
X53689Y-31265D02*
X57578Y-31265D01*
X51123Y-31265D02*
X52061Y-31265D01*
X53549Y-31185D02*
X57642Y-31185D01*
X51057Y-31185D02*
X52202Y-31185D01*
X50977Y-31105D02*
X57722Y-31105D01*
X50897Y-31025D02*
X57802Y-31025D01*
X57802Y-44475D02*
X57587Y-44259D01*
X57450Y-43928D01*
X57450Y-43570D01*
X57588Y-43239D01*
X57841Y-42987D01*
X57933Y-42948D01*
X57933Y-40492D01*
X57738Y-40486D01*
X57561Y-40407D01*
X57527Y-40330D01*
X57850Y-40007D01*
X57850Y-39993D01*
X57527Y-39670D01*
X57561Y-39593D01*
X57584Y-39577D01*
X57767Y-39508D01*
X57962Y-39514D01*
X58139Y-39593D01*
X58173Y-39670D01*
X57850Y-39993D01*
X57850Y-40007D01*
X58173Y-40330D01*
X58139Y-40407D01*
X58116Y-40423D01*
X57933Y-40492D01*
X57933Y-42948D01*
X58172Y-42850D01*
X58180Y-42850D01*
X58180Y-40323D01*
X57857Y-40000D01*
X58180Y-39677D01*
X58257Y-39711D01*
X58273Y-39734D01*
X58342Y-39917D01*
X58336Y-40112D01*
X58257Y-40289D01*
X58180Y-40323D01*
X58180Y-42850D01*
X58530Y-42850D01*
X58861Y-42988D01*
X59075Y-43202D01*
X59075Y-32297D01*
X58859Y-32513D01*
X58528Y-32650D01*
X58170Y-32650D01*
X57839Y-32512D01*
X57587Y-32259D01*
X57450Y-31928D01*
X57450Y-31570D01*
X57588Y-31239D01*
X57802Y-31025D01*
X50897Y-31025D01*
X51113Y-31241D01*
X51250Y-31572D01*
X51250Y-31930D01*
X51145Y-32180D01*
X52063Y-31263D01*
X52172Y-31191D01*
X52300Y-31165D01*
X53450Y-31165D01*
X53578Y-31191D01*
X53687Y-31263D01*
X54087Y-31663D01*
X54159Y-31772D01*
X54185Y-31900D01*
X54185Y-32040D01*
X54189Y-32042D01*
X54358Y-32211D01*
X54409Y-32335D01*
X54443Y-32261D01*
X54520Y-32227D01*
X54843Y-32550D01*
X54520Y-32873D01*
X54443Y-32839D01*
X54427Y-32816D01*
X54408Y-32766D01*
X54358Y-32889D01*
X54189Y-33058D01*
X53969Y-33149D01*
X53731Y-33149D01*
X53511Y-33058D01*
X53349Y-32897D01*
X53189Y-33058D01*
X52969Y-33149D01*
X52731Y-33149D01*
X52511Y-33058D01*
X52463Y-33010D01*
X52185Y-33289D01*
X52185Y-39490D01*
X52189Y-39492D01*
X52350Y-39652D01*
X52511Y-39492D01*
X52731Y-39401D01*
X52969Y-39401D01*
X53189Y-39492D01*
X53349Y-39653D01*
X53511Y-39492D01*
X53515Y-39490D01*
X53515Y-38339D01*
X53113Y-37937D01*
X53041Y-37828D01*
X53015Y-37700D01*
X53015Y-36849D01*
X52950Y-36849D01*
X52859Y-36811D01*
X52789Y-36741D01*
X52751Y-36649D01*
X52751Y-35850D01*
X52789Y-35759D01*
X52859Y-35689D01*
X52917Y-35664D01*
X52842Y-35589D01*
X52751Y-35369D01*
X52751Y-35131D01*
X52842Y-34911D01*
X53011Y-34742D01*
X53231Y-34651D01*
X53469Y-34651D01*
X53689Y-34742D01*
X53850Y-34902D01*
X54011Y-34742D01*
X54231Y-34651D01*
X54469Y-34651D01*
X54689Y-34742D01*
X54858Y-34911D01*
X54909Y-35035D01*
X54933Y-34983D01*
X54933Y-33042D01*
X54738Y-33036D01*
X54561Y-32957D01*
X54527Y-32880D01*
X54850Y-32557D01*
X54850Y-32543D01*
X54527Y-32220D01*
X54561Y-32143D01*
X54584Y-32127D01*
X54767Y-32058D01*
X54962Y-32064D01*
X55139Y-32143D01*
X55173Y-32220D01*
X54850Y-32543D01*
X54850Y-32557D01*
X55173Y-32880D01*
X55139Y-32957D01*
X55116Y-32973D01*
X54933Y-33042D01*
X54933Y-34983D01*
X54943Y-34961D01*
X55020Y-34927D01*
X55343Y-35250D01*
X55020Y-35573D01*
X54943Y-35539D01*
X54927Y-35516D01*
X54908Y-35466D01*
X54858Y-35589D01*
X54697Y-35750D01*
X54850Y-35903D01*
X55011Y-35742D01*
X55135Y-35690D01*
X55061Y-35657D01*
X55027Y-35580D01*
X55350Y-35257D01*
X55350Y-35243D01*
X55027Y-34920D01*
X55061Y-34843D01*
X55084Y-34827D01*
X55267Y-34758D01*
X55462Y-34764D01*
X55639Y-34843D01*
X55673Y-34920D01*
X55350Y-35243D01*
X55350Y-35257D01*
X55673Y-35580D01*
X55639Y-35657D01*
X55616Y-35673D01*
X55566Y-35691D01*
X55680Y-35738D01*
X55680Y-35573D01*
X55357Y-35250D01*
X55680Y-34927D01*
X55757Y-34961D01*
X55773Y-34984D01*
X55842Y-35167D01*
X55836Y-35362D01*
X55757Y-35539D01*
X55680Y-35573D01*
X55680Y-35738D01*
X55689Y-35742D01*
X55858Y-35911D01*
X55949Y-36131D01*
X55949Y-36369D01*
X55858Y-36589D01*
X55689Y-36758D01*
X55469Y-36849D01*
X55231Y-36849D01*
X55011Y-36758D01*
X54849Y-36597D01*
X54689Y-36758D01*
X54685Y-36759D01*
X54685Y-38711D01*
X55087Y-39113D01*
X55159Y-39222D01*
X55185Y-39350D01*
X55185Y-39490D01*
X55189Y-39492D01*
X55350Y-39653D01*
X55511Y-39492D01*
X55731Y-39401D01*
X55969Y-39401D01*
X56189Y-39492D01*
X56350Y-39652D01*
X56511Y-39492D01*
X56515Y-39490D01*
X56515Y-33289D01*
X56302Y-33076D01*
X56249Y-33099D01*
X55450Y-33099D01*
X55359Y-33061D01*
X55289Y-32991D01*
X55251Y-32899D01*
X55251Y-32841D01*
X55180Y-32873D01*
X54857Y-32550D01*
X55180Y-32227D01*
X55251Y-32258D01*
X55251Y-32200D01*
X55289Y-32109D01*
X55359Y-32039D01*
X55451Y-32001D01*
X56250Y-32001D01*
X56341Y-32039D01*
X56411Y-32109D01*
X56449Y-32201D01*
X56449Y-32287D01*
X56487Y-32313D01*
X57087Y-32913D01*
X57159Y-33022D01*
X57185Y-33150D01*
X57185Y-39490D01*
X57189Y-39492D01*
X57358Y-39661D01*
X57409Y-39785D01*
X57443Y-39711D01*
X57520Y-39677D01*
X57843Y-40000D01*
X57520Y-40323D01*
X57443Y-40289D01*
X57427Y-40266D01*
X57408Y-40216D01*
X57358Y-40339D01*
X57189Y-40508D01*
X56969Y-40599D01*
X56731Y-40599D01*
X56511Y-40508D01*
X56349Y-40346D01*
X56189Y-40508D01*
X55969Y-40599D01*
X55731Y-40599D01*
X55511Y-40508D01*
X55349Y-40346D01*
X55189Y-40508D01*
X54969Y-40599D01*
X54731Y-40599D01*
X54511Y-40508D01*
X54350Y-40347D01*
X54189Y-40508D01*
X53969Y-40599D01*
X53731Y-40599D01*
X53511Y-40508D01*
X53349Y-40346D01*
X53189Y-40508D01*
X52969Y-40599D01*
X52731Y-40599D01*
X52511Y-40508D01*
X52350Y-40347D01*
X52189Y-40508D01*
X51969Y-40599D01*
X51731Y-40599D01*
X51511Y-40508D01*
X51435Y-40432D01*
X51411Y-40491D01*
X51341Y-40561D01*
X51249Y-40599D01*
X50450Y-40599D01*
X50359Y-40561D01*
X50289Y-40491D01*
X50251Y-40399D01*
X50251Y-39600D01*
X50289Y-39509D01*
X50359Y-39439D01*
X50451Y-39401D01*
X50515Y-39401D01*
X50515Y-39350D01*
X50541Y-39222D01*
X50613Y-39113D01*
X51015Y-38711D01*
X51015Y-37327D01*
X50897Y-37445D01*
X50704Y-37525D01*
X50495Y-37525D01*
X50302Y-37445D01*
X50155Y-37297D01*
X50075Y-37104D01*
X50075Y-36895D01*
X50155Y-36702D01*
X50303Y-36555D01*
X50496Y-36475D01*
X50705Y-36475D01*
X50898Y-36555D01*
X51015Y-36672D01*
X51015Y-34327D01*
X50897Y-34445D01*
X50704Y-34525D01*
X50495Y-34525D01*
X50302Y-34445D01*
X50155Y-34297D01*
X50075Y-34104D01*
X50075Y-33895D01*
X50155Y-33702D01*
X50303Y-33555D01*
X50496Y-33475D01*
X50705Y-33475D01*
X50898Y-33555D01*
X51015Y-33672D01*
X51015Y-32450D01*
X51037Y-32334D01*
X50859Y-32513D01*
X50528Y-32650D01*
X50170Y-32650D01*
X49839Y-32512D01*
X49625Y-32297D01*
X49625Y-43202D01*
X49841Y-42987D01*
X50172Y-42850D01*
X50530Y-42850D01*
X50861Y-42988D01*
X51113Y-43241D01*
X51250Y-43572D01*
X51250Y-43930D01*
X51112Y-44261D01*
X50897Y-44475D01*
X57802Y-44475D01*
M02*
