G04 (created by PCBnew (20090216-final)) date Mon 24 Jan 2011 11:34:00 AM PST*
G01*
G70*
G90*
%MOIN*%
G04 Gerber Fmt 3.4, Leading zero omitted, Abs format*
%FSLAX34Y34*%
G04 APERTURE LIST*
%ADD10C,0.012000*%
%ADD11C,0.015000*%
%ADD12R,0.070000X0.070000*%
%ADD13C,0.070000*%
%ADD14R,0.070000X0.060000*%
%ADD15C,0.055000*%
%ADD16C,0.130000*%
%ADD17C,0.017000*%
%ADD18C,0.010000*%
%ADD19C,0.008000*%
%ADD20C,0.005000*%
%ADD21R,0.090000X0.090000*%
%ADD22C,0.090000*%
%ADD23R,0.090000X0.080000*%
%ADD24C,0.075000*%
%ADD25C,0.150000*%
G04 APERTURE END LIST*
G54D10*
X63418Y-40304D02*
X63418Y-40038D01*
X63418Y-40171D02*
X62618Y-40169D01*
X62707Y-40169D02*
X62885Y-40303D01*
X63419Y-39452D02*
X63331Y-39452D01*
X63421Y-38532D02*
X62621Y-38530D01*
X62621Y-38530D02*
X63243Y-38865D01*
X63243Y-38865D02*
X63244Y-38398D01*
X63421Y-38080D02*
X62622Y-37611D01*
X63333Y-38080D02*
X62710Y-38078D01*
X62710Y-38078D02*
X62622Y-38011D01*
X62622Y-38011D02*
X62622Y-37678D01*
X62622Y-37678D02*
X62711Y-37611D01*
X62711Y-37611D02*
X63334Y-37613D01*
X63334Y-37613D02*
X63422Y-37680D01*
X63422Y-37680D02*
X63422Y-38013D01*
X63422Y-38013D02*
X63333Y-38080D01*
X63423Y-37294D02*
X62624Y-36825D01*
X63335Y-37294D02*
X62712Y-37292D01*
X62712Y-37292D02*
X62623Y-37225D01*
X62623Y-37225D02*
X62623Y-36892D01*
X62623Y-36892D02*
X62713Y-36825D01*
X62713Y-36825D02*
X63336Y-36827D01*
X63336Y-36827D02*
X63423Y-36894D01*
X63423Y-36894D02*
X63423Y-37227D01*
X63423Y-37227D02*
X63335Y-37294D01*
X63424Y-36508D02*
X62625Y-36039D01*
X63336Y-36508D02*
X62713Y-36506D01*
X62713Y-36506D02*
X62624Y-36439D01*
X62624Y-36439D02*
X62625Y-36106D01*
X62625Y-36106D02*
X62714Y-36039D01*
X62714Y-36039D02*
X63337Y-36041D01*
X63337Y-36041D02*
X63425Y-36108D01*
X63425Y-36108D02*
X63424Y-36441D01*
X63424Y-36441D02*
X63336Y-36508D01*
G54D11*
X62332Y-44752D02*
X62342Y-30752D01*
X59340Y-44750D02*
X63702Y-44752D01*
X59350Y-30750D02*
X63712Y-30752D01*
X62342Y-30752D02*
X62572Y-31195D01*
X62342Y-30752D02*
X62111Y-31195D01*
X62332Y-44752D02*
X62563Y-44309D01*
X62332Y-44752D02*
X62102Y-44309D01*
G54D10*
X51797Y-47295D02*
X52063Y-47295D01*
X51930Y-47295D02*
X51930Y-46495D01*
X51930Y-46584D02*
X51797Y-46762D01*
X52649Y-47295D02*
X52649Y-47207D01*
X53235Y-47295D02*
X53702Y-46495D01*
X53235Y-47207D02*
X53235Y-46584D01*
X53235Y-46584D02*
X53302Y-46495D01*
X53302Y-46495D02*
X53635Y-46495D01*
X53635Y-46495D02*
X53702Y-46584D01*
X53702Y-46584D02*
X53702Y-47207D01*
X53702Y-47207D02*
X53635Y-47295D01*
X53635Y-47295D02*
X53302Y-47295D01*
X53302Y-47295D02*
X53235Y-47207D01*
X54021Y-47295D02*
X54488Y-46495D01*
X54021Y-47207D02*
X54021Y-46584D01*
X54021Y-46584D02*
X54088Y-46495D01*
X54088Y-46495D02*
X54421Y-46495D01*
X54421Y-46495D02*
X54488Y-46584D01*
X54488Y-46584D02*
X54488Y-47207D01*
X54488Y-47207D02*
X54421Y-47295D01*
X54421Y-47295D02*
X54088Y-47295D01*
X54088Y-47295D02*
X54021Y-47207D01*
X54807Y-47295D02*
X55274Y-46495D01*
X54807Y-47207D02*
X54807Y-46584D01*
X54807Y-46584D02*
X54874Y-46495D01*
X54874Y-46495D02*
X55207Y-46495D01*
X55207Y-46495D02*
X55274Y-46584D01*
X55274Y-46584D02*
X55274Y-47207D01*
X55274Y-47207D02*
X55207Y-47295D01*
X55207Y-47295D02*
X54874Y-47295D01*
X54874Y-47295D02*
X54807Y-47207D01*
X55593Y-47295D02*
X56060Y-46495D01*
X55593Y-47207D02*
X55593Y-46584D01*
X55593Y-46584D02*
X55660Y-46495D01*
X55660Y-46495D02*
X55993Y-46495D01*
X55993Y-46495D02*
X56060Y-46584D01*
X56060Y-46584D02*
X56060Y-47207D01*
X56060Y-47207D02*
X55993Y-47295D01*
X55993Y-47295D02*
X55660Y-47295D01*
X55660Y-47295D02*
X55593Y-47207D01*
G54D11*
X49349Y-46205D02*
X59349Y-46215D01*
X49350Y-44740D02*
X49348Y-47575D01*
X59350Y-44750D02*
X59348Y-47585D01*
X59349Y-46215D02*
X58906Y-46445D01*
X59349Y-46215D02*
X58906Y-45984D01*
X49349Y-46205D02*
X49792Y-46436D01*
X49349Y-46205D02*
X49792Y-45975D01*
X49350Y-44750D02*
X59350Y-44750D01*
X49350Y-30750D02*
X59350Y-30750D01*
X59350Y-30750D02*
X59350Y-44750D01*
X49350Y-30750D02*
X49350Y-44750D01*
G54D21*
X53350Y-36250D03*
G54D22*
X53350Y-35250D03*
X54350Y-36250D03*
X54350Y-35250D03*
X55350Y-36250D03*
X55350Y-35250D03*
G54D23*
X55850Y-32050D03*
G54D22*
X54850Y-32050D03*
X53850Y-32050D03*
X52850Y-32050D03*
G54D21*
X50850Y-40000D03*
G54D22*
X51850Y-40000D03*
X52850Y-40000D03*
X53850Y-40000D03*
X54850Y-40000D03*
X55850Y-40000D03*
X56850Y-40000D03*
X57850Y-40000D03*
G54D24*
X50600Y-34000D03*
X50600Y-37000D03*
G54D25*
X58350Y-31750D03*
X50350Y-31750D03*
X58350Y-43750D03*
X50350Y-43750D03*
M02*
