G04 (created by PCBnew (20090216-final)) date Thu 03 Feb 2011 01:20:25 PM PST*
G01*
G70*
G90*
%MOIN*%
G04 Gerber Fmt 3.4, Leading zero omitted, Abs format*
%FSLAX34Y34*%
G04 APERTURE LIST*
%ADD10C,0.010000*%
%ADD11R,0.070000X0.070000*%
%ADD12C,0.070000*%
%ADD13R,0.070000X0.060000*%
%ADD14C,0.055000*%
%ADD15C,0.130000*%
%ADD16C,0.017000*%
%ADD17C,0.010000*%
%ADD18C,0.015000*%
%ADD19C,0.005000*%
%ADD20C,0.012000*%
%ADD21C,0.008000*%
G04 APERTURE END LIST*
G54D10*
X50522Y-38700D02*
X50700Y-38700D01*
X50611Y-38700D02*
X50611Y-38100D01*
X50522Y-38100D02*
X50700Y-38100D01*
X51022Y-38634D02*
X51066Y-38700D01*
X51066Y-38700D02*
X51289Y-38700D01*
X51289Y-38700D02*
X51333Y-38634D01*
X51333Y-38634D02*
X51333Y-38434D01*
X51333Y-38434D02*
X51289Y-38367D01*
X51289Y-38367D02*
X51066Y-38367D01*
X51066Y-38367D02*
X51022Y-38300D01*
X51022Y-38300D02*
X51022Y-38167D01*
X51022Y-38167D02*
X51066Y-38100D01*
X51066Y-38100D02*
X51289Y-38100D01*
X51289Y-38100D02*
X51333Y-38167D01*
X51566Y-38700D02*
X51566Y-38100D01*
X51566Y-38100D02*
X51833Y-38100D01*
X51833Y-38100D02*
X51877Y-38167D01*
X51877Y-38167D02*
X51877Y-38367D01*
X51877Y-38367D02*
X51833Y-38434D01*
X51833Y-38434D02*
X51566Y-38434D01*
X52046Y-34150D02*
X52046Y-33550D01*
X52046Y-33550D02*
X52313Y-33550D01*
X52313Y-33550D02*
X52357Y-33617D01*
X52357Y-33617D02*
X52357Y-33817D01*
X52357Y-33817D02*
X52313Y-33884D01*
X52313Y-33884D02*
X52046Y-33884D01*
X52590Y-33750D02*
X52857Y-33750D01*
X52857Y-33750D02*
X52901Y-33817D01*
X52901Y-33817D02*
X52901Y-34150D01*
X52901Y-34150D02*
X52634Y-34150D01*
X52634Y-34150D02*
X52590Y-34084D01*
X52590Y-34084D02*
X52590Y-34017D01*
X52590Y-34017D02*
X52634Y-33950D01*
X52634Y-33950D02*
X52901Y-33950D01*
X53134Y-34150D02*
X53134Y-33750D01*
X53134Y-33817D02*
X53178Y-33750D01*
X53178Y-33750D02*
X53356Y-33750D01*
X53356Y-33750D02*
X53401Y-33817D01*
X53401Y-33817D02*
X53401Y-34150D01*
X53678Y-33950D02*
X53989Y-33950D01*
X53989Y-33950D02*
X53989Y-33817D01*
X53989Y-33817D02*
X53945Y-33750D01*
X53945Y-33750D02*
X53722Y-33750D01*
X53722Y-33750D02*
X53678Y-33817D01*
X53678Y-33817D02*
X53678Y-34084D01*
X53678Y-34084D02*
X53722Y-34150D01*
X53722Y-34150D02*
X53945Y-34150D01*
X53945Y-34150D02*
X53989Y-34084D01*
X54311Y-33550D02*
X54355Y-33550D01*
X54355Y-33550D02*
X54355Y-34150D01*
X54311Y-34150D02*
X54400Y-34150D01*
X55354Y-34150D02*
X55532Y-34150D01*
X55443Y-34150D02*
X55443Y-33550D01*
X55354Y-33550D02*
X55532Y-33550D01*
X55854Y-34084D02*
X55898Y-34150D01*
X55898Y-34150D02*
X56121Y-34150D01*
X56121Y-34150D02*
X56165Y-34084D01*
X56165Y-34084D02*
X56165Y-33884D01*
X56165Y-33884D02*
X56121Y-33817D01*
X56121Y-33817D02*
X55898Y-33817D01*
X55898Y-33817D02*
X55854Y-33750D01*
X55854Y-33750D02*
X55854Y-33617D01*
X55854Y-33617D02*
X55898Y-33550D01*
X55898Y-33550D02*
X56121Y-33550D01*
X56121Y-33550D02*
X56165Y-33617D01*
X56398Y-34150D02*
X56398Y-33550D01*
X56398Y-33550D02*
X56665Y-33550D01*
X56665Y-33550D02*
X56709Y-33617D01*
X56709Y-33617D02*
X56709Y-33817D01*
X56709Y-33817D02*
X56665Y-33884D01*
X56665Y-33884D02*
X56398Y-33884D01*
X56683Y-34817D02*
X56639Y-34750D01*
X56639Y-34750D02*
X56416Y-34750D01*
X56416Y-34750D02*
X56372Y-34817D01*
X56372Y-34817D02*
X56372Y-35284D01*
X56372Y-35284D02*
X56416Y-35350D01*
X56416Y-35350D02*
X56639Y-35350D01*
X56639Y-35350D02*
X56683Y-35284D01*
X56683Y-35284D02*
X56683Y-35084D01*
X56683Y-35084D02*
X56639Y-35017D01*
X56639Y-35017D02*
X56416Y-35017D01*
X56416Y-35017D02*
X56372Y-35084D01*
X56372Y-36467D02*
X56372Y-36534D01*
X56372Y-36534D02*
X56416Y-36600D01*
X56416Y-36600D02*
X56639Y-36600D01*
X56639Y-36600D02*
X56683Y-36534D01*
X56683Y-36534D02*
X56683Y-36334D01*
X56683Y-36334D02*
X56594Y-36200D01*
X56594Y-36200D02*
X56372Y-36200D01*
X56372Y-36200D02*
X56372Y-36000D01*
X56372Y-36000D02*
X56683Y-36000D01*
X52383Y-35350D02*
X52072Y-35350D01*
X52072Y-35350D02*
X52072Y-35150D01*
X52072Y-35150D02*
X52116Y-35084D01*
X52116Y-35084D02*
X52339Y-35084D01*
X52339Y-35084D02*
X52383Y-35017D01*
X52383Y-35017D02*
X52383Y-34817D01*
X52383Y-34817D02*
X52339Y-34750D01*
X52339Y-34750D02*
X52116Y-34750D01*
X52116Y-34750D02*
X52072Y-34817D01*
X52161Y-36600D02*
X52339Y-36600D01*
X52250Y-36600D02*
X52250Y-36000D01*
X52250Y-36067D02*
X52161Y-36200D01*
G54D18*
X49350Y-44750D02*
X59350Y-44750D01*
X49350Y-30750D02*
X59350Y-30750D01*
X59350Y-30750D02*
X59350Y-44750D01*
X49350Y-30750D02*
X49350Y-44750D01*
X52850Y-37750D02*
X53850Y-37750D01*
X53850Y-37750D02*
X53350Y-37250D01*
X53350Y-37250D02*
X52850Y-37750D01*
X52600Y-34500D02*
X52600Y-37000D01*
X52600Y-37000D02*
X56100Y-37000D01*
X56100Y-37000D02*
X56100Y-34500D01*
X56100Y-34500D02*
X52600Y-34500D01*
X58600Y-39000D02*
X50100Y-39000D01*
X50100Y-41000D02*
X58600Y-41000D01*
X58600Y-39000D02*
X58600Y-41000D01*
X50100Y-39000D02*
X50100Y-41000D01*
X50350Y-41750D02*
X51350Y-41750D01*
X51350Y-41750D02*
X50850Y-41250D01*
X50850Y-41250D02*
X50350Y-41750D01*
G54D20*
X50600Y-34000D02*
X50600Y-34200D01*
X50600Y-37000D02*
X50600Y-36800D01*
X50600Y-36800D02*
X51000Y-36800D01*
X51000Y-36800D02*
X51000Y-34200D01*
X51000Y-34200D02*
X50200Y-34200D01*
X50200Y-34200D02*
X50200Y-36800D01*
X50200Y-36800D02*
X50600Y-36800D01*
X50800Y-34200D02*
X51000Y-34400D01*
G54D19*
X53000Y-36600D02*
X53000Y-35900D01*
X53000Y-35900D02*
X53700Y-35900D01*
X53700Y-35900D02*
X53700Y-36600D01*
X53700Y-36600D02*
X53000Y-36600D01*
X53700Y-35250D02*
X53693Y-35317D01*
X53693Y-35317D02*
X53673Y-35383D01*
X53673Y-35383D02*
X53641Y-35443D01*
X53641Y-35443D02*
X53598Y-35496D01*
X53598Y-35496D02*
X53545Y-35540D01*
X53545Y-35540D02*
X53485Y-35572D01*
X53485Y-35572D02*
X53420Y-35592D01*
X53420Y-35592D02*
X53352Y-35599D01*
X53352Y-35599D02*
X53285Y-35593D01*
X53285Y-35593D02*
X53219Y-35574D01*
X53219Y-35574D02*
X53159Y-35542D01*
X53159Y-35542D02*
X53106Y-35500D01*
X53106Y-35500D02*
X53062Y-35447D01*
X53062Y-35447D02*
X53029Y-35387D01*
X53029Y-35387D02*
X53008Y-35322D01*
X53008Y-35322D02*
X53001Y-35254D01*
X53001Y-35254D02*
X53006Y-35187D01*
X53006Y-35187D02*
X53025Y-35122D01*
X53025Y-35122D02*
X53056Y-35061D01*
X53056Y-35061D02*
X53099Y-35007D01*
X53099Y-35007D02*
X53151Y-34963D01*
X53151Y-34963D02*
X53210Y-34930D01*
X53210Y-34930D02*
X53275Y-34909D01*
X53275Y-34909D02*
X53343Y-34901D01*
X53343Y-34901D02*
X53410Y-34906D01*
X53410Y-34906D02*
X53476Y-34924D01*
X53476Y-34924D02*
X53537Y-34955D01*
X53537Y-34955D02*
X53591Y-34997D01*
X53591Y-34997D02*
X53636Y-35049D01*
X53636Y-35049D02*
X53669Y-35108D01*
X53669Y-35108D02*
X53691Y-35173D01*
X53691Y-35173D02*
X53699Y-35241D01*
X53699Y-35241D02*
X53700Y-35250D01*
X54700Y-36250D02*
X54693Y-36317D01*
X54693Y-36317D02*
X54673Y-36383D01*
X54673Y-36383D02*
X54641Y-36443D01*
X54641Y-36443D02*
X54598Y-36496D01*
X54598Y-36496D02*
X54545Y-36540D01*
X54545Y-36540D02*
X54485Y-36572D01*
X54485Y-36572D02*
X54420Y-36592D01*
X54420Y-36592D02*
X54352Y-36599D01*
X54352Y-36599D02*
X54285Y-36593D01*
X54285Y-36593D02*
X54219Y-36574D01*
X54219Y-36574D02*
X54159Y-36542D01*
X54159Y-36542D02*
X54106Y-36500D01*
X54106Y-36500D02*
X54062Y-36447D01*
X54062Y-36447D02*
X54029Y-36387D01*
X54029Y-36387D02*
X54008Y-36322D01*
X54008Y-36322D02*
X54001Y-36254D01*
X54001Y-36254D02*
X54006Y-36187D01*
X54006Y-36187D02*
X54025Y-36122D01*
X54025Y-36122D02*
X54056Y-36061D01*
X54056Y-36061D02*
X54099Y-36007D01*
X54099Y-36007D02*
X54151Y-35963D01*
X54151Y-35963D02*
X54210Y-35930D01*
X54210Y-35930D02*
X54275Y-35909D01*
X54275Y-35909D02*
X54343Y-35901D01*
X54343Y-35901D02*
X54410Y-35906D01*
X54410Y-35906D02*
X54476Y-35924D01*
X54476Y-35924D02*
X54537Y-35955D01*
X54537Y-35955D02*
X54591Y-35997D01*
X54591Y-35997D02*
X54636Y-36049D01*
X54636Y-36049D02*
X54669Y-36108D01*
X54669Y-36108D02*
X54691Y-36173D01*
X54691Y-36173D02*
X54699Y-36241D01*
X54699Y-36241D02*
X54700Y-36250D01*
X54700Y-35250D02*
X54693Y-35317D01*
X54693Y-35317D02*
X54673Y-35383D01*
X54673Y-35383D02*
X54641Y-35443D01*
X54641Y-35443D02*
X54598Y-35496D01*
X54598Y-35496D02*
X54545Y-35540D01*
X54545Y-35540D02*
X54485Y-35572D01*
X54485Y-35572D02*
X54420Y-35592D01*
X54420Y-35592D02*
X54352Y-35599D01*
X54352Y-35599D02*
X54285Y-35593D01*
X54285Y-35593D02*
X54219Y-35574D01*
X54219Y-35574D02*
X54159Y-35542D01*
X54159Y-35542D02*
X54106Y-35500D01*
X54106Y-35500D02*
X54062Y-35447D01*
X54062Y-35447D02*
X54029Y-35387D01*
X54029Y-35387D02*
X54008Y-35322D01*
X54008Y-35322D02*
X54001Y-35254D01*
X54001Y-35254D02*
X54006Y-35187D01*
X54006Y-35187D02*
X54025Y-35122D01*
X54025Y-35122D02*
X54056Y-35061D01*
X54056Y-35061D02*
X54099Y-35007D01*
X54099Y-35007D02*
X54151Y-34963D01*
X54151Y-34963D02*
X54210Y-34930D01*
X54210Y-34930D02*
X54275Y-34909D01*
X54275Y-34909D02*
X54343Y-34901D01*
X54343Y-34901D02*
X54410Y-34906D01*
X54410Y-34906D02*
X54476Y-34924D01*
X54476Y-34924D02*
X54537Y-34955D01*
X54537Y-34955D02*
X54591Y-34997D01*
X54591Y-34997D02*
X54636Y-35049D01*
X54636Y-35049D02*
X54669Y-35108D01*
X54669Y-35108D02*
X54691Y-35173D01*
X54691Y-35173D02*
X54699Y-35241D01*
X54699Y-35241D02*
X54700Y-35250D01*
X55700Y-36250D02*
X55693Y-36317D01*
X55693Y-36317D02*
X55673Y-36383D01*
X55673Y-36383D02*
X55641Y-36443D01*
X55641Y-36443D02*
X55598Y-36496D01*
X55598Y-36496D02*
X55545Y-36540D01*
X55545Y-36540D02*
X55485Y-36572D01*
X55485Y-36572D02*
X55420Y-36592D01*
X55420Y-36592D02*
X55352Y-36599D01*
X55352Y-36599D02*
X55285Y-36593D01*
X55285Y-36593D02*
X55219Y-36574D01*
X55219Y-36574D02*
X55159Y-36542D01*
X55159Y-36542D02*
X55106Y-36500D01*
X55106Y-36500D02*
X55062Y-36447D01*
X55062Y-36447D02*
X55029Y-36387D01*
X55029Y-36387D02*
X55008Y-36322D01*
X55008Y-36322D02*
X55001Y-36254D01*
X55001Y-36254D02*
X55006Y-36187D01*
X55006Y-36187D02*
X55025Y-36122D01*
X55025Y-36122D02*
X55056Y-36061D01*
X55056Y-36061D02*
X55099Y-36007D01*
X55099Y-36007D02*
X55151Y-35963D01*
X55151Y-35963D02*
X55210Y-35930D01*
X55210Y-35930D02*
X55275Y-35909D01*
X55275Y-35909D02*
X55343Y-35901D01*
X55343Y-35901D02*
X55410Y-35906D01*
X55410Y-35906D02*
X55476Y-35924D01*
X55476Y-35924D02*
X55537Y-35955D01*
X55537Y-35955D02*
X55591Y-35997D01*
X55591Y-35997D02*
X55636Y-36049D01*
X55636Y-36049D02*
X55669Y-36108D01*
X55669Y-36108D02*
X55691Y-36173D01*
X55691Y-36173D02*
X55699Y-36241D01*
X55699Y-36241D02*
X55700Y-36250D01*
X55700Y-35250D02*
X55693Y-35317D01*
X55693Y-35317D02*
X55673Y-35383D01*
X55673Y-35383D02*
X55641Y-35443D01*
X55641Y-35443D02*
X55598Y-35496D01*
X55598Y-35496D02*
X55545Y-35540D01*
X55545Y-35540D02*
X55485Y-35572D01*
X55485Y-35572D02*
X55420Y-35592D01*
X55420Y-35592D02*
X55352Y-35599D01*
X55352Y-35599D02*
X55285Y-35593D01*
X55285Y-35593D02*
X55219Y-35574D01*
X55219Y-35574D02*
X55159Y-35542D01*
X55159Y-35542D02*
X55106Y-35500D01*
X55106Y-35500D02*
X55062Y-35447D01*
X55062Y-35447D02*
X55029Y-35387D01*
X55029Y-35387D02*
X55008Y-35322D01*
X55008Y-35322D02*
X55001Y-35254D01*
X55001Y-35254D02*
X55006Y-35187D01*
X55006Y-35187D02*
X55025Y-35122D01*
X55025Y-35122D02*
X55056Y-35061D01*
X55056Y-35061D02*
X55099Y-35007D01*
X55099Y-35007D02*
X55151Y-34963D01*
X55151Y-34963D02*
X55210Y-34930D01*
X55210Y-34930D02*
X55275Y-34909D01*
X55275Y-34909D02*
X55343Y-34901D01*
X55343Y-34901D02*
X55410Y-34906D01*
X55410Y-34906D02*
X55476Y-34924D01*
X55476Y-34924D02*
X55537Y-34955D01*
X55537Y-34955D02*
X55591Y-34997D01*
X55591Y-34997D02*
X55636Y-35049D01*
X55636Y-35049D02*
X55669Y-35108D01*
X55669Y-35108D02*
X55691Y-35173D01*
X55691Y-35173D02*
X55699Y-35241D01*
X55699Y-35241D02*
X55700Y-35250D01*
X50500Y-40350D02*
X50500Y-39650D01*
X50500Y-39650D02*
X51200Y-39650D01*
X51200Y-39650D02*
X51200Y-40350D01*
X51200Y-40350D02*
X50500Y-40350D01*
X52200Y-40000D02*
X52193Y-40067D01*
X52193Y-40067D02*
X52173Y-40133D01*
X52173Y-40133D02*
X52141Y-40193D01*
X52141Y-40193D02*
X52098Y-40246D01*
X52098Y-40246D02*
X52045Y-40290D01*
X52045Y-40290D02*
X51985Y-40322D01*
X51985Y-40322D02*
X51920Y-40342D01*
X51920Y-40342D02*
X51852Y-40349D01*
X51852Y-40349D02*
X51785Y-40343D01*
X51785Y-40343D02*
X51719Y-40324D01*
X51719Y-40324D02*
X51659Y-40292D01*
X51659Y-40292D02*
X51606Y-40250D01*
X51606Y-40250D02*
X51562Y-40197D01*
X51562Y-40197D02*
X51529Y-40137D01*
X51529Y-40137D02*
X51508Y-40072D01*
X51508Y-40072D02*
X51501Y-40004D01*
X51501Y-40004D02*
X51506Y-39937D01*
X51506Y-39937D02*
X51525Y-39872D01*
X51525Y-39872D02*
X51556Y-39811D01*
X51556Y-39811D02*
X51599Y-39757D01*
X51599Y-39757D02*
X51651Y-39713D01*
X51651Y-39713D02*
X51710Y-39680D01*
X51710Y-39680D02*
X51775Y-39659D01*
X51775Y-39659D02*
X51843Y-39651D01*
X51843Y-39651D02*
X51910Y-39656D01*
X51910Y-39656D02*
X51976Y-39674D01*
X51976Y-39674D02*
X52037Y-39705D01*
X52037Y-39705D02*
X52091Y-39747D01*
X52091Y-39747D02*
X52136Y-39799D01*
X52136Y-39799D02*
X52169Y-39858D01*
X52169Y-39858D02*
X52191Y-39923D01*
X52191Y-39923D02*
X52199Y-39991D01*
X52199Y-39991D02*
X52200Y-40000D01*
X53200Y-40000D02*
X53193Y-40067D01*
X53193Y-40067D02*
X53173Y-40133D01*
X53173Y-40133D02*
X53141Y-40193D01*
X53141Y-40193D02*
X53098Y-40246D01*
X53098Y-40246D02*
X53045Y-40290D01*
X53045Y-40290D02*
X52985Y-40322D01*
X52985Y-40322D02*
X52920Y-40342D01*
X52920Y-40342D02*
X52852Y-40349D01*
X52852Y-40349D02*
X52785Y-40343D01*
X52785Y-40343D02*
X52719Y-40324D01*
X52719Y-40324D02*
X52659Y-40292D01*
X52659Y-40292D02*
X52606Y-40250D01*
X52606Y-40250D02*
X52562Y-40197D01*
X52562Y-40197D02*
X52529Y-40137D01*
X52529Y-40137D02*
X52508Y-40072D01*
X52508Y-40072D02*
X52501Y-40004D01*
X52501Y-40004D02*
X52506Y-39937D01*
X52506Y-39937D02*
X52525Y-39872D01*
X52525Y-39872D02*
X52556Y-39811D01*
X52556Y-39811D02*
X52599Y-39757D01*
X52599Y-39757D02*
X52651Y-39713D01*
X52651Y-39713D02*
X52710Y-39680D01*
X52710Y-39680D02*
X52775Y-39659D01*
X52775Y-39659D02*
X52843Y-39651D01*
X52843Y-39651D02*
X52910Y-39656D01*
X52910Y-39656D02*
X52976Y-39674D01*
X52976Y-39674D02*
X53037Y-39705D01*
X53037Y-39705D02*
X53091Y-39747D01*
X53091Y-39747D02*
X53136Y-39799D01*
X53136Y-39799D02*
X53169Y-39858D01*
X53169Y-39858D02*
X53191Y-39923D01*
X53191Y-39923D02*
X53199Y-39991D01*
X53199Y-39991D02*
X53200Y-40000D01*
X54200Y-40000D02*
X54193Y-40067D01*
X54193Y-40067D02*
X54173Y-40133D01*
X54173Y-40133D02*
X54141Y-40193D01*
X54141Y-40193D02*
X54098Y-40246D01*
X54098Y-40246D02*
X54045Y-40290D01*
X54045Y-40290D02*
X53985Y-40322D01*
X53985Y-40322D02*
X53920Y-40342D01*
X53920Y-40342D02*
X53852Y-40349D01*
X53852Y-40349D02*
X53785Y-40343D01*
X53785Y-40343D02*
X53719Y-40324D01*
X53719Y-40324D02*
X53659Y-40292D01*
X53659Y-40292D02*
X53606Y-40250D01*
X53606Y-40250D02*
X53562Y-40197D01*
X53562Y-40197D02*
X53529Y-40137D01*
X53529Y-40137D02*
X53508Y-40072D01*
X53508Y-40072D02*
X53501Y-40004D01*
X53501Y-40004D02*
X53506Y-39937D01*
X53506Y-39937D02*
X53525Y-39872D01*
X53525Y-39872D02*
X53556Y-39811D01*
X53556Y-39811D02*
X53599Y-39757D01*
X53599Y-39757D02*
X53651Y-39713D01*
X53651Y-39713D02*
X53710Y-39680D01*
X53710Y-39680D02*
X53775Y-39659D01*
X53775Y-39659D02*
X53843Y-39651D01*
X53843Y-39651D02*
X53910Y-39656D01*
X53910Y-39656D02*
X53976Y-39674D01*
X53976Y-39674D02*
X54037Y-39705D01*
X54037Y-39705D02*
X54091Y-39747D01*
X54091Y-39747D02*
X54136Y-39799D01*
X54136Y-39799D02*
X54169Y-39858D01*
X54169Y-39858D02*
X54191Y-39923D01*
X54191Y-39923D02*
X54199Y-39991D01*
X54199Y-39991D02*
X54200Y-40000D01*
X55200Y-40000D02*
X55193Y-40067D01*
X55193Y-40067D02*
X55173Y-40133D01*
X55173Y-40133D02*
X55141Y-40193D01*
X55141Y-40193D02*
X55098Y-40246D01*
X55098Y-40246D02*
X55045Y-40290D01*
X55045Y-40290D02*
X54985Y-40322D01*
X54985Y-40322D02*
X54920Y-40342D01*
X54920Y-40342D02*
X54852Y-40349D01*
X54852Y-40349D02*
X54785Y-40343D01*
X54785Y-40343D02*
X54719Y-40324D01*
X54719Y-40324D02*
X54659Y-40292D01*
X54659Y-40292D02*
X54606Y-40250D01*
X54606Y-40250D02*
X54562Y-40197D01*
X54562Y-40197D02*
X54529Y-40137D01*
X54529Y-40137D02*
X54508Y-40072D01*
X54508Y-40072D02*
X54501Y-40004D01*
X54501Y-40004D02*
X54506Y-39937D01*
X54506Y-39937D02*
X54525Y-39872D01*
X54525Y-39872D02*
X54556Y-39811D01*
X54556Y-39811D02*
X54599Y-39757D01*
X54599Y-39757D02*
X54651Y-39713D01*
X54651Y-39713D02*
X54710Y-39680D01*
X54710Y-39680D02*
X54775Y-39659D01*
X54775Y-39659D02*
X54843Y-39651D01*
X54843Y-39651D02*
X54910Y-39656D01*
X54910Y-39656D02*
X54976Y-39674D01*
X54976Y-39674D02*
X55037Y-39705D01*
X55037Y-39705D02*
X55091Y-39747D01*
X55091Y-39747D02*
X55136Y-39799D01*
X55136Y-39799D02*
X55169Y-39858D01*
X55169Y-39858D02*
X55191Y-39923D01*
X55191Y-39923D02*
X55199Y-39991D01*
X55199Y-39991D02*
X55200Y-40000D01*
X56200Y-40000D02*
X56193Y-40067D01*
X56193Y-40067D02*
X56173Y-40133D01*
X56173Y-40133D02*
X56141Y-40193D01*
X56141Y-40193D02*
X56098Y-40246D01*
X56098Y-40246D02*
X56045Y-40290D01*
X56045Y-40290D02*
X55985Y-40322D01*
X55985Y-40322D02*
X55920Y-40342D01*
X55920Y-40342D02*
X55852Y-40349D01*
X55852Y-40349D02*
X55785Y-40343D01*
X55785Y-40343D02*
X55719Y-40324D01*
X55719Y-40324D02*
X55659Y-40292D01*
X55659Y-40292D02*
X55606Y-40250D01*
X55606Y-40250D02*
X55562Y-40197D01*
X55562Y-40197D02*
X55529Y-40137D01*
X55529Y-40137D02*
X55508Y-40072D01*
X55508Y-40072D02*
X55501Y-40004D01*
X55501Y-40004D02*
X55506Y-39937D01*
X55506Y-39937D02*
X55525Y-39872D01*
X55525Y-39872D02*
X55556Y-39811D01*
X55556Y-39811D02*
X55599Y-39757D01*
X55599Y-39757D02*
X55651Y-39713D01*
X55651Y-39713D02*
X55710Y-39680D01*
X55710Y-39680D02*
X55775Y-39659D01*
X55775Y-39659D02*
X55843Y-39651D01*
X55843Y-39651D02*
X55910Y-39656D01*
X55910Y-39656D02*
X55976Y-39674D01*
X55976Y-39674D02*
X56037Y-39705D01*
X56037Y-39705D02*
X56091Y-39747D01*
X56091Y-39747D02*
X56136Y-39799D01*
X56136Y-39799D02*
X56169Y-39858D01*
X56169Y-39858D02*
X56191Y-39923D01*
X56191Y-39923D02*
X56199Y-39991D01*
X56199Y-39991D02*
X56200Y-40000D01*
X57200Y-40000D02*
X57193Y-40067D01*
X57193Y-40067D02*
X57173Y-40133D01*
X57173Y-40133D02*
X57141Y-40193D01*
X57141Y-40193D02*
X57098Y-40246D01*
X57098Y-40246D02*
X57045Y-40290D01*
X57045Y-40290D02*
X56985Y-40322D01*
X56985Y-40322D02*
X56920Y-40342D01*
X56920Y-40342D02*
X56852Y-40349D01*
X56852Y-40349D02*
X56785Y-40343D01*
X56785Y-40343D02*
X56719Y-40324D01*
X56719Y-40324D02*
X56659Y-40292D01*
X56659Y-40292D02*
X56606Y-40250D01*
X56606Y-40250D02*
X56562Y-40197D01*
X56562Y-40197D02*
X56529Y-40137D01*
X56529Y-40137D02*
X56508Y-40072D01*
X56508Y-40072D02*
X56501Y-40004D01*
X56501Y-40004D02*
X56506Y-39937D01*
X56506Y-39937D02*
X56525Y-39872D01*
X56525Y-39872D02*
X56556Y-39811D01*
X56556Y-39811D02*
X56599Y-39757D01*
X56599Y-39757D02*
X56651Y-39713D01*
X56651Y-39713D02*
X56710Y-39680D01*
X56710Y-39680D02*
X56775Y-39659D01*
X56775Y-39659D02*
X56843Y-39651D01*
X56843Y-39651D02*
X56910Y-39656D01*
X56910Y-39656D02*
X56976Y-39674D01*
X56976Y-39674D02*
X57037Y-39705D01*
X57037Y-39705D02*
X57091Y-39747D01*
X57091Y-39747D02*
X57136Y-39799D01*
X57136Y-39799D02*
X57169Y-39858D01*
X57169Y-39858D02*
X57191Y-39923D01*
X57191Y-39923D02*
X57199Y-39991D01*
X57199Y-39991D02*
X57200Y-40000D01*
X58200Y-40000D02*
X58193Y-40067D01*
X58193Y-40067D02*
X58173Y-40133D01*
X58173Y-40133D02*
X58141Y-40193D01*
X58141Y-40193D02*
X58098Y-40246D01*
X58098Y-40246D02*
X58045Y-40290D01*
X58045Y-40290D02*
X57985Y-40322D01*
X57985Y-40322D02*
X57920Y-40342D01*
X57920Y-40342D02*
X57852Y-40349D01*
X57852Y-40349D02*
X57785Y-40343D01*
X57785Y-40343D02*
X57719Y-40324D01*
X57719Y-40324D02*
X57659Y-40292D01*
X57659Y-40292D02*
X57606Y-40250D01*
X57606Y-40250D02*
X57562Y-40197D01*
X57562Y-40197D02*
X57529Y-40137D01*
X57529Y-40137D02*
X57508Y-40072D01*
X57508Y-40072D02*
X57501Y-40004D01*
X57501Y-40004D02*
X57506Y-39937D01*
X57506Y-39937D02*
X57525Y-39872D01*
X57525Y-39872D02*
X57556Y-39811D01*
X57556Y-39811D02*
X57599Y-39757D01*
X57599Y-39757D02*
X57651Y-39713D01*
X57651Y-39713D02*
X57710Y-39680D01*
X57710Y-39680D02*
X57775Y-39659D01*
X57775Y-39659D02*
X57843Y-39651D01*
X57843Y-39651D02*
X57910Y-39656D01*
X57910Y-39656D02*
X57976Y-39674D01*
X57976Y-39674D02*
X58037Y-39705D01*
X58037Y-39705D02*
X58091Y-39747D01*
X58091Y-39747D02*
X58136Y-39799D01*
X58136Y-39799D02*
X58169Y-39858D01*
X58169Y-39858D02*
X58191Y-39923D01*
X58191Y-39923D02*
X58199Y-39991D01*
X58199Y-39991D02*
X58200Y-40000D01*
X50875Y-34000D02*
X50869Y-34053D01*
X50869Y-34053D02*
X50854Y-34104D01*
X50854Y-34104D02*
X50829Y-34152D01*
X50829Y-34152D02*
X50795Y-34193D01*
X50795Y-34193D02*
X50753Y-34227D01*
X50753Y-34227D02*
X50706Y-34253D01*
X50706Y-34253D02*
X50655Y-34269D01*
X50655Y-34269D02*
X50601Y-34274D01*
X50601Y-34274D02*
X50549Y-34270D01*
X50549Y-34270D02*
X50497Y-34254D01*
X50497Y-34254D02*
X50450Y-34230D01*
X50450Y-34230D02*
X50408Y-34196D01*
X50408Y-34196D02*
X50374Y-34155D01*
X50374Y-34155D02*
X50348Y-34108D01*
X50348Y-34108D02*
X50332Y-34057D01*
X50332Y-34057D02*
X50326Y-34003D01*
X50326Y-34003D02*
X50330Y-33951D01*
X50330Y-33951D02*
X50345Y-33899D01*
X50345Y-33899D02*
X50369Y-33852D01*
X50369Y-33852D02*
X50403Y-33809D01*
X50403Y-33809D02*
X50444Y-33775D01*
X50444Y-33775D02*
X50490Y-33749D01*
X50490Y-33749D02*
X50541Y-33732D01*
X50541Y-33732D02*
X50595Y-33726D01*
X50595Y-33726D02*
X50647Y-33730D01*
X50647Y-33730D02*
X50699Y-33744D01*
X50699Y-33744D02*
X50747Y-33768D01*
X50747Y-33768D02*
X50789Y-33801D01*
X50789Y-33801D02*
X50824Y-33842D01*
X50824Y-33842D02*
X50851Y-33889D01*
X50851Y-33889D02*
X50868Y-33940D01*
X50868Y-33940D02*
X50874Y-33993D01*
X50874Y-33993D02*
X50875Y-34000D01*
X50875Y-37000D02*
X50869Y-37053D01*
X50869Y-37053D02*
X50854Y-37104D01*
X50854Y-37104D02*
X50829Y-37152D01*
X50829Y-37152D02*
X50795Y-37193D01*
X50795Y-37193D02*
X50753Y-37227D01*
X50753Y-37227D02*
X50706Y-37253D01*
X50706Y-37253D02*
X50655Y-37269D01*
X50655Y-37269D02*
X50601Y-37274D01*
X50601Y-37274D02*
X50549Y-37270D01*
X50549Y-37270D02*
X50497Y-37254D01*
X50497Y-37254D02*
X50450Y-37230D01*
X50450Y-37230D02*
X50408Y-37196D01*
X50408Y-37196D02*
X50374Y-37155D01*
X50374Y-37155D02*
X50348Y-37108D01*
X50348Y-37108D02*
X50332Y-37057D01*
X50332Y-37057D02*
X50326Y-37003D01*
X50326Y-37003D02*
X50330Y-36951D01*
X50330Y-36951D02*
X50345Y-36899D01*
X50345Y-36899D02*
X50369Y-36852D01*
X50369Y-36852D02*
X50403Y-36809D01*
X50403Y-36809D02*
X50444Y-36775D01*
X50444Y-36775D02*
X50490Y-36749D01*
X50490Y-36749D02*
X50541Y-36732D01*
X50541Y-36732D02*
X50595Y-36726D01*
X50595Y-36726D02*
X50647Y-36730D01*
X50647Y-36730D02*
X50699Y-36744D01*
X50699Y-36744D02*
X50747Y-36768D01*
X50747Y-36768D02*
X50789Y-36801D01*
X50789Y-36801D02*
X50824Y-36842D01*
X50824Y-36842D02*
X50851Y-36889D01*
X50851Y-36889D02*
X50868Y-36940D01*
X50868Y-36940D02*
X50874Y-36993D01*
X50874Y-36993D02*
X50875Y-37000D01*
X59000Y-31750D02*
X58987Y-31876D01*
X58987Y-31876D02*
X58950Y-31997D01*
X58950Y-31997D02*
X58891Y-32109D01*
X58891Y-32109D02*
X58811Y-32208D01*
X58811Y-32208D02*
X58713Y-32288D01*
X58713Y-32288D02*
X58601Y-32349D01*
X58601Y-32349D02*
X58480Y-32386D01*
X58480Y-32386D02*
X58354Y-32399D01*
X58354Y-32399D02*
X58229Y-32388D01*
X58229Y-32388D02*
X58107Y-32352D01*
X58107Y-32352D02*
X57995Y-32293D01*
X57995Y-32293D02*
X57896Y-32214D01*
X57896Y-32214D02*
X57814Y-32117D01*
X57814Y-32117D02*
X57753Y-32006D01*
X57753Y-32006D02*
X57715Y-31885D01*
X57715Y-31885D02*
X57701Y-31759D01*
X57701Y-31759D02*
X57711Y-31633D01*
X57711Y-31633D02*
X57746Y-31511D01*
X57746Y-31511D02*
X57804Y-31398D01*
X57804Y-31398D02*
X57883Y-31299D01*
X57883Y-31299D02*
X57980Y-31217D01*
X57980Y-31217D02*
X58090Y-31155D01*
X58090Y-31155D02*
X58211Y-31116D01*
X58211Y-31116D02*
X58337Y-31101D01*
X58337Y-31101D02*
X58462Y-31110D01*
X58462Y-31110D02*
X58585Y-31144D01*
X58585Y-31144D02*
X58698Y-31202D01*
X58698Y-31202D02*
X58798Y-31280D01*
X58798Y-31280D02*
X58881Y-31376D01*
X58881Y-31376D02*
X58943Y-31486D01*
X58943Y-31486D02*
X58983Y-31606D01*
X58983Y-31606D02*
X58999Y-31732D01*
X58999Y-31732D02*
X59000Y-31750D01*
X51000Y-31750D02*
X50987Y-31876D01*
X50987Y-31876D02*
X50950Y-31997D01*
X50950Y-31997D02*
X50891Y-32109D01*
X50891Y-32109D02*
X50811Y-32208D01*
X50811Y-32208D02*
X50713Y-32288D01*
X50713Y-32288D02*
X50601Y-32349D01*
X50601Y-32349D02*
X50480Y-32386D01*
X50480Y-32386D02*
X50354Y-32399D01*
X50354Y-32399D02*
X50229Y-32388D01*
X50229Y-32388D02*
X50107Y-32352D01*
X50107Y-32352D02*
X49995Y-32293D01*
X49995Y-32293D02*
X49896Y-32214D01*
X49896Y-32214D02*
X49814Y-32117D01*
X49814Y-32117D02*
X49753Y-32006D01*
X49753Y-32006D02*
X49715Y-31885D01*
X49715Y-31885D02*
X49701Y-31759D01*
X49701Y-31759D02*
X49711Y-31633D01*
X49711Y-31633D02*
X49746Y-31511D01*
X49746Y-31511D02*
X49804Y-31398D01*
X49804Y-31398D02*
X49883Y-31299D01*
X49883Y-31299D02*
X49980Y-31217D01*
X49980Y-31217D02*
X50090Y-31155D01*
X50090Y-31155D02*
X50211Y-31116D01*
X50211Y-31116D02*
X50337Y-31101D01*
X50337Y-31101D02*
X50462Y-31110D01*
X50462Y-31110D02*
X50585Y-31144D01*
X50585Y-31144D02*
X50698Y-31202D01*
X50698Y-31202D02*
X50798Y-31280D01*
X50798Y-31280D02*
X50881Y-31376D01*
X50881Y-31376D02*
X50943Y-31486D01*
X50943Y-31486D02*
X50983Y-31606D01*
X50983Y-31606D02*
X50999Y-31732D01*
X50999Y-31732D02*
X51000Y-31750D01*
X59000Y-43750D02*
X58987Y-43876D01*
X58987Y-43876D02*
X58950Y-43997D01*
X58950Y-43997D02*
X58891Y-44109D01*
X58891Y-44109D02*
X58811Y-44208D01*
X58811Y-44208D02*
X58713Y-44288D01*
X58713Y-44288D02*
X58601Y-44349D01*
X58601Y-44349D02*
X58480Y-44386D01*
X58480Y-44386D02*
X58354Y-44399D01*
X58354Y-44399D02*
X58229Y-44388D01*
X58229Y-44388D02*
X58107Y-44352D01*
X58107Y-44352D02*
X57995Y-44293D01*
X57995Y-44293D02*
X57896Y-44214D01*
X57896Y-44214D02*
X57814Y-44117D01*
X57814Y-44117D02*
X57753Y-44006D01*
X57753Y-44006D02*
X57715Y-43885D01*
X57715Y-43885D02*
X57701Y-43759D01*
X57701Y-43759D02*
X57711Y-43633D01*
X57711Y-43633D02*
X57746Y-43511D01*
X57746Y-43511D02*
X57804Y-43398D01*
X57804Y-43398D02*
X57883Y-43299D01*
X57883Y-43299D02*
X57980Y-43217D01*
X57980Y-43217D02*
X58090Y-43155D01*
X58090Y-43155D02*
X58211Y-43116D01*
X58211Y-43116D02*
X58337Y-43101D01*
X58337Y-43101D02*
X58462Y-43110D01*
X58462Y-43110D02*
X58585Y-43144D01*
X58585Y-43144D02*
X58698Y-43202D01*
X58698Y-43202D02*
X58798Y-43280D01*
X58798Y-43280D02*
X58881Y-43376D01*
X58881Y-43376D02*
X58943Y-43486D01*
X58943Y-43486D02*
X58983Y-43606D01*
X58983Y-43606D02*
X58999Y-43732D01*
X58999Y-43732D02*
X59000Y-43750D01*
X51000Y-43750D02*
X50987Y-43876D01*
X50987Y-43876D02*
X50950Y-43997D01*
X50950Y-43997D02*
X50891Y-44109D01*
X50891Y-44109D02*
X50811Y-44208D01*
X50811Y-44208D02*
X50713Y-44288D01*
X50713Y-44288D02*
X50601Y-44349D01*
X50601Y-44349D02*
X50480Y-44386D01*
X50480Y-44386D02*
X50354Y-44399D01*
X50354Y-44399D02*
X50229Y-44388D01*
X50229Y-44388D02*
X50107Y-44352D01*
X50107Y-44352D02*
X49995Y-44293D01*
X49995Y-44293D02*
X49896Y-44214D01*
X49896Y-44214D02*
X49814Y-44117D01*
X49814Y-44117D02*
X49753Y-44006D01*
X49753Y-44006D02*
X49715Y-43885D01*
X49715Y-43885D02*
X49701Y-43759D01*
X49701Y-43759D02*
X49711Y-43633D01*
X49711Y-43633D02*
X49746Y-43511D01*
X49746Y-43511D02*
X49804Y-43398D01*
X49804Y-43398D02*
X49883Y-43299D01*
X49883Y-43299D02*
X49980Y-43217D01*
X49980Y-43217D02*
X50090Y-43155D01*
X50090Y-43155D02*
X50211Y-43116D01*
X50211Y-43116D02*
X50337Y-43101D01*
X50337Y-43101D02*
X50462Y-43110D01*
X50462Y-43110D02*
X50585Y-43144D01*
X50585Y-43144D02*
X50698Y-43202D01*
X50698Y-43202D02*
X50798Y-43280D01*
X50798Y-43280D02*
X50881Y-43376D01*
X50881Y-43376D02*
X50943Y-43486D01*
X50943Y-43486D02*
X50983Y-43606D01*
X50983Y-43606D02*
X50999Y-43732D01*
X50999Y-43732D02*
X51000Y-43750D01*
G54D10*
X56100Y-37700D02*
X56100Y-37300D01*
X56100Y-37300D02*
X56367Y-37300D01*
X56367Y-37300D02*
X56411Y-37345D01*
X56411Y-37345D02*
X56411Y-37478D01*
X56411Y-37478D02*
X56367Y-37523D01*
X56367Y-37523D02*
X56100Y-37523D01*
X56644Y-37300D02*
X56955Y-37300D01*
X56955Y-37300D02*
X56955Y-37345D01*
X56955Y-37345D02*
X56777Y-37478D01*
X56777Y-37478D02*
X56911Y-37478D01*
X56911Y-37478D02*
X56955Y-37523D01*
X56955Y-37523D02*
X56955Y-37656D01*
X56955Y-37656D02*
X56911Y-37700D01*
X56911Y-37700D02*
X56688Y-37700D01*
X56688Y-37700D02*
X56644Y-37656D01*
X57800Y-41650D02*
X57800Y-41250D01*
X57800Y-41250D02*
X58067Y-41250D01*
X58067Y-41250D02*
X58111Y-41295D01*
X58111Y-41295D02*
X58111Y-41428D01*
X58111Y-41428D02*
X58067Y-41473D01*
X58067Y-41473D02*
X57800Y-41473D01*
X58433Y-41650D02*
X58611Y-41650D01*
X58522Y-41650D02*
X58522Y-41250D01*
X58522Y-41295D02*
X58433Y-41384D01*
G54D21*
X50875Y-36604D02*
X50875Y-36382D01*
X50875Y-36493D02*
X50325Y-36493D01*
X50387Y-36493D02*
X50509Y-36604D01*
X50875Y-36080D02*
X50325Y-35691D01*
X50814Y-36080D02*
X50387Y-36080D01*
X50387Y-36080D02*
X50325Y-36024D01*
X50325Y-36024D02*
X50325Y-35747D01*
X50325Y-35747D02*
X50387Y-35691D01*
X50387Y-35691D02*
X50814Y-35691D01*
X50814Y-35691D02*
X50875Y-35747D01*
X50875Y-35747D02*
X50875Y-36024D01*
X50875Y-36024D02*
X50814Y-36080D01*
X50875Y-35445D02*
X50325Y-35445D01*
X50325Y-35112D02*
X50570Y-35445D01*
X50570Y-35445D02*
X50875Y-35056D01*
X50875Y-34699D02*
X50875Y-34477D01*
X50875Y-34588D02*
X50325Y-34588D01*
X50387Y-34588D02*
X50509Y-34699D01*
M02*
