G04 (created by PCBNEW (2013-jul-07)-stable) date Thu 13 Aug 2015 05:12:16 PM PDT*
%MOIN*%
G04 Gerber Fmt 3.4, Leading zero omitted, Abs format*
%FSLAX34Y34*%
G01*
G70*
G90*
G04 APERTURE LIST*
%ADD10C,0.00393701*%
%ADD11C,0.01*%
%ADD12C,0.015*%
%ADD13C,0.012*%
%ADD14C,0.008*%
G04 APERTURE END LIST*
G54D10*
G54D11*
X50859Y-38642D02*
X50859Y-38042D01*
X51030Y-38614D02*
X51088Y-38642D01*
X51183Y-38642D01*
X51221Y-38614D01*
X51240Y-38585D01*
X51259Y-38528D01*
X51259Y-38471D01*
X51240Y-38414D01*
X51221Y-38385D01*
X51183Y-38357D01*
X51107Y-38328D01*
X51069Y-38300D01*
X51050Y-38271D01*
X51030Y-38214D01*
X51030Y-38157D01*
X51050Y-38100D01*
X51069Y-38071D01*
X51107Y-38042D01*
X51202Y-38042D01*
X51259Y-38071D01*
X51430Y-38642D02*
X51430Y-38042D01*
X51583Y-38042D01*
X51621Y-38071D01*
X51640Y-38100D01*
X51659Y-38157D01*
X51659Y-38242D01*
X51640Y-38300D01*
X51621Y-38328D01*
X51583Y-38357D01*
X51430Y-38357D01*
X53069Y-34092D02*
X53069Y-33492D01*
X53221Y-33492D01*
X53259Y-33521D01*
X53278Y-33550D01*
X53297Y-33607D01*
X53297Y-33692D01*
X53278Y-33750D01*
X53259Y-33778D01*
X53221Y-33807D01*
X53069Y-33807D01*
X53640Y-34092D02*
X53640Y-33778D01*
X53621Y-33721D01*
X53583Y-33692D01*
X53507Y-33692D01*
X53469Y-33721D01*
X53640Y-34064D02*
X53602Y-34092D01*
X53507Y-34092D01*
X53469Y-34064D01*
X53450Y-34007D01*
X53450Y-33950D01*
X53469Y-33892D01*
X53507Y-33864D01*
X53602Y-33864D01*
X53640Y-33835D01*
X53830Y-33692D02*
X53830Y-34092D01*
X53830Y-33750D02*
X53850Y-33721D01*
X53888Y-33692D01*
X53945Y-33692D01*
X53983Y-33721D01*
X54002Y-33778D01*
X54002Y-34092D01*
X54345Y-34064D02*
X54307Y-34092D01*
X54230Y-34092D01*
X54192Y-34064D01*
X54173Y-34007D01*
X54173Y-33778D01*
X54192Y-33721D01*
X54230Y-33692D01*
X54307Y-33692D01*
X54345Y-33721D01*
X54364Y-33778D01*
X54364Y-33835D01*
X54173Y-33892D01*
X54592Y-34092D02*
X54554Y-34064D01*
X54535Y-34007D01*
X54535Y-33492D01*
X55050Y-34092D02*
X55050Y-33492D01*
X55221Y-34064D02*
X55278Y-34092D01*
X55373Y-34092D01*
X55411Y-34064D01*
X55430Y-34035D01*
X55450Y-33978D01*
X55450Y-33921D01*
X55430Y-33864D01*
X55411Y-33835D01*
X55373Y-33807D01*
X55297Y-33778D01*
X55259Y-33750D01*
X55240Y-33721D01*
X55221Y-33664D01*
X55221Y-33607D01*
X55240Y-33550D01*
X55259Y-33521D01*
X55297Y-33492D01*
X55392Y-33492D01*
X55450Y-33521D01*
X55621Y-34092D02*
X55621Y-33492D01*
X55773Y-33492D01*
X55811Y-33521D01*
X55830Y-33550D01*
X55850Y-33607D01*
X55850Y-33692D01*
X55830Y-33750D01*
X55811Y-33778D01*
X55773Y-33807D01*
X55621Y-33807D01*
X56676Y-34692D02*
X56600Y-34692D01*
X56561Y-34721D01*
X56542Y-34750D01*
X56504Y-34835D01*
X56485Y-34950D01*
X56485Y-35178D01*
X56504Y-35235D01*
X56523Y-35264D01*
X56561Y-35292D01*
X56638Y-35292D01*
X56676Y-35264D01*
X56695Y-35235D01*
X56714Y-35178D01*
X56714Y-35035D01*
X56695Y-34978D01*
X56676Y-34950D01*
X56638Y-34921D01*
X56561Y-34921D01*
X56523Y-34950D01*
X56504Y-34978D01*
X56485Y-35035D01*
X56695Y-35942D02*
X56504Y-35942D01*
X56485Y-36228D01*
X56504Y-36200D01*
X56542Y-36171D01*
X56638Y-36171D01*
X56676Y-36200D01*
X56695Y-36228D01*
X56714Y-36285D01*
X56714Y-36428D01*
X56695Y-36485D01*
X56676Y-36514D01*
X56638Y-36542D01*
X56542Y-36542D01*
X56504Y-36514D01*
X56485Y-36485D01*
X52185Y-34750D02*
X52204Y-34721D01*
X52242Y-34692D01*
X52338Y-34692D01*
X52376Y-34721D01*
X52395Y-34750D01*
X52414Y-34807D01*
X52414Y-34864D01*
X52395Y-34950D01*
X52166Y-35292D01*
X52414Y-35292D01*
X52414Y-36542D02*
X52185Y-36542D01*
X52300Y-36542D02*
X52300Y-35942D01*
X52261Y-36028D01*
X52223Y-36085D01*
X52185Y-36114D01*
G54D12*
X52850Y-37750D02*
X53850Y-37750D01*
X53850Y-37750D02*
X53350Y-37250D01*
X53350Y-37250D02*
X52850Y-37750D01*
X52600Y-34500D02*
X52600Y-37000D01*
X52600Y-37000D02*
X56100Y-37000D01*
X56100Y-37000D02*
X56100Y-34500D01*
X56100Y-34500D02*
X52600Y-34500D01*
X58600Y-39000D02*
X50100Y-39000D01*
X50100Y-41000D02*
X58600Y-41000D01*
X58600Y-39000D02*
X58600Y-41000D01*
X50100Y-39000D02*
X50100Y-41000D01*
X50350Y-41750D02*
X51350Y-41750D01*
X51350Y-41750D02*
X50850Y-41250D01*
X50850Y-41250D02*
X50350Y-41750D01*
G54D13*
X50600Y-34000D02*
X50600Y-34200D01*
X50600Y-37000D02*
X50600Y-36800D01*
X50600Y-36800D02*
X51000Y-36800D01*
X51000Y-36800D02*
X51000Y-34200D01*
X51000Y-34200D02*
X50200Y-34200D01*
X50200Y-34200D02*
X50200Y-36800D01*
X50200Y-36800D02*
X50600Y-36800D01*
X50800Y-34200D02*
X51000Y-34400D01*
G54D11*
X56304Y-37661D02*
X56304Y-37261D01*
X56457Y-37261D01*
X56495Y-37280D01*
X56514Y-37300D01*
X56533Y-37338D01*
X56533Y-37395D01*
X56514Y-37433D01*
X56495Y-37452D01*
X56457Y-37471D01*
X56304Y-37471D01*
X56666Y-37261D02*
X56914Y-37261D01*
X56780Y-37414D01*
X56838Y-37414D01*
X56876Y-37433D01*
X56895Y-37452D01*
X56914Y-37490D01*
X56914Y-37585D01*
X56895Y-37623D01*
X56876Y-37642D01*
X56838Y-37661D01*
X56723Y-37661D01*
X56685Y-37642D01*
X56666Y-37623D01*
X58004Y-41611D02*
X58004Y-41211D01*
X58157Y-41211D01*
X58195Y-41230D01*
X58214Y-41250D01*
X58233Y-41288D01*
X58233Y-41345D01*
X58214Y-41383D01*
X58195Y-41402D01*
X58157Y-41421D01*
X58004Y-41421D01*
X58614Y-41611D02*
X58385Y-41611D01*
X58500Y-41611D02*
X58500Y-41211D01*
X58461Y-41269D01*
X58423Y-41307D01*
X58385Y-41326D01*
G54D14*
X50822Y-36083D02*
X50822Y-36369D01*
X50822Y-36226D02*
X50272Y-36226D01*
X50351Y-36273D01*
X50403Y-36321D01*
X50429Y-36369D01*
X50272Y-35773D02*
X50272Y-35726D01*
X50298Y-35678D01*
X50325Y-35654D01*
X50377Y-35630D01*
X50482Y-35607D01*
X50613Y-35607D01*
X50717Y-35630D01*
X50770Y-35654D01*
X50796Y-35678D01*
X50822Y-35726D01*
X50822Y-35773D01*
X50796Y-35821D01*
X50770Y-35845D01*
X50717Y-35869D01*
X50613Y-35892D01*
X50482Y-35892D01*
X50377Y-35869D01*
X50325Y-35845D01*
X50298Y-35821D01*
X50272Y-35773D01*
X50822Y-35392D02*
X50272Y-35392D01*
X50822Y-35107D02*
X50508Y-35321D01*
X50272Y-35107D02*
X50586Y-35392D01*
X50822Y-34630D02*
X50822Y-34916D01*
X50822Y-34773D02*
X50272Y-34773D01*
X50351Y-34821D01*
X50403Y-34869D01*
X50429Y-34916D01*
M02*
